<?xml version="1.0" standalone="no"?>
<!DOCTYPE svg PUBLIC "-//W3C//DTD SVG 20010904//EN"
 "http://www.w3.org/TR/2001/REC-SVG-20010904/DTD/svg10.dtd">
<svg version="1.0" xmlns="http://www.w3.org/2000/svg"
 width="225.000000pt" height="225.000000pt" viewBox="0 0 225.000000 225.000000"
 preserveAspectRatio="xMidYMid meet">

<g transform="translate(0.000000,225.000000) scale(0.100000,-0.100000)"
fill="#000000" stroke="none">
<path d="M605 1608 c28 -30 61 -60 74 -67 58 -29 25 27 -35 60 -24 13 -44 26
-44 29 0 3 -10 11 -22 19 -13 8 0 -11 27 -41z"/>
<path d="M577 1593 c-4 -3 -21 -6 -37 -5 -19 0 -30 -4 -27 -11 5 -15 56 -42
95 -50 27 -5 32 -3 32 12 0 25 -50 68 -63 54z"/>
<path d="M650 1515 c0 -19 -6 -26 -27 -30 -36 -8 -80 -29 -122 -60 -44 -32
-72 -32 -112 2 -30 25 -31 26 -20 5 28 -52 106 -55 176 -9 28 18 71 41 98 51
51 19 55 26 31 50 -21 21 -24 20 -24 -9z"/>
<path d="M37 1500 c-4 -15 3 -22 30 -31 19 -6 37 -8 40 -5 4 3 1 6 -6 6 -8 0
-11 7 -7 15 4 11 -3 19 -20 25 -33 13 -31 13 -37 -10z"/>
<path d="M153 1483 c-3 -10 -8 -21 -10 -25 -10 -19 6 -5 21 17 9 14 12 25 6
25 -6 0 -13 -8 -17 -17z"/>
<path d="M452 1454 c15 -15 30 -26 33 -23 2 3 -10 16 -28 29 l-32 23 27 -29z"/>
<path d="M50 1450 c8 -5 20 -10 25 -10 6 0 3 5 -5 10 -8 5 -19 10 -25 10 -5 0
-3 -5 5 -10z"/>
<path d="M0 1420 c0 -11 7 -20 15 -20 17 0 18 2 9 24 -9 23 -24 20 -24 -4z"/>
<path d="M176 1421 c12 -13 169 -69 594 -213 195 -66 361 -127 368 -136 6 -9
12 -11 12 -5 0 7 24 3 65 -10 43 -14 65 -26 65 -37 0 -10 3 -11 8 -3 5 8 120
-26 405 -122 218 -74 397 -130 397 -126 0 10 33 -2 -490 184 -376 133 -435
157 -432 173 2 17 2 17 -8 2 -9 -15 -34 -9 -258 68 -625 215 -759 257 -726
225z"/>
<path d="M135 1410 c3 -5 8 -10 11 -10 2 0 4 5 4 10 0 6 -5 10 -11 10 -5 0 -7
-4 -4 -10z"/>
<path d="M883 1263 c8 -12 98 -45 105 -39 10 10 -10 24 -44 30 -19 4 -43 10
-51 13 -10 4 -14 2 -10 -4z"/>
<path d="M911 993 c-1 -6 -4 -20 -7 -30 -5 -17 -5 -17 6 0 6 10 9 23 6 30 -3
9 -5 9 -5 0z"/>
<path d="M802 920 c0 -14 2 -19 5 -12 2 6 2 18 0 25 -3 6 -5 1 -5 -13z"/>
<path d="M780 883 c0 -17 40 -43 65 -42 14 0 10 4 -13 12 -18 7 -37 19 -42 27
-6 9 -10 10 -10 3z"/>
<path d="M1471 864 c-6 -14 -8 -30 -5 -36 4 -6 2 -8 -4 -4 -6 3 -13 -2 -17
-13 -9 -28 -81 -138 -128 -193 -89 -106 -206 -168 -317 -168 -35 0 -66 9 -111
33 -106 55 -132 136 -83 264 15 38 15 46 3 54 -8 5 -17 9 -21 9 -9 0 -36 -86
-43 -142 -12 -84 33 -176 108 -219 37 -21 54 -24 147 -24 143 1 193 24 305
139 81 83 159 200 150 224 -3 7 -1 11 3 8 12 -7 44 63 36 76 -4 7 -2 8 4 4 7
-4 12 -2 12 3 0 21 -27 11 -39 -15z"/>
</g>
</svg>
