<?xml version="1.0" standalone="no"?>
<!DOCTYPE svg PUBLIC "-//W3C//DTD SVG 20010904//EN"
 "http://www.w3.org/TR/2001/REC-SVG-20010904/DTD/svg10.dtd">
<svg version="1.0" xmlns="http://www.w3.org/2000/svg"
 width="1280.000000pt" height="1152.000000pt" viewBox="0 0 1280.000000 1152.000000"
 preserveAspectRatio="xMidYMid meet">
<metadata>
Created by potrace 1.15, written by Peter Selinger 2001-2017
</metadata>
<g transform="translate(0.000000,1152.000000) scale(0.100000,-0.100000)"
fill="#000000" stroke="none">
<path d="M4680 11495 c0 -11 -7 -14 -24 -9 -14 3 -27 1 -31 -6 -6 -9 -10 -9
-16 1 -6 11 -11 11 -20 2 -9 -9 -16 -10 -26 -2 -17 15 -62 -3 -94 -37 -25 -26
-40 -31 -36 -11 5 28 -25 9 -46 -28 -20 -35 -65 -71 -75 -60 -3 2 12 26 32 54
l36 49 -31 7 c-26 6 -36 3 -58 -20 l-26 -28 33 22 c25 18 32 19 32 7 0 -15
-45 -56 -61 -56 -5 0 -9 7 -9 15 0 18 -12 19 -28 3 -7 -7 -12 -9 -12 -4 0 4
-10 0 -22 -8 -12 -9 -33 -16 -46 -16 l-23 0 20 -26 c34 -43 28 -64 -18 -64
-35 0 -40 3 -43 26 l-3 25 -34 -25 c-19 -14 -41 -40 -50 -58 -9 -18 -21 -33
-28 -33 -6 0 -39 -13 -72 -30 -39 -20 -60 -36 -61 -48 0 -31 -30 -78 -56 -87
-14 -6 -30 -23 -36 -40 -12 -36 -45 -57 -61 -41 -8 8 -4 19 14 38 l24 28 -25
-20 c-45 -35 -100 -89 -100 -98 0 -4 4 -6 9 -2 6 3 6 -6 1 -24 -12 -43 -18
-51 -48 -63 -15 -6 -22 -12 -15 -15 9 -3 9 -12 2 -29 -14 -38 -11 -40 13 -8
13 16 33 37 45 47 12 10 20 24 17 31 -8 20 35 66 62 66 17 0 45 21 94 73 64
67 130 118 130 100 0 -4 7 3 16 15 8 12 21 22 27 22 11 0 53 19 141 63 21 11
47 27 56 36 58 55 84 70 128 77 26 4 60 13 77 22 36 18 136 43 130 31 -3 -4
-1 -10 5 -14 5 -3 10 3 10 14 0 17 6 21 30 21 17 0 47 8 68 19 20 10 49 17 64
15 15 -1 30 2 34 7 4 6 10 6 19 -1 9 -7 21 -7 40 0 38 14 300 -7 359 -30 15
-5 38 -10 52 -10 13 0 24 -4 24 -10 0 -15 26 -12 39 4 12 14 61 19 61 5 0 -8
31 -20 65 -25 98 -14 126 -20 165 -40 29 -15 49 -19 56 -13 7 6 17 2 29 -11
10 -11 25 -20 34 -20 9 0 25 -15 35 -34 11 -21 24 -32 32 -29 8 3 14 0 14 -6
0 -14 37 -29 89 -35 22 -2 52 -13 66 -24 14 -11 47 -25 75 -32 27 -6 54 -18
60 -25 6 -8 26 -17 43 -20 18 -4 41 -15 52 -24 30 -24 81 -51 99 -51 8 0 30
-9 48 -20 18 -11 40 -20 49 -20 9 0 43 -16 75 -35 32 -19 63 -35 68 -35 6 0
42 -15 81 -34 56 -28 77 -33 103 -28 18 4 33 12 33 17 -1 6 5 10 12 10 6 0 12
-6 12 -12 0 -19 63 -47 211 -93 101 -31 138 -39 144 -30 6 9 11 8 21 -3 7 -7
22 -12 33 -9 12 3 17 1 13 -5 -5 -7 0 -9 13 -6 12 3 29 -2 40 -12 13 -12 27
-15 45 -11 16 4 58 -4 112 -20 47 -14 108 -27 134 -28 27 0 49 -6 49 -12 0
-10 78 -54 97 -54 13 0 107 -46 153 -75 21 -13 41 -21 45 -17 4 4 12 0 18 -9
7 -9 23 -20 37 -24 30 -9 177 -132 206 -172 12 -16 34 -53 48 -81 15 -29 31
-50 36 -47 6 3 10 -1 10 -10 0 -16 37 -95 44 -95 2 0 13 15 23 33 17 28 18 37
7 73 -18 63 -174 295 -174 260 0 -4 -25 17 -55 47 -30 29 -66 59 -80 65 -15 7
-23 17 -20 22 3 5 -7 15 -22 21 -15 6 -62 27 -104 46 -42 18 -94 37 -115 40
-22 3 -51 12 -66 19 -15 8 -36 14 -46 14 -11 0 -25 7 -33 16 -7 8 -26 15 -43
14 -67 -4 -84 0 -89 20 -4 15 -14 20 -37 20 -17 0 -41 5 -53 11 -21 10 -21 10
-3 -5 11 -9 17 -19 13 -23 -8 -8 -42 9 -78 38 -33 26 -113 44 -105 23 7 -20
-29 -18 -48 2 -9 8 -14 20 -11 25 4 5 -3 9 -15 9 -11 0 -32 8 -46 17 -20 13
-27 14 -34 4 -8 -15 -37 -3 -59 23 -8 9 -17 13 -23 10 -5 -3 -15 -1 -22 6 -8
6 -25 8 -39 5 -14 -4 -34 -2 -44 3 -11 6 -25 7 -35 1 -12 -6 -17 -4 -21 11 -5
20 -25 25 -74 21 -12 -1 -24 3 -28 9 -3 5 2 10 12 10 15 0 16 2 3 10 -8 5 -29
10 -46 10 -17 0 -42 9 -55 21 -39 34 -62 46 -101 53 -40 7 -138 53 -150 71 -5
6 -11 6 -16 -3 -10 -15 -42 -5 -42 13 0 8 -14 15 -32 17 -21 2 -32 8 -30 16 3
15 -64 46 -78 37 -6 -4 -10 -1 -10 5 0 5 -12 10 -27 9 -16 -1 -49 10 -75 24
-26 15 -58 27 -72 27 -14 0 -28 5 -32 12 -5 8 -2 9 9 5 10 -3 17 -3 17 2 0 5
-15 12 -34 15 -45 9 -94 33 -105 53 -5 9 -15 14 -24 10 -10 -4 -23 2 -33 16
-11 15 -18 18 -21 10 -3 -9 -10 -10 -23 -3 -25 13 -101 32 -128 31 -13 -1 -43
10 -68 24 -43 24 -110 29 -156 10 -11 -4 -16 -1 -15 11 1 12 -11 25 -35 36
-33 16 -41 16 -76 4 -49 -17 -91 -24 -92 -13 -1 22 1 26 13 21 7 -2 24 0 38 6
22 9 21 10 -8 4 -18 -3 -34 -1 -38 6 -5 8 -11 8 -19 1 -8 -6 -41 -8 -82 -5
-154 12 -206 5 -244 -31 -25 -24 -30 -26 -36 -11 -3 9 -4 25 -1 36 3 13 0 20
-9 20 -8 0 -14 -7 -14 -15z m600 -80 c10 -13 9 -15 -9 -15 -12 0 -21 6 -21 15
0 8 4 15 9 15 5 0 14 -7 21 -15z"/>
<path d="M4720 11501 c0 -17 18 -21 24 -6 3 9 0 15 -9 15 -8 0 -15 -4 -15 -9z"/>
<path d="M4445 11480 c-3 -5 -2 -10 4 -10 5 0 13 5 16 10 3 6 2 10 -4 10 -5 0
-13 -4 -16 -10z"/>
<path d="M5816 11305 c4 -8 13 -15 21 -15 13 0 13 3 3 15 -7 8 -16 15 -21 15
-5 0 -6 -7 -3 -15z"/>
<path d="M3796 11124 c-5 -14 -4 -15 9 -4 17 14 19 20 6 20 -5 0 -12 -7 -15
-16z"/>
<path d="M3520 10779 c0 -5 5 -7 10 -4 6 3 10 8 10 11 0 2 -4 4 -10 4 -5 0
-10 -5 -10 -11z"/>
<path d="M3446 10729 c-9 -17 -13 -35 -10 -40 8 -13 44 -11 44 2 0 6 -7 9 -15
5 -16 -6 -21 9 -6 18 12 8 21 46 11 46 -5 0 -16 -14 -24 -31z"/>
<path d="M3465 10660 c-3 -5 -2 -10 4 -10 5 0 13 5 16 10 3 6 2 10 -4 10 -5 0
-13 -4 -16 -10z"/>
<path d="M3410 10618 c0 -9 5 -20 10 -23 13 -8 13 5 0 25 -8 13 -10 13 -10 -2z"/>
<path d="M3410 10529 c0 -5 5 -7 10 -4 6 3 10 8 10 11 0 2 -4 4 -10 4 -5 0
-10 -5 -10 -11z"/>
<path d="M3280 10449 c0 -5 5 -7 10 -4 6 3 10 8 10 11 0 2 -4 4 -10 4 -5 0
-10 -5 -10 -11z"/>
<path d="M4679 10196 c-38 -19 -79 -28 -79 -16 0 16 -34 12 -81 -11 -33 -15
-37 -19 -15 -14 25 5 28 4 18 -8 -7 -8 -32 -17 -57 -19 -34 -4 -55 -15 -87
-44 -24 -21 -44 -43 -46 -48 -2 -8 -1 -8 5 0 4 6 16 13 26 17 16 6 16 4 3 -22
-14 -27 -46 -39 -46 -17 0 6 -9 -2 -19 -18 -11 -16 -27 -33 -35 -38 -11 -6
-14 -17 -10 -33 4 -17 0 -26 -14 -34 -30 -16 -52 -68 -46 -106 3 -18 0 -36 -6
-40 -7 -4 -7 -12 0 -25 7 -13 6 -19 -4 -23 -17 -7 -27 -58 -14 -74 6 -7 7 -21
3 -30 -7 -17 -8 -16 -15 2 -8 19 -9 19 -9 -2 -1 -12 3 -33 9 -47 7 -19 6 -29
-6 -41 -8 -8 -12 -20 -9 -25 4 -6 2 -16 -3 -23 -7 -8 -6 -30 4 -66 7 -30 15
-82 16 -116 2 -49 6 -61 17 -57 11 4 13 -1 9 -22 -3 -16 1 -40 8 -55 8 -16 10
-27 4 -29 -15 -5 -12 -45 6 -70 8 -12 12 -22 8 -22 -4 0 0 -8 8 -17 9 -10 19
-40 23 -68 4 -27 10 -54 14 -60 5 -5 11 -19 15 -29 6 -17 5 -17 -11 -5 -15 13
-16 12 -9 -6 15 -41 18 -75 8 -103 -7 -22 -7 -33 1 -42 9 -9 7 -15 -7 -26 -15
-10 -16 -14 -5 -14 12 0 15 -13 14 -57 -1 -32 3 -64 9 -71 6 -9 4 -28 -8 -61
-21 -61 -12 -161 15 -161 5 0 9 -7 9 -15 0 -8 -7 -15 -16 -15 -10 0 -14 6 -11
15 11 28 -16 28 -39 0 -20 -25 -22 -36 -17 -98 5 -57 4 -69 -8 -65 -9 3 -13
17 -12 39 1 19 -1 25 -4 14 -3 -11 -9 -24 -14 -29 -5 -6 -9 -20 -9 -31 0 -26
-33 -97 -53 -114 -26 -21 -60 -118 -53 -151 6 -34 -3 -38 -27 -12 -21 23 -22
36 -2 28 8 -3 15 -1 15 4 0 19 -18 19 -35 0 -14 -15 -15 -23 -6 -34 9 -11 7
-15 -9 -19 -11 -3 -20 -13 -20 -22 0 -9 -4 -13 -10 -10 -5 3 -10 -1 -10 -10 0
-11 -5 -15 -14 -12 -19 8 -44 -22 -52 -61 -7 -35 -19 -48 -29 -32 -14 23 -25
7 -25 -40 0 -38 -5 -54 -22 -70 -12 -11 -23 -19 -24 -17 -3 3 9 60 20 93 5 16
2 23 -13 27 -23 6 -45 -9 -55 -37 -7 -19 -6 -19 14 -1 17 15 20 16 20 3 0 -9
-9 -26 -20 -39 -16 -20 -21 -22 -29 -9 -9 12 -14 11 -40 -8 -17 -12 -37 -22
-45 -22 -13 0 -12 -6 5 -35 24 -41 19 -55 -22 -55 -24 0 -29 4 -29 24 0 20 -4
23 -21 19 -11 -3 -23 -12 -26 -19 -3 -8 -10 -14 -17 -14 -6 0 -17 -13 -23 -29
-6 -16 -17 -29 -24 -28 -33 2 -139 -16 -139 -25 0 -22 -50 -58 -83 -58 -18 0
-42 -7 -53 -15 -28 -21 -64 -19 -64 4 0 12 8 21 23 24 12 2 6 3 -13 1 -19 -2
-52 -4 -73 -4 -21 0 -36 -4 -33 -9 7 -11 -11 -26 -42 -35 -15 -5 -28 -2 -40
10 -16 16 -17 16 -20 1 -2 -9 -18 -21 -35 -26 l-32 -10 40 1 c22 0 55 -3 74
-8 23 -5 32 -4 28 3 -4 6 0 14 9 17 25 9 72 7 79 -4 9 -14 55 -12 122 5 98 26
245 60 306 70 33 6 107 42 107 53 0 4 14 16 30 25 17 10 30 24 30 31 0 7 21
21 48 31 26 10 63 32 82 49 65 59 108 87 114 73 3 -6 4 0 1 14 -3 20 1 29 20
39 13 7 33 32 44 56 11 23 27 46 34 51 7 4 17 16 20 26 4 10 11 16 15 13 5 -3
16 13 26 34 10 22 24 47 33 56 21 21 113 176 113 191 0 6 6 18 14 25 17 18 56
97 56 115 0 7 -4 13 -10 13 -14 0 -8 53 7 65 7 6 15 46 18 95 3 47 9 104 14
128 5 26 5 42 -1 42 -6 0 -7 11 -3 28 4 15 8 35 9 44 0 9 12 29 25 43 18 21
20 29 10 36 -10 6 -10 11 -1 21 9 11 7 27 -8 69 -11 29 -20 67 -20 84 0 16 -9
50 -20 74 -11 23 -18 47 -15 51 3 4 -2 27 -10 50 -8 23 -13 46 -10 50 3 4 0
30 -6 56 -5 27 -15 69 -20 94 -10 48 -12 209 -3 275 5 40 -14 97 -32 96 -5 -1
-9 4 -9 9 0 6 4 10 9 9 9 -1 46 66 46 84 0 15 60 129 86 163 13 17 20 34 17
38 -4 3 3 15 14 26 12 10 24 16 27 13 3 -4 6 1 6 11 0 10 12 21 29 27 16 6 31
19 34 29 5 20 44 33 156 55 59 11 67 11 95 -6 17 -10 43 -19 59 -19 15 0 27
-4 27 -10 0 -5 6 -10 13 -10 7 0 39 -16 71 -35 32 -19 65 -35 72 -35 8 0 14
-4 14 -10 0 -5 13 -16 29 -22 53 -23 196 -162 227 -222 16 -30 37 -57 46 -59
10 -3 18 -13 18 -22 0 -9 9 -28 20 -42 l19 -25 20 32 c17 29 18 36 6 71 -8 22
-27 56 -43 77 -16 20 -50 66 -75 101 -26 36 -47 61 -47 56 0 -5 -22 14 -49 41
-27 27 -58 54 -68 61 -10 6 -17 16 -16 22 4 15 -185 101 -233 106 -24 2 -52 8
-63 14 -11 6 -33 11 -48 11 -16 0 -33 4 -39 10 -6 6 -18 5 -35 -4z"/>
<path d="M2163 10098 c-18 -6 -33 -15 -33 -19 0 -5 -7 -9 -15 -9 -8 0 -23 -9
-32 -20 -9 -11 -36 -22 -60 -26 -24 -3 -53 -14 -66 -24 -35 -28 -87 -51 -97
-45 -6 3 -10 -2 -10 -13 0 -10 -11 -24 -24 -30 -14 -6 -32 -23 -42 -37 -9 -14
-23 -25 -30 -25 -8 0 -14 -7 -14 -16 0 -10 -6 -14 -14 -11 -9 4 -23 -8 -38
-29 -12 -18 -28 -34 -34 -34 -6 0 -39 -30 -74 -67 -34 -38 -78 -85 -97 -106
-25 -27 -33 -42 -27 -55 10 -23 5 -44 -12 -57 -14 -10 -33 -66 -38 -110 -1
-11 -10 -35 -19 -53 -10 -18 -16 -36 -13 -41 10 -15 -18 -70 -41 -82 -13 -7
-21 -19 -19 -26 3 -7 0 -13 -6 -13 -7 0 -9 -19 -5 -58 2 -32 1 -65 -3 -73 -5
-8 -5 -33 0 -57 4 -23 4 -44 0 -47 -4 -2 -8 -29 -9 -60 -1 -30 -3 -65 -3 -77
-1 -13 2 -93 6 -177 7 -163 15 -191 58 -191 10 0 18 -7 18 -16 0 -8 -4 -12
-10 -9 -30 19 25 -239 56 -262 10 -7 15 -16 11 -19 -4 -4 -2 -13 4 -21 6 -7 8
-13 3 -13 -5 0 -3 -4 5 -9 7 -5 15 -19 16 -32 4 -38 4 -39 16 -37 6 2 26 -24
44 -56 17 -33 46 -72 62 -87 17 -15 34 -41 38 -59 4 -19 16 -35 31 -42 13 -6
21 -14 19 -18 -7 -11 102 -113 113 -106 5 3 12 -2 14 -12 3 -10 14 -18 25 -19
11 -1 36 -13 56 -26 20 -14 74 -34 119 -46 46 -12 96 -26 112 -32 19 -6 33 -6
39 0 6 6 23 7 38 4 16 -3 36 -3 44 1 15 5 15 9 -1 36 -20 32 -59 50 -111 50
-19 0 -55 9 -81 19 -26 11 -59 22 -75 25 -15 4 -36 15 -46 25 -11 11 -22 17
-26 13 -3 -3 -8 4 -11 16 -4 12 -16 24 -28 28 -11 4 -41 24 -65 45 -24 22 -50
39 -57 39 -7 0 -21 14 -31 30 -9 17 -21 30 -25 30 -4 0 -8 9 -8 20 0 12 -13
25 -35 36 -27 13 -33 19 -25 30 13 14 2 42 -25 64 -13 11 -14 10 -8 -6 6 -16
5 -17 -9 -6 -12 9 -15 23 -11 46 3 21 0 42 -10 57 -9 13 -16 28 -16 32 1 5 -2
12 -6 15 -4 4 -6 3 -5 -3 1 -5 2 -17 1 -25 -1 -12 -4 -11 -16 3 -15 21 -9 51
8 40 7 -4 8 0 4 11 -4 10 -7 29 -7 42 0 15 -6 24 -16 24 -12 0 -15 6 -11 21 7
26 -2 81 -12 74 -4 -2 -14 12 -23 31 -9 19 -12 37 -7 39 11 7 0 37 -18 52 -8
6 -12 17 -8 23 6 9 10 9 16 -1 7 -11 9 -11 9 1 0 9 -5 21 -12 28 -15 15 -19
42 -6 42 6 0 8 7 5 15 -4 8 -2 17 2 20 5 2 3 22 -4 42 -7 21 -12 59 -10 86 2
26 -1 47 -6 47 -5 0 -9 7 -9 15 0 8 5 15 10 15 6 0 5 8 -2 20 -11 16 -10 22 6
33 14 10 16 19 10 38 -4 13 -7 28 -6 33 2 4 -2 14 -7 20 -7 8 -7 24 -1 46 5
18 7 44 3 58 -4 18 -2 23 6 18 8 -5 11 1 10 21 -3 35 9 73 22 73 6 0 7 9 4 20
-3 11 -3 20 2 20 4 0 9 12 9 28 5 93 9 120 25 142 24 35 27 82 6 113 -10 16
-13 28 -7 32 15 9 30 -4 23 -20 -7 -19 7 -19 35 1 17 12 22 25 22 63 0 52 5
62 26 54 11 -4 12 -9 3 -19 -6 -7 -9 -19 -6 -26 4 -8 6 -7 6 5 1 9 6 17 11 17
6 0 10 9 10 20 0 11 24 45 53 74 73 76 77 81 77 118 0 29 1 31 16 17 20 -20
68 -13 59 8 -3 11 -1 13 10 9 8 -3 15 -1 15 4 0 5 6 7 14 4 17 -7 46 22 46 46
0 22 16 35 25 20 12 -20 25 -9 25 21 0 36 13 64 34 72 13 5 13 -1 -1 -45 -12
-42 -12 -52 -1 -59 18 -12 29 -7 47 22 l15 24 -22 -19 c-18 -15 -22 -16 -22
-4 0 8 9 23 19 32 17 16 20 16 28 2 7 -13 12 -14 34 -2 13 7 30 11 37 8 15 -5
15 -2 -4 43 -18 44 -13 52 24 39 20 -7 26 -15 24 -32 -2 -12 1 -22 5 -22 18 0
63 25 63 36 0 25 21 31 77 20 54 -11 58 -10 80 12 20 20 30 23 58 18 20 -4 44
-2 55 4 16 8 25 8 35 0 19 -16 7 -42 -16 -35 -11 4 -19 4 -19 1 0 -2 24 -11
52 -20 46 -13 54 -13 61 -1 13 23 55 18 68 -7 8 -14 14 -18 17 -10 2 6 16 12
30 13 l27 1 -26 11 c-14 7 -33 18 -42 25 -9 8 -25 11 -37 7 -29 -9 -70 2 -70
20 0 20 -22 23 -190 30 -80 3 -156 7 -170 9 -14 3 -40 0 -57 -6z"/>
<path d="M2801 9946 c-1 -13 -4 -16 -13 -8 -7 5 -21 7 -31 3 -17 -6 -16 -8 9
-19 31 -15 48 -4 41 24 -5 18 -5 18 -6 0z"/>
<path d="M2825 9950 c3 -5 8 -10 11 -10 2 0 4 5 4 10 0 6 -5 10 -11 10 -5 0
-7 -4 -4 -10z"/>
<path d="M2850 9900 c0 -5 4 -10 9 -10 6 0 13 5 16 10 3 6 -1 10 -9 10 -9 0
-16 -4 -16 -10z"/>
<path d="M2930 9880 c0 -5 5 -10 11 -10 5 0 7 5 4 10 -3 6 -8 10 -11 10 -2 0
-4 -4 -4 -10z"/>
<path d="M1920 9850 c0 -5 5 -10 10 -10 6 0 10 5 10 10 0 6 -4 10 -10 10 -5 0
-10 -4 -10 -10z"/>
<path d="M1780 9770 c0 -5 5 -10 10 -10 6 0 10 5 10 10 0 6 -4 10 -10 10 -5 0
-10 -4 -10 -10z"/>
<path d="M1750 9761 c0 -5 5 -13 10 -16 6 -3 10 -2 10 4 0 5 -4 13 -10 16 -5
3 -10 2 -10 -4z"/>
<path d="M8845 9720 c3 -5 8 -10 11 -10 2 0 4 5 4 10 0 6 -5 10 -11 10 -5 0
-7 -4 -4 -10z"/>
<path d="M8810 9702 c0 -7 9 -16 21 -20 11 -5 20 -11 20 -15 -2 -20 0 -27 9
-27 20 0 10 39 -12 46 -13 4 -26 12 -30 18 -5 8 -8 7 -8 -2z"/>
<path d="M8781 9628 c-8 -13 -15 -32 -15 -43 -1 -13 -8 -20 -21 -20 -12 0 -25
-11 -33 -27 -16 -34 -65 -72 -114 -87 -33 -11 -76 -55 -70 -73 1 -5 -6 -9 -15
-10 -30 -2 -36 -4 -86 -26 -27 -12 -52 -22 -57 -22 -5 0 -15 -7 -23 -15 -24
-23 -211 -41 -267 -25 -23 7 -32 5 -39 -8 -8 -15 -38 -20 -146 -23 -65 -2 -73
0 -80 22 -4 11 -9 18 -12 15 -4 -3 -11 -2 -18 4 -7 6 -20 4 -37 -4 -14 -8 -31
-10 -38 -6 -7 4 -25 4 -41 0 -15 -5 -30 -6 -33 -2 -7 6 -36 10 -113 16 -29 2
-65 8 -80 13 -106 38 -105 38 -130 7 -17 -22 -23 -25 -23 -12 0 12 -13 21 -42
28 -24 6 -56 15 -73 20 -16 5 -43 8 -60 6 -16 -2 -41 1 -54 6 -14 5 -28 5 -33
0 -5 -5 -27 -6 -50 -2 -22 4 -53 4 -69 0 -18 -5 -29 -4 -32 3 -1 5 -21 12 -43
14 -114 9 -145 10 -149 3 -4 -6 -164 -23 -207 -22 -10 0 -18 -6 -18 -14 0 -8
-8 -14 -18 -14 -18 0 -42 -18 -42 -32 0 -19 63 -40 99 -32 68 14 184 21 191
12 3 -4 41 -2 85 3 44 6 92 8 107 5 15 -3 30 -1 33 4 10 15 35 12 35 -5 0 -10
9 -14 24 -13 19 2 22 5 14 15 -8 10 -6 13 5 13 9 0 20 -7 24 -15 5 -8 23 -19
40 -24 27 -8 30 -7 26 10 -7 25 14 25 22 0 7 -24 34 -35 51 -20 11 9 15 8 20
-4 7 -18 42 -29 50 -15 3 5 12 7 20 4 8 -3 14 0 14 6 0 7 6 3 14 -7 9 -12 26
-19 52 -19 23 -1 45 -8 54 -18 10 -10 25 -14 41 -11 14 3 42 0 63 -5 20 -6 36
-7 36 -2 0 4 11 7 25 6 14 0 25 -7 25 -15 0 -10 8 -12 32 -7 18 3 35 11 38 17
5 6 15 7 33 0 17 -7 28 -7 32 -1 10 15 25 12 19 -4 -4 -11 0 -13 15 -9 11 3
29 2 38 -2 23 -10 38 -10 91 -1 23 4 42 12 42 17 0 5 11 3 25 -3 32 -14 73 5
82 40 4 16 9 20 16 13 7 -7 6 -15 -3 -26 -12 -14 -11 -18 1 -26 22 -14 34 -11
59 16 13 14 27 25 32 25 14 0 9 -22 -9 -36 -14 -11 -8 -10 26 1 24 9 53 13 63
9 29 -9 76 15 87 45 l9 26 7 -33 c5 -21 11 -29 15 -22 5 7 13 9 20 5 9 -5 11
-4 6 3 -5 8 0 12 13 12 10 0 21 -6 24 -12 2 -8 13 1 24 20 19 31 22 32 32 15
9 -16 10 -16 11 7 0 37 11 70 22 70 7 0 8 -15 4 -39 -10 -64 11 -94 35 -48 11
20 11 21 -4 8 -14 -11 -17 -11 -17 0 0 8 5 21 10 29 9 13 11 13 20 0 8 -13 13
-13 30 -2 11 7 26 9 32 6 7 -4 2 9 -11 29 -12 20 -21 41 -19 46 5 14 48 -7 48
-24 0 -8 4 -15 8 -15 15 0 32 24 32 45 0 14 11 27 35 38 30 14 35 22 35 51 0
19 6 36 12 38 7 3 13 13 13 24 0 10 7 19 15 19 10 0 14 -8 12 -25 l-3 -25 28
27 c24 25 26 30 14 52 -14 25 -7 51 10 41 5 -4 9 -1 9 4 0 6 -4 11 -9 11 -5 0
-11 7 -13 15 -2 12 -6 10 -17 -7z m-1456 -398 c3 -5 1 -10 -4 -10 -6 0 -11 5
-11 10 0 6 2 10 4 10 3 0 8 -4 11 -10z"/>
<path d="M3262 9525 c-17 -8 -32 -20 -33 -27 0 -7 -3 -38 -5 -68 -3 -30 -5
-81 -5 -112 0 -32 -5 -58 -10 -58 -5 0 -6 -12 -4 -27 10 -55 11 -153 2 -162
-5 -5 -4 -17 2 -30 9 -17 9 -21 -3 -21 -8 0 -16 -13 -18 -30 -4 -24 -2 -27 9
-19 10 9 13 8 13 -2 0 -8 -8 -19 -19 -26 -23 -15 -35 -53 -15 -53 8 0 14 -4
14 -10 0 -9 -7 -11 -26 -9 -14 1 -32 -36 -23 -48 7 -8 4 -13 -10 -18 -21 -6
-23 -10 -23 -57 -1 -15 -7 -29 -15 -33 -8 -3 -13 -12 -9 -20 3 -8 1 -17 -4
-20 -4 -3 -11 1 -13 7 -3 7 -6 3 -6 -8 -1 -15 -9 -24 -26 -28 -14 -4 -25 -13
-25 -21 0 -8 -11 -26 -25 -41 -13 -14 -22 -31 -18 -37 4 -6 0 -8 -10 -4 -11 4
-17 1 -17 -8 0 -8 -4 -15 -10 -15 -5 0 -10 5 -10 12 0 6 -9 3 -20 -7 -11 -10
-20 -24 -20 -31 0 -7 -10 -16 -22 -20 -13 -4 -29 -14 -35 -23 -12 -14 -12 -14
-6 4 6 16 4 18 -8 9 -8 -7 -32 -14 -55 -16 -23 -3 -56 -12 -74 -21 -23 -12
-37 -14 -50 -7 -23 12 -64 -2 -78 -27 -6 -10 -14 -14 -19 -9 -4 4 2 15 14 23
18 12 20 19 13 33 -8 15 -18 17 -51 13 -30 -4 -40 -3 -35 5 4 7 14 12 22 12 8
0 12 5 9 10 -4 6 -12 10 -18 9 -19 -3 -47 12 -47 25 0 7 -11 23 -24 36 -18 16
-33 21 -53 17 l-28 -5 24 19 c19 16 26 17 32 7 6 -9 9 -8 9 6 0 10 -5 16 -13
13 -18 -7 -37 17 -26 34 14 22 11 26 -23 39 -30 11 -31 13 -13 20 22 9 16 13
-37 24 -16 4 -28 13 -28 21 0 12 7 11 45 -3 33 -12 48 -13 56 -5 12 12 4 33
-12 33 -6 0 -7 -5 -3 -11 4 -7 -1 -10 -11 -7 -23 4 -32 28 -12 28 11 0 15 9
15 29 -1 27 -3 28 -39 24 -24 -4 -39 -2 -39 5 0 14 20 27 42 27 10 0 18 3 18
8 1 31 -2 37 -14 37 -24 0 -27 16 -11 53 13 32 13 36 -5 52 -10 9 -18 29 -18
44 1 14 0 33 -3 41 -3 10 3 15 16 15 13 0 19 -6 17 -15 -6 -27 15 4 22 33 5
20 3 27 -8 27 -21 0 -30 32 -12 42 13 8 13 11 -2 26 -16 16 -18 16 -30 -8 -9
-16 -10 -26 -3 -28 18 -6 12 -41 -9 -52 -16 -9 -20 -21 -20 -69 0 -32 -3 -61
-7 -65 -4 -3 -8 -14 -9 -24 -2 -9 -8 -35 -15 -58 -10 -33 -10 -46 2 -72 8 -18
17 -32 21 -32 4 0 7 -21 7 -47 1 -89 6 -123 19 -123 6 0 12 -5 12 -11 0 -6 11
-25 25 -41 14 -17 24 -36 22 -42 -2 -6 7 -19 20 -29 13 -10 23 -24 23 -30 1
-12 88 -109 122 -135 13 -11 20 -11 38 0 17 11 22 11 30 -2 7 -11 29 -15 80
-16 38 -1 70 3 70 7 0 12 53 -1 62 -15 14 -21 57 -16 77 10 10 13 28 24 40 24
11 0 26 9 33 20 7 11 20 20 29 20 9 0 20 7 23 15 3 9 11 15 18 14 17 -3 48 11
48 21 0 4 34 42 75 85 78 82 85 101 46 133 -15 12 -15 13 1 8 9 -2 23 3 32 13
26 29 76 135 66 141 -6 4 -1 23 10 45 14 27 16 41 9 46 -8 5 -8 12 0 28 13 23
18 88 8 98 -4 3 0 15 9 24 9 10 19 38 21 61 8 78 8 338 0 338 -5 0 -6 8 -3 18
10 31 -6 42 -42 27z"/>
<path d="M2941 9504 c0 -11 3 -14 6 -6 3 7 2 16 -1 19 -3 4 -6 -2 -5 -13z"/>
<path d="M2330 9276 c0 -24 17 -28 23 -6 3 13 0 20 -9 20 -8 0 -14 -6 -14 -14z"/>
<path d="M7745 9150 c3 -5 8 -10 11 -10 2 0 4 5 4 10 0 6 -5 10 -11 10 -5 0
-7 -4 -4 -10z"/>
<path d="M1437 9093 c-4 -3 -7 -11 -7 -17 0 -6 5 -5 12 2 6 6 9 14 7 17 -3 3
-9 2 -12 -2z"/>
<path d="M4236 8784 c-9 -24 -7 -28 9 -14 17 14 20 30 6 30 -5 0 -12 -7 -15
-16z"/>
<path d="M10256 8570 c-11 -49 -10 -55 9 -88 29 -50 247 -235 257 -220 6 10 8
10 8 1 0 -7 12 -19 28 -27 15 -8 38 -25 52 -37 14 -13 38 -30 53 -36 15 -7 27
-19 27 -27 0 -8 14 -19 32 -25 17 -6 67 -34 110 -62 43 -28 88 -52 100 -54 12
-3 31 -13 42 -24 12 -10 36 -26 54 -35 17 -9 32 -23 32 -31 0 -8 12 -17 28
-21 52 -12 82 -29 80 -45 -2 -10 17 -31 45 -53 43 -32 65 -38 35 -8 -13 13 0
16 18 4 6 -4 21 -28 33 -54 13 -27 26 -48 29 -48 4 0 20 -12 37 -27 19 -18 27
-22 22 -10 -8 20 3 22 28 3 21 -15 33 -61 13 -51 -7 4 -4 -2 7 -12 11 -10 28
-31 38 -46 10 -15 22 -25 27 -22 11 7 40 -34 40 -57 0 -10 5 -18 10 -18 6 0
16 -11 22 -25 6 -14 16 -24 22 -23 19 2 46 -14 46 -28 0 -8 11 -19 24 -24 17
-6 23 -14 20 -28 -5 -19 11 -38 49 -57 12 -6 23 -19 25 -30 3 -20 3 -20 -13
-1 -8 11 -15 14 -15 8 0 -7 10 -20 22 -30 45 -36 57 -52 52 -66 -3 -8 -1 -17
5 -21 6 -3 11 -13 11 -21 0 -8 20 -39 45 -70 25 -30 45 -61 45 -68 0 -7 9 -25
20 -39 11 -14 20 -32 20 -41 0 -10 6 -13 15 -10 9 4 16 0 17 -7 0 -8 2 -19 2
-24 1 -6 12 -24 24 -40 15 -19 19 -31 11 -35 -15 -10 28 -89 67 -122 12 -9 24
-34 27 -55 4 -21 18 -54 32 -73 28 -38 33 -59 10 -40 -22 18 -18 -3 5 -33 12
-15 21 -44 23 -74 2 -26 9 -58 15 -70 8 -14 9 -24 2 -28 -5 -3 -10 -11 -10
-16 0 -6 4 -8 9 -4 5 3 17 -21 25 -52 9 -32 23 -72 31 -88 10 -19 15 -53 13
-90 -1 -33 3 -69 9 -80 33 -64 44 -80 53 -77 7 1 10 -7 8 -18 -2 -12 -7 -20
-13 -20 -5 1 -9 7 -7 15 1 7 -4 15 -12 18 -10 4 -17 -7 -25 -39 -10 -38 -9
-51 7 -87 28 -64 35 -97 19 -97 -7 0 -18 17 -23 38 -8 30 -10 20 -8 -58 2 -61
-2 -113 -11 -144 -8 -27 -15 -72 -15 -98 0 -33 -4 -47 -11 -43 -6 4 -1 -11 10
-34 29 -55 27 -61 -11 -50 -41 11 -38 12 -38 -6 0 -8 7 -15 15 -15 10 0 7 -7
-9 -25 -13 -14 -33 -53 -46 -88 -12 -34 -27 -68 -33 -76 -6 -7 -12 -18 -13
-25 -6 -29 -31 -82 -46 -97 -11 -12 -15 -29 -13 -55 3 -26 -2 -45 -16 -62 -10
-14 -19 -33 -19 -43 0 -10 -9 -24 -20 -31 -24 -15 -26 -28 -5 -28 18 0 18 -1
5 -36 -6 -15 -13 -24 -16 -21 -10 10 -34 -20 -34 -42 0 -11 -4 -22 -9 -26 -5
-3 -7 -20 -4 -38 4 -27 0 -39 -23 -63 -61 -64 -94 -106 -88 -116 11 -17 -18
-97 -40 -112 -12 -8 -28 -33 -35 -56 -13 -43 -35 -60 -53 -42 -9 9 -7 17 7 32
10 11 16 22 14 24 -2 2 -28 -24 -58 -56 -32 -35 -50 -62 -44 -66 22 -15 -18
-97 -43 -88 -7 3 -18 -1 -24 -9 -8 -10 -8 -14 2 -17 10 -4 8 -11 -5 -31 -28
-43 -20 -39 35 16 29 29 53 59 53 69 2 27 34 68 54 68 27 0 68 45 124 133 33
51 53 74 63 70 8 -3 14 -1 14 5 0 6 -5 12 -12 14 -9 3 -9 6 0 12 7 4 12 2 12
-4 0 -6 5 -8 10 -5 12 7 13 -15 2 -31 -4 -6 -17 -16 -28 -22 -25 -13 -71 -97
-48 -88 21 8 18 -31 -3 -43 -10 -5 -21 -8 -25 -8 -14 4 -48 -52 -42 -68 5 -11
0 -18 -14 -22 -23 -6 -54 -47 -59 -78 -2 -10 -9 -22 -15 -26 -6 -4 -8 -14 -5
-22 4 -11 -1 -17 -16 -19 -15 -2 -25 -14 -32 -35 -6 -18 -15 -36 -19 -40 -5
-4 -6 0 -3 10 5 12 3 17 -4 15 -7 -2 -17 -19 -23 -38 -6 -20 -18 -35 -26 -35
-15 0 -30 -14 -115 -110 -22 -25 -46 -45 -52 -45 -7 0 -12 -10 -10 -22 1 -16
-3 -22 -13 -21 -9 2 -20 -7 -26 -20 -5 -12 -16 -21 -23 -19 -17 4 -51 -26 -51
-45 0 -7 -4 -13 -9 -13 -5 0 -12 -11 -15 -24 -3 -13 -14 -26 -25 -29 -11 -2
-34 -24 -52 -48 -17 -24 -29 -36 -26 -26 10 28 -9 19 -37 -18 -15 -19 -38 -38
-51 -41 -14 -3 -25 -12 -25 -20 0 -8 -10 -14 -22 -14 -12 0 -18 -3 -15 -6 4
-4 -11 -28 -33 -54 -22 -26 -40 -54 -40 -62 0 -8 -18 -23 -40 -34 -27 -13 -41
-27 -45 -46 -4 -15 -11 -30 -16 -33 -13 -8 -11 -55 2 -55 5 0 7 -4 4 -10 -3
-5 -13 -10 -21 -10 -10 0 -13 7 -8 24 5 21 3 24 -15 19 -28 -7 -61 -50 -61
-79 0 -38 -19 -79 -31 -67 -8 8 -7 17 1 33 6 12 9 24 7 27 -3 2 -8 -5 -12 -16
-3 -12 -11 -21 -16 -21 -5 0 -9 -7 -9 -16 0 -21 -49 -104 -62 -104 -5 0 -20
-25 -33 -55 -20 -45 -23 -59 -13 -85 13 -39 9 -43 -24 -26 -26 14 -38 12 -38
-6 0 -4 8 -8 18 -8 16 -1 16 -1 -1 -11 -12 -7 -16 -17 -11 -31 4 -14 2 -18 -5
-14 -6 4 -11 1 -11 -7 0 -8 -7 -18 -16 -21 -16 -6 -16 -40 1 -93 6 -17 3 -22
-15 -25 -21 -3 -21 -4 9 -42 29 -36 41 -76 24 -76 -5 0 -21 20 -37 45 l-28 46
-19 -22 c-22 -25 -22 -28 -9 -49 8 -12 10 -10 10 10 1 24 1 24 15 6 20 -27 20
-70 0 -62 -10 3 -15 -1 -16 -12 0 -9 -1 -35 -3 -58 l-2 -41 38 10 c47 12 53 7
40 -30 -6 -20 -15 -27 -30 -26 -25 3 -36 -21 -16 -37 8 -7 14 -18 14 -25 0 -6
11 -17 25 -23 14 -6 25 -18 25 -26 0 -8 10 -37 23 -65 20 -46 25 -51 55 -51
22 0 40 -8 56 -25 13 -14 33 -25 44 -25 31 0 52 -10 52 -25 0 -21 -19 -28 -36
-14 -8 6 -17 9 -20 6 -5 -4 60 -43 109 -65 4 -2 7 3 7 12 0 22 65 22 74 1 3
-8 10 -15 16 -15 6 0 9 4 5 10 -3 5 9 14 27 19 l33 9 -30 1 c-17 1 -41 8 -54
17 -18 13 -25 14 -31 4 -10 -16 -60 -5 -60 14 0 17 -29 42 -60 51 -32 10 -112
74 -105 85 3 5 0 10 -6 12 -13 4 -39 80 -39 111 0 17 -13 52 -43 115 -8 17 -8
35 1 68 7 24 12 61 13 82 1 53 14 87 30 84 10 -2 9 1 -2 11 -15 11 -15 16 -3
37 7 14 13 42 12 63 -1 22 4 42 12 47 7 4 9 13 6 19 -4 6 0 14 8 17 9 3 16 17
16 29 0 13 10 36 23 52 13 15 38 49 55 75 18 25 61 75 96 111 43 43 61 68 56
77 -10 16 9 50 27 50 11 0 50 50 77 99 5 9 26 28 48 44 21 15 36 32 33 37 -4
6 2 13 12 17 10 3 26 13 35 21 10 9 29 13 48 10 23 -3 30 -1 26 9 -3 8 2 13
13 13 12 0 29 17 46 46 14 25 36 50 49 55 12 6 30 23 40 38 10 15 46 49 79 77
33 27 81 71 106 98 25 27 61 63 80 80 95 86 156 159 162 192 3 19 2 34 -3 34
-4 0 -8 7 -8 16 0 10 5 14 15 10 22 -8 62 35 135 144 36 54 57 95 54 104 -3 9
-1 16 5 16 6 0 11 7 11 15 0 8 5 15 10 15 6 0 10 7 10 16 0 9 9 27 20 42 15
19 17 27 9 33 -10 6 -9 13 2 31 26 39 59 132 62 168 1 19 10 41 19 48 9 6 24
36 33 65 10 28 28 78 42 110 13 32 22 63 21 70 -2 7 7 26 19 42 11 17 26 50
33 75 7 25 21 63 31 84 10 22 19 46 19 54 0 9 6 12 15 8 13 -4 14 -2 5 14 -8
15 -7 29 4 53 8 17 17 57 21 87 3 30 7 66 9 79 1 14 8 27 14 29 7 2 12 24 12
52 0 26 6 63 14 81 14 34 33 140 42 234 2 28 9 64 15 82 6 18 9 40 7 50 -1 10
1 24 6 32 6 10 3 19 -11 31 -23 18 -31 54 -18 83 4 10 3 36 -4 56 -6 21 -11
55 -11 75 0 20 -4 36 -9 36 -4 0 -11 30 -14 66 -3 37 -10 69 -16 73 -15 9 -17
122 -3 148 16 28 15 33 -3 33 -18 0 -20 17 -2 23 9 3 5 16 -12 48 -13 24 -29
51 -36 59 -7 8 -15 31 -19 51 -3 19 -20 57 -36 83 -17 25 -30 54 -30 64 0 10
-11 34 -25 54 -14 20 -25 44 -25 53 0 21 -48 115 -59 115 -5 0 -12 11 -15 25
-3 13 -20 40 -37 60 -17 19 -28 35 -25 35 11 0 -88 176 -138 247 -17 24 -76
57 -76 42 0 -5 -6 -9 -14 -9 -17 0 -29 27 -14 32 21 7 -66 127 -193 263 -25
28 -52 49 -58 47 -7 -2 -15 5 -18 17 -3 12 -12 21 -19 21 -8 0 -14 6 -14 14 0
7 -8 16 -19 19 -10 2 -25 17 -32 33 -9 18 -23 29 -37 30 -12 1 -44 22 -71 47
-60 57 -160 121 -183 120 -11 -1 -18 5 -18 17 0 22 -51 67 -86 76 -13 3 -24
10 -24 14 0 13 -169 132 -179 125 -6 -3 -15 3 -20 14 -6 10 -22 22 -36 25 -42
11 -279 172 -324 221 -23 25 -46 45 -52 45 -6 0 -30 21 -54 48 -42 46 -43 47
-49 22z m1821 -3702 c-3 -8 -6 -5 -6 6 -1 11 2 17 5 13 3 -3 4 -12 1 -19z"/>
<path d="M2775 8470 c3 -5 8 -10 11 -10 2 0 4 5 4 10 0 6 -5 10 -11 10 -5 0
-7 -4 -4 -10z"/>
<path d="M8871 8379 c-11 -32 -9 -54 15 -127 8 -23 14 -70 14 -103 0 -33 4
-58 8 -55 10 6 10 -134 0 -149 -8 -13 10 -184 22 -210 6 -11 9 -49 7 -84 -2
-38 1 -68 8 -75 20 -20 25 -56 8 -56 -12 0 -14 -8 -9 -37 3 -21 6 -45 7 -53 0
-8 4 -4 9 10 7 23 8 23 15 6 5 -11 2 -28 -9 -47 -20 -33 -12 -114 10 -105 18
7 27 -24 10 -38 -7 -6 -16 -30 -20 -53 -5 -36 -3 -43 10 -43 12 0 15 -6 10
-22 -13 -43 -11 -102 4 -93 6 4 13 -7 16 -25 4 -17 11 -33 15 -36 5 -3 5 -12
0 -22 -10 -19 3 -62 19 -62 5 0 10 -7 10 -15 0 -8 -4 -15 -10 -15 -5 0 -10 5
-10 12 0 6 -3 8 -7 5 -4 -4 3 -20 14 -36 15 -20 21 -39 18 -67 -2 -25 4 -50
15 -69 26 -43 60 -137 54 -147 -3 -5 2 -8 12 -6 14 2 18 -3 17 -19 -1 -11 4
-26 12 -33 9 -8 13 -21 9 -35 -4 -16 1 -30 15 -44 12 -12 21 -25 21 -30 0 -5
8 -11 18 -14 12 -2 22 -17 25 -36 4 -17 18 -42 32 -55 29 -27 32 -38 8 -29
-13 4 -11 -2 8 -23 25 -28 55 -94 42 -94 -4 0 2 -6 12 -14 11 -8 16 -20 12
-29 -4 -10 -1 -14 6 -12 7 2 28 -16 47 -40 19 -25 40 -45 46 -45 11 0 39 -56
36 -72 -1 -4 12 -15 28 -23 17 -9 30 -19 30 -23 0 -5 16 -8 35 -8 19 1 34 -3
32 -9 -1 -5 -12 -9 -24 -7 -27 3 -27 2 -9 -41 10 -25 23 -36 52 -45 51 -16 68
-27 60 -41 -5 -7 -15 -5 -34 7 l-27 17 20 -27 c11 -15 25 -28 30 -28 15 -1 56
-40 89 -83 15 -21 39 -43 52 -49 13 -6 21 -15 17 -21 -4 -6 12 -7 43 -2 l49 7
-28 -30 c-18 -19 -25 -32 -18 -36 6 -4 11 -2 11 3 0 19 17 12 23 -9 4 -14 10
-18 23 -13 12 4 15 3 10 -5 -4 -7 -1 -12 7 -12 10 0 13 -7 10 -20 -4 -15 2
-21 23 -27 16 -4 35 -6 43 -4 7 1 20 0 28 -3 12 -5 13 -9 3 -21 -18 -22 -9
-26 32 -13 39 12 93 4 83 -12 -3 -6 -21 -10 -38 -11 -18 0 -39 -3 -47 -7 -29
-13 -14 -47 25 -54 13 -3 22 -1 19 3 -3 5 -12 9 -20 9 -8 0 -14 5 -14 10 0 12
40 13 59 1 7 -5 10 -14 6 -21 -4 -7 7 -24 28 -43 l34 -32 22 32 c26 40 34 41
50 7 10 -22 9 -28 -3 -38 -28 -20 20 -55 69 -50 25 3 36 -4 70 -44 30 -36 45
-47 62 -44 33 6 73 -6 73 -23 0 -8 17 -19 39 -25 41 -11 61 -37 36 -46 -9 -4
-23 0 -33 7 -9 7 1 -7 23 -31 22 -25 41 -47 43 -50 2 -2 6 0 10 6 16 25 72 -5
72 -38 0 -14 5 -18 16 -14 8 3 25 1 37 -6 17 -9 15 -3 -10 26 -18 20 -33 41
-33 47 0 5 -6 9 -12 8 -36 -4 -73 23 -64 46 6 17 -27 50 -108 105 -36 25 -66
51 -66 58 0 6 -5 12 -11 12 -6 0 -39 29 -74 65 -36 36 -68 65 -72 66 -51 5
-115 37 -144 72 -17 21 -37 37 -44 37 -24 0 -85 60 -78 77 5 13 3 13 -14 5
-17 -9 -24 -7 -41 13 -12 14 -31 25 -41 25 -11 0 -26 8 -33 18 -7 10 -21 21
-31 25 -10 4 -16 11 -12 17 3 5 -5 12 -18 15 -13 4 -30 16 -38 27 -8 12 -34
44 -59 73 -25 28 -53 62 -62 75 -43 61 -68 102 -68 111 0 5 -12 8 -27 7 -22
-2 -30 3 -43 28 -8 17 -34 50 -57 73 -24 23 -50 58 -59 77 -9 19 -23 34 -30
34 -8 0 -14 7 -14 15 0 8 -5 24 -11 34 -9 13 -9 26 -1 51 10 28 10 31 -4 26
-11 -4 -14 -1 -10 12 5 13 -6 30 -34 56 -22 20 -40 45 -40 54 0 10 -13 33 -30
52 -16 19 -29 41 -30 48 0 7 -8 25 -17 39 -10 15 -18 31 -18 37 -1 23 -27 86
-36 86 -5 0 -9 10 -9 22 0 12 -8 30 -17 40 -9 10 -18 34 -20 53 -2 18 -10 53
-18 76 -8 23 -15 54 -15 70 0 30 -43 85 -59 75 -5 -4 -13 -1 -17 5 -3 6 -1 15
6 19 10 6 10 34 -1 140 -7 73 -18 138 -25 144 -7 8 -10 38 -9 78 2 47 -1 68
-10 71 -8 4 -14 37 -17 101 -3 58 -10 102 -18 112 -11 12 -11 17 -2 23 13 8
14 12 13 169 0 70 -4 102 -12 102 -8 0 -8 4 1 15 6 8 8 20 4 27 -4 7 -9 44
-10 82 -4 113 -34 268 -55 289 -11 10 -19 24 -19 31 0 7 -11 23 -24 35 l-24
22 -11 -32z"/>
<path d="M3840 7709 c0 -5 5 -7 10 -4 6 3 10 8 10 11 0 2 -4 4 -10 4 -5 0 -10
-5 -10 -11z"/>
<path d="M2240 7486 c0 -2 9 -6 20 -9 11 -3 18 -1 14 4 -5 9 -34 13 -34 5z"/>
<path d="M3295 7390 c-3 -5 -2 -10 4 -10 5 0 13 5 16 10 3 6 2 10 -4 10 -5 0
-13 -4 -16 -10z"/>
<path d="M2628 7353 c7 -3 16 -2 19 1 4 3 -2 6 -13 5 -11 0 -14 -3 -6 -6z"/>
<path d="M2784 7338 c-3 -5 -3 -17 1 -27 4 -13 0 -21 -12 -24 -12 -3 -13 -5
-3 -6 8 0 22 4 30 9 13 9 13 11 0 20 -12 8 -10 10 10 10 44 1 56 17 16 22 -21
2 -39 0 -42 -4z"/>
<path d="M7960 7326 c0 -9 -12 -14 -37 -14 -102 -2 -123 -4 -123 -12 0 -10
-28 -3 -49 14 -19 15 -43 16 -59 3 -21 -17 -114 -49 -141 -48 -12 0 -28 -2
-35 -6 -6 -4 -14 -8 -18 -9 -5 -1 -9 -3 -10 -4 -2 -1 -30 -4 -62 -6 -78 -4
-86 -8 -86 -41 -1 -24 -2 -25 -11 -10 -8 14 -24 17 -79 17 -42 0 -70 -4 -70
-10 0 -7 -16 -9 -40 -6 -22 3 -40 1 -40 -5 0 -5 -15 -9 -33 -9 -18 0 -42 -6
-52 -14 -14 -10 -25 -11 -38 -5 -10 6 -25 8 -35 5 -9 -3 -37 -6 -62 -7 -25 -1
-49 -5 -55 -8 -17 -10 -118 -30 -152 -30 -18 -1 -33 -6 -33 -12 0 -5 -4 -8 -9
-5 -4 3 -15 0 -24 -7 -14 -11 -14 -15 9 -41 20 -23 31 -27 53 -23 25 5 29 3
34 -22 6 -31 36 -42 105 -41 17 0 32 -4 32 -10 0 -5 22 -1 50 10 28 11 50 16
50 12 0 -4 5 0 11 8 8 11 12 12 16 3 7 -19 23 -16 23 5 1 16 1 16 14 0 16 -22
40 -24 32 -3 -3 8 -1 15 4 15 6 0 10 -6 10 -14 0 -8 7 -16 15 -20 8 -3 15 0
15 7 0 8 3 7 9 -2 8 -12 12 -12 25 -2 8 7 20 10 25 7 5 -4 12 -2 16 4 4 7 14
6 28 -2 12 -7 27 -11 32 -9 6 2 17 5 25 6 8 2 16 4 18 5 8 7 28 4 35 -5 5 -6
12 -5 20 5 15 18 62 46 53 31 -11 -17 66 -6 79 12 8 11 15 13 22 6 13 -13 29
7 36 41 l4 25 2 -27 c1 -34 21 -47 28 -19 3 12 10 21 15 21 6 0 8 -7 5 -15 -9
-22 54 -8 77 19 l19 21 -7 -27 c-4 -18 -2 -28 4 -28 6 0 9 4 6 9 -3 5 1 11 9
15 8 3 15 1 15 -4 0 -6 5 -10 10 -10 6 0 10 7 10 16 0 8 5 12 10 9 6 -3 10 2
10 12 0 10 5 25 10 33 7 10 9 -1 4 -37 -5 -37 -3 -53 5 -53 7 0 9 9 5 25 -4
15 -2 25 5 25 6 0 11 -4 11 -10 0 -5 6 -10 13 -10 9 0 12 10 9 30 -2 17 0 30
6 30 6 0 13 -12 15 -27 4 -27 4 -27 12 -5 8 25 17 27 47 11 15 -8 19 -8 14 0
-4 6 -2 19 3 28 8 14 10 15 11 3 0 -13 1 -13 10 0 8 13 10 12 10 -4 0 -14 6
-17 25 -14 14 3 25 1 25 -4 0 -5 5 -6 10 -3 6 4 18 1 27 -7 14 -11 16 -11 8 1
-5 10 -4 12 3 7 7 -4 12 -13 12 -21 0 -8 9 -12 25 -10 17 1 25 -3 25 -13 0
-11 3 -12 14 -3 12 10 20 9 40 -4 15 -10 33 -14 46 -10 13 4 20 2 20 -6 0 -7
3 -10 6 -6 4 3 13 0 20 -8 8 -8 21 -12 29 -9 8 4 15 1 15 -6 0 -7 8 -10 20 -7
11 3 20 1 20 -4 0 -5 -5 -9 -10 -9 -6 0 -6 -6 2 -14 10 -11 18 -10 48 6 l35
20 -27 -27 c-16 -14 -28 -31 -28 -37 0 -7 7 -3 15 8 9 10 14 13 13 5 -4 -16
32 -24 48 -10 8 6 14 4 18 -7 4 -11 10 -13 19 -6 14 11 47 12 47 1 0 -4 -7
-10 -16 -13 -8 -3 -12 -11 -9 -16 4 -7 11 -8 18 -2 17 14 56 9 67 -8 7 -12 12
-12 22 -2 19 19 51 16 43 -5 -5 -14 -3 -15 6 -6 6 6 18 9 26 6 13 -5 13 -2 -1
19 -12 18 -23 24 -36 21 -16 -4 -20 0 -20 20 0 20 -9 30 -43 47 -24 12 -52 36
-62 52 -30 51 -52 68 -90 68 -23 0 -38 6 -42 16 -3 8 -15 20 -27 25 -11 5 -34
18 -51 28 -16 11 -40 20 -52 20 -12 1 -28 7 -35 14 -7 6 -46 29 -86 49 -40 21
-82 44 -94 53 -28 19 -38 19 -38 1z m-10 -47 c0 -6 -6 -17 -14 -25 -8 -7 -16
-19 -19 -26 -2 -7 -8 -10 -12 -6 -5 5 -1 16 8 26 10 10 17 24 17 30 0 7 5 12
10 12 6 0 10 -5 10 -11z m58 -41 c-3 -7 -13 -15 -24 -17 -16 -3 -17 -1 -5 13
16 19 34 21 29 4z m-138 -8 c8 -5 11 -10 5 -10 -5 0 -17 5 -25 10 -8 5 -10 10
-5 10 6 0 17 -5 25 -10z m-160 -52 c0 -8 -58 -36 -80 -39 -40 -4 -90 2 -90 12
0 6 6 9 14 6 8 -3 17 -1 20 6 3 9 7 8 15 -3 8 -12 13 -11 34 8 13 12 31 22 40
22 9 0 19 5 23 11 6 11 23 -6 24 -23z m438 13 c-7 -11 -16 -17 -21 -14 -4 3 0
11 10 19 24 18 25 17 11 -5z m-965 -84 c-3 -5 -10 -4 -15 1 -6 6 -7 16 -3 22
6 9 9 9 16 -1 4 -7 5 -17 2 -22z m142 14 c-3 -6 -11 -11 -16 -11 -5 0 -4 6 3
14 14 16 24 13 13 -3z m105 -15 c-6 -6 -15 -4 -24 4 -22 17 -9 32 14 18 12 -8
16 -16 10 -22z m80 24 c0 -5 -4 -10 -10 -10 -5 0 -10 5 -10 10 0 6 5 10 10 10
6 0 10 -4 10 -10z m795 0 c-3 -5 -10 -10 -16 -10 -5 0 -9 5 -9 10 0 6 7 10 16
10 8 0 12 -4 9 -10z m-68 -6 c-3 -3 -12 -4 -19 -1 -8 3 -5 6 6 6 11 1 17 -2
13 -5z m-1114 -18 c9 -7 16 -24 16 -37 -1 -17 -3 -19 -6 -6 -3 10 -14 17 -28
17 -18 0 -23 5 -22 20 1 23 15 25 40 6z m127 4 c0 -5 -4 -10 -10 -10 -5 0 -10
5 -10 10 0 6 5 10 10 10 6 0 10 -4 10 -10z m-206 -24 c-3 -9 -10 -13 -16 -10
-5 3 -4 12 3 20 15 18 22 13 13 -10z m-44 -6 c0 -5 -10 -10 -23 -10 -13 0 -28
-5 -35 -12 -9 -9 -12 -9 -12 0 0 6 15 16 33 21 17 5 33 10 35 10 1 1 2 -3 2
-9z m1370 -4 c0 -8 -7 -16 -15 -20 -15 -5 -21 14 -8 27 11 12 23 8 23 -7z m20
-111 c-7 -9 -15 -13 -18 -10 -3 2 1 11 8 20 7 9 15 13 18 10 3 -2 -1 -11 -8
-20z m120 11 c6 -8 18 -12 26 -9 8 3 14 -1 14 -10 0 -20 -16 -31 -25 -17 -4 6
-11 7 -17 4 -7 -5 -9 -1 -5 9 4 11 1 17 -8 17 -8 0 -15 5 -15 10 0 15 16 12
30 -4z"/>
<path d="M2707 7323 c-12 -12 -7 -22 8 -17 8 4 15 10 15 15 0 11 -14 12 -23 2z"/>
<path d="M1875 7180 c-3 -4 -17 -11 -32 -15 -16 -3 -39 -17 -53 -30 -14 -13
-62 -43 -108 -68 -45 -24 -79 -47 -75 -50 3 -4 -1 -7 -10 -7 -10 0 -17 -3 -17
-7 0 -10 -57 -43 -74 -43 -6 0 -18 -9 -26 -20 -9 -12 -21 -18 -31 -15 -10 3
-26 -2 -36 -13 -10 -10 -40 -34 -68 -52 -27 -19 -68 -51 -90 -72 -68 -64 -112
-98 -128 -98 -8 0 -27 -21 -42 -46 -21 -35 -29 -43 -40 -34 -10 8 -22 2 -53
-30 -22 -22 -37 -40 -33 -40 4 0 13 6 20 13 10 10 12 8 9 -8 -2 -13 -17 -24
-43 -33 -43 -14 -135 -100 -96 -89 19 5 20 4 6 -23 -9 -17 -22 -27 -32 -26
-24 4 -85 -57 -77 -78 4 -11 -3 -21 -25 -33 -17 -10 -31 -24 -31 -32 0 -8 -7
-23 -17 -33 -9 -10 -12 -18 -6 -18 6 0 8 -11 5 -25 -2 -14 -9 -25 -14 -25 -6
0 -8 -13 -4 -30 3 -17 2 -29 -2 -26 -19 11 -34 -14 -34 -58 0 -25 -5 -49 -11
-53 -6 -4 -8 0 -4 10 3 10 2 17 -4 17 -6 0 -10 -19 -9 -42 3 -66 1 -80 -10
-73 -5 3 -10 -3 -10 -14 0 -11 -4 -23 -10 -26 -5 -3 -10 -36 -11 -73 0 -37 -4
-91 -8 -119 -4 -29 -4 -53 1 -53 11 0 10 -37 -1 -44 -5 -4 -4 -19 2 -38 9 -24
9 -32 0 -35 -16 -6 -17 -69 -2 -78 6 -4 8 -12 6 -19 -3 -6 1 -20 9 -31 8 -10
14 -37 14 -60 0 -22 9 -57 20 -78 24 -44 25 -54 5 -37 -21 17 -19 3 4 -29 18
-25 38 -95 33 -115 -2 -4 5 -14 14 -21 11 -7 15 -20 12 -33 -4 -13 -2 -19 6
-16 6 2 31 -21 56 -51 25 -30 51 -55 58 -55 7 0 25 -22 42 -48 33 -55 93 -88
140 -78 31 6 49 -9 32 -26 -6 -6 -12 -6 -16 1 -4 5 -13 8 -21 5 -11 -5 -9 -13
11 -44 20 -30 33 -39 64 -44 63 -10 90 -23 84 -41 -4 -10 -10 -12 -18 -6 -6 4
-22 12 -36 15 -24 7 -24 6 3 -9 15 -9 27 -20 27 -25 0 -6 9 -10 21 -10 22 0
84 -42 112 -78 11 -12 36 -32 58 -42 21 -11 39 -24 39 -28 0 -4 21 -6 46 -3
44 3 45 2 35 -17 -6 -12 -18 -25 -27 -30 -15 -8 -15 -10 0 -15 9 -4 16 -2 16
3 0 19 18 10 23 -11 4 -15 11 -20 23 -15 12 4 15 2 10 -9 -3 -9 0 -15 9 -15 8
0 15 -9 15 -20 0 -22 28 -40 62 -40 36 0 54 -15 40 -33 -17 -20 -7 -25 42 -20
36 4 47 1 72 -21 23 -22 25 -26 9 -22 -11 2 -41 7 -66 11 -43 5 -46 4 -44 -17
1 -15 14 -29 36 -41 l34 -19 -24 21 -23 21 24 0 c36 0 65 -24 50 -42 -9 -11
-5 -21 18 -47 17 -18 30 -38 30 -46 0 -8 12 -1 29 16 37 37 47 37 55 -2 9 -45
8 -47 -16 -51 -21 -3 -21 -3 6 -33 15 -16 39 -34 53 -40 17 -7 32 -28 49 -69
13 -33 24 -68 24 -78 0 -11 4 -17 9 -13 17 10 82 -55 76 -75 -3 -11 4 -30 20
-48 28 -33 33 -72 10 -72 -9 0 -20 10 -26 23 -9 20 -9 20 -4 -6 3 -15 8 -47
12 -72 3 -24 9 -43 12 -40 13 8 31 -12 40 -43 6 -19 6 -34 0 -37 -5 -4 -9 -13
-9 -21 0 -8 5 -12 10 -9 6 4 13 -7 16 -24 10 -51 19 -35 18 33 0 47 -5 69 -18
82 -15 15 -17 28 -11 82 6 59 4 70 -28 145 -43 101 -51 119 -52 132 0 6 -8 21
-18 35 -9 13 -17 30 -17 36 0 38 -85 184 -107 184 -4 0 -14 9 -20 19 -7 11
-24 26 -39 33 -15 7 -37 32 -49 56 -12 23 -35 52 -51 65 -42 32 -89 89 -88
104 1 9 -5 12 -15 8 -11 -3 -25 3 -36 15 -11 12 -41 33 -67 47 -26 14 -48 29
-48 33 0 4 -9 10 -21 13 -12 3 -18 10 -14 16 3 6 -6 16 -22 23 -15 7 -46 29
-68 49 -22 20 -69 61 -105 90 -71 58 -150 138 -150 152 0 5 -12 8 -27 6 -34
-2 -63 9 -63 25 0 13 -103 106 -117 106 -4 0 -21 21 -38 45 -16 25 -36 45 -42
45 -7 0 -13 6 -13 13 0 6 -7 24 -14 39 -10 20 -12 37 -6 58 7 24 6 30 -7 30
-12 0 -13 3 -4 14 10 12 5 25 -24 66 -20 29 -34 58 -31 66 3 7 -3 38 -14 69
-11 31 -17 62 -14 69 3 8 1 31 -5 52 -6 20 -7 42 -3 48 4 6 7 61 8 121 1 108
5 131 45 286 21 77 18 123 -7 133 -7 3 -11 12 -8 20 3 8 11 13 17 10 7 -2 32
31 57 77 25 45 64 107 87 138 23 30 39 60 36 64 -3 5 21 34 53 65 32 31 59 61
59 68 0 6 36 43 80 81 44 38 84 79 90 91 5 12 14 21 20 20 18 -3 60 14 82 35
12 11 31 25 42 31 109 61 151 88 151 96 0 6 7 10 16 10 9 0 28 12 43 26 32 32
234 166 296 196 29 14 45 29 45 40 0 10 6 18 14 18 8 0 28 12 46 26 23 20 28
30 20 39 -13 15 -58 26 -65 15z"/>
<path d="M4082 7069 c-23 -4 -46 -11 -51 -14 -5 -3 -11 -1 -13 5 -4 13 -108
-5 -161 -28 -28 -12 -40 -24 -44 -44 -4 -18 -12 -28 -23 -28 -20 0 -34 -25
-24 -43 5 -8 2 -7 -7 1 -23 21 -39 14 -39 -18 0 -16 -4 -30 -10 -30 -5 0 -10
10 -10 22 0 12 -3 18 -7 14 -5 -4 -8 -12 -8 -18 0 -6 -9 -16 -20 -22 -30 -17
-36 -28 -31 -58 5 -26 4 -27 -16 -15 -16 9 -22 9 -25 0 -3 -7 -11 -13 -19 -13
-17 0 -17 -5 -2 -33 10 -20 10 -21 -5 -8 -23 19 -21 6 5 -29 12 -16 19 -32 16
-35 -3 -4 -16 9 -29 27 -31 45 -59 63 -59 38 0 -5 6 -10 14 -10 8 0 17 -7 20
-16 9 -24 7 -28 -8 -15 -10 9 -17 7 -27 -6 -11 -12 -11 -17 -2 -20 7 -3 23
-13 35 -23 21 -18 22 -19 4 -20 -11 0 -28 7 -38 17 -17 15 -18 15 -18 -3 0
-11 5 -25 10 -30 7 -7 4 -16 -9 -28 -19 -17 -19 -20 -4 -42 10 -16 12 -24 3
-24 -7 0 -9 -8 -5 -22 6 -17 4 -20 -10 -15 -9 4 -19 7 -21 7 -3 0 -2 5 1 10 3
6 2 10 -3 10 -19 0 -22 -32 -5 -48 15 -16 15 -17 0 -20 -14 -3 -14 -5 1 -22
18 -22 35 -8 26 23 -4 12 0 17 15 17 12 0 21 5 21 11 0 22 33 79 45 79 21 0
40 31 37 60 -2 16 3 32 10 37 13 8 23 24 62 96 23 44 80 82 129 86 5 1 5 10 2
21 -4 13 -2 20 7 20 8 0 20 9 28 20 8 11 20 20 26 20 7 0 14 6 17 13 4 9 8 9
23 -1 34 -22 48 -26 52 -13 3 10 35 28 65 36 4 2 8 3 10 5 3 2 87 0 146 -4 27
-2 47 -9 52 -19 7 -12 16 -14 40 -7 23 7 31 6 36 -6 4 -10 9 -11 17 -5 6 5 18
6 25 2 9 -6 10 -11 2 -15 -17 -11 -13 -26 4 -20 11 5 13 2 9 -10 -4 -12 0 -16
16 -16 13 0 24 -8 27 -20 6 -24 11 -25 35 -3 10 9 18 11 18 5 0 -8 8 -8 30 -1
25 9 34 7 60 -11 16 -12 30 -17 30 -12 0 5 7 9 15 9 8 0 15 -4 15 -8 0 -12 38
-17 49 -6 8 8 11 7 11 -2 0 -11 3 -11 15 -1 12 10 22 10 39 2 13 -6 27 -7 32
-2 14 12 146 -11 169 -30 9 -8 21 -2 44 22 17 17 31 35 31 40 0 4 9 17 20 28
11 11 20 16 20 10 0 -21 19 -9 19 13 1 48 3 62 8 49 6 -17 33 4 33 25 0 9 6
13 13 10 10 -4 13 2 9 19 -2 14 0 24 7 24 6 0 11 -7 11 -17 0 -24 6 -13 13 24
6 29 4 31 -21 28 -15 -2 -33 2 -39 7 -9 7 -15 6 -19 -6 -3 -9 -15 -16 -25 -16
-10 0 -19 -4 -19 -10 0 -14 -43 -13 -58 2 -7 7 -12 8 -12 2 0 -6 -11 -16 -24
-22 -21 -9 -25 -8 -29 10 -4 13 -10 17 -18 12 -20 -12 -62 -14 -75 -3 -9 7
-15 5 -21 -6 -9 -15 -11 -15 -22 -1 -9 10 -19 13 -30 7 -9 -4 -27 -7 -41 -5
-84 12 -102 9 -111 -15 -9 -22 -10 -23 -35 -6 -15 9 -29 13 -33 9 -9 -12 -71
-15 -71 -4 0 6 -7 10 -15 10 -8 0 -15 7 -15 15 0 16 -15 20 -24 7 -7 -11 -66
-3 -66 9 0 5 -7 6 -15 3 -8 -4 -15 -2 -15 4 0 12 -69 10 -89 -3 -11 -6 -13 -4
-7 10 6 15 4 16 -10 4 -13 -11 -17 -10 -25 4 -6 9 -13 17 -17 16 -4 -1 -26 -5
-50 -10z m885 -241 c-3 -7 -5 -2 -5 12 0 14 2 19 5 13 2 -7 2 -19 0 -25z"/>
<path d="M8660 6852 c0 -6 -6 -9 -14 -6 -8 3 -17 1 -20 -4 -3 -6 1 -12 8 -15
16 -6 43 19 32 30 -3 3 -6 1 -6 -5z"/>
<path d="M8690 6830 c-9 -6 -10 -10 -3 -10 6 0 15 5 18 10 8 12 4 12 -15 0z"/>
<path d="M7915 6489 c-11 -17 1 -21 15 -4 8 9 8 15 2 15 -6 0 -14 -5 -17 -11z"/>
<path d="M8034 6485 c-4 -8 -10 -15 -16 -15 -5 0 -7 4 -3 9 7 13 -54 4 -71 -9
-7 -7 -22 -9 -33 -5 -10 3 -22 1 -26 -5 -3 -5 -1 -10 5 -10 6 0 8 -4 5 -10 -3
-5 1 -10 9 -10 9 0 16 -7 16 -16 0 -11 5 -14 16 -10 9 4 23 1 30 -5 8 -6 21
-9 29 -5 17 6 37 -31 27 -48 -3 -5 2 -7 10 -3 9 3 24 0 34 -8 15 -10 16 -16 6
-28 -10 -12 -9 -15 6 -19 11 -3 25 -19 33 -37 8 -17 17 -31 21 -31 5 0 8 -8 8
-18 0 -10 8 -25 19 -34 13 -11 17 -24 14 -42 -5 -23 -10 -26 -44 -26 -22 0
-39 -4 -39 -9 0 -14 -94 5 -162 34 -12 5 -18 3 -18 -7 0 -10 -13 -14 -47 -14
-27 1 -51 -3 -54 -7 -4 -5 -16 5 -28 22 -13 17 -27 28 -33 25 -6 -4 -22 -9
-35 -11 -12 -1 -34 -5 -48 -7 -14 -2 -25 1 -25 6 0 4 -17 7 -37 4 -21 -2 -55
2 -76 9 -37 13 -39 12 -49 -11 -7 -15 -14 -20 -18 -14 -10 16 -94 34 -98 21
-2 -6 -12 -7 -28 -1 -15 6 -24 6 -24 0 0 -6 -12 -10 -26 -10 -14 0 -34 -5 -44
-10 -11 -6 -21 -6 -24 -1 -8 13 -83 6 -150 -13 -32 -10 -65 -15 -72 -12 -8 3
-14 1 -14 -4 0 -6 -7 -10 -16 -10 -12 0 -15 -6 -10 -25 5 -19 2 -25 -9 -25 -8
0 -23 -4 -33 -9 -9 -6 -42 -18 -72 -27 -30 -9 -63 -26 -73 -37 -17 -20 -16
-21 14 -39 30 -18 36 -19 95 -5 35 8 64 10 64 5 0 -4 8 -4 18 1 50 26 71 33
84 29 7 -3 18 2 24 10 9 12 10 4 7 -35 -5 -46 -3 -51 18 -58 13 -4 29 -8 35
-9 6 -1 18 -7 26 -14 10 -7 34 -11 62 -9 29 3 46 0 46 -7 0 -6 5 -4 10 4 8 12
10 11 10 -7 0 -25 15 -31 24 -10 3 6 4 3 3 -8 -1 -12 3 -19 11 -18 6 2 12 -4
12 -13 0 -8 5 -12 11 -9 6 4 17 -1 25 -11 9 -11 12 -13 8 -5 -5 9 -3 12 4 7 7
-4 12 -13 12 -20 0 -7 15 -18 33 -23 17 -5 31 -14 30 -20 -1 -7 12 -10 33 -8
20 2 34 1 30 -2 -11 -12 26 -35 49 -31 13 3 26 1 27 -4 4 -12 77 -37 111 -38
15 0 27 -3 27 -7 0 -5 11 -9 25 -9 14 -1 25 2 25 7 0 5 6 9 14 9 9 0 12 -8 8
-25 -2 -15 0 -25 8 -25 7 0 9 8 5 19 -3 11 -1 22 5 26 5 3 10 -1 10 -9 0 -9 5
-16 10 -16 6 0 10 7 10 16 0 8 4 12 10 9 5 -3 19 -1 31 6 17 9 23 8 30 -2 7
-12 9 -12 9 0 0 8 3 11 7 8 3 -4 12 -2 20 4 10 9 13 8 13 -4 0 -9 4 -18 9 -21
5 -4 7 4 3 16 -5 21 -4 22 11 9 15 -12 17 -10 18 15 1 24 2 25 6 7 2 -13 9
-23 15 -23 5 0 8 6 5 14 -9 22 4 27 22 9 15 -16 16 -15 19 10 2 15 8 25 13 21
5 -3 7 -10 4 -15 -4 -5 -1 -9 5 -9 7 0 14 9 17 20 5 18 8 18 32 6 26 -14 27
-13 26 12 0 16 5 26 13 24 6 -1 12 2 12 8 0 6 5 10 11 10 7 0 9 -10 5 -25 -5
-18 -2 -25 9 -25 8 0 15 9 15 19 0 24 16 36 24 19 2 -7 3 -2 2 11 -3 28 -26
42 -26 16 0 -9 -4 -14 -8 -11 -5 3 -9 20 -9 38 0 18 2 24 5 14 4 -18 5 -18 18
5 10 18 13 20 14 7 0 -22 20 -24 20 -2 0 8 8 23 17 32 16 16 16 16 11 -5 -4
-14 -1 -24 9 -27 8 -3 11 -2 8 4 -3 5 3 14 14 19 13 7 17 17 14 31 -3 11 0 20
6 20 5 0 8 -7 5 -15 -4 -9 0 -15 9 -15 16 0 27 20 27 51 0 12 5 17 11 14 6 -4
8 -20 4 -38 l-6 -32 20 23 c20 23 21 23 48 5 15 -10 24 -13 20 -6 -10 16 3 45
19 39 7 -3 15 0 17 7 2 7 8 8 13 4 4 -4 3 -17 -4 -27 -10 -17 -10 -20 7 -20
11 0 21 9 25 23 5 18 8 20 16 7 8 -13 10 -12 10 3 0 9 6 17 13 17 6 0 3 6 -7
12 -15 8 -21 8 -24 0 -5 -17 -22 -15 -22 3 0 11 -8 13 -31 8 -22 -4 -38 0 -60
16 -28 21 -30 21 -56 4 -16 -11 -28 -13 -30 -7 -3 10 -64 10 -90 -1 -17 -6
-103 23 -123 41 -11 11 -11 17 -2 26 9 9 12 8 12 -5 0 -10 8 -17 20 -17 16 0
20 7 20 30 0 17 5 30 11 30 7 0 9 -10 5 -25 -8 -30 9 -33 24 -5 10 19 13 19
40 5 30 -16 54 -21 32 -7 -17 12 -4 42 18 42 10 0 20 6 23 13 3 8 7 6 12 -7 5
-11 3 -21 -4 -26 -9 -5 -7 -9 7 -12 15 -4 22 0 26 17 3 12 15 25 26 28 11 3
20 9 20 14 0 13 -33 12 -43 -1 -5 -7 -11 -6 -17 6 -8 13 -17 15 -40 8 -38 -11
-94 6 -86 26 3 8 -9 28 -25 45 -17 18 -25 30 -17 27 10 -4 13 2 10 28 -2 19
-8 34 -13 34 -5 0 -9 11 -9 25 0 14 -6 28 -14 31 -8 3 -12 12 -9 20 3 10 0 12
-10 8 -10 -3 -17 2 -21 14 -4 12 -19 22 -37 26 -20 4 -28 10 -23 18 5 8 2 9
-12 4 -10 -4 -15 -4 -11 0 9 9 -13 35 -24 28 -8 -5 -13 18 -12 54 1 17 -6 15
-13 -3z m-34 -9 c0 -2 -8 -10 -17 -17 -16 -13 -17 -12 -4 4 13 16 21 21 21 13z
m40 -10 c0 -2 -12 -11 -27 -20 l-28 -17 24 20 c23 21 31 25 31 17z m-136 -395
c3 -5 -1 -14 -8 -20 -12 -10 -13 -8 -9 8 6 23 9 25 17 12z m250 -55 c-11 -25
-23 -46 -27 -46 -5 0 -5 5 -1 11 4 8 -1 9 -17 4 -64 -21 -111 4 -76 40 9 9 17
22 18 28 1 7 4 2 7 -11 4 -13 11 -23 16 -22 5 1 13 -4 18 -12 7 -10 11 -9 23
6 11 15 15 16 16 5 0 -8 7 1 15 20 22 50 29 29 8 -23z m-884 34 c0 -5 -2 -10
-4 -10 -3 0 -8 5 -11 10 -3 6 -1 10 4 10 6 0 11 -4 11 -10z m676 -27 c-10 -10
-19 5 -10 18 6 11 8 11 12 0 2 -7 1 -15 -2 -18z m-333 -23 c3 -11 1 -18 -4
-14 -5 3 -9 12 -9 20 0 20 7 17 13 -6z m40 -10 c3 -11 1 -18 -4 -14 -5 3 -9
12 -9 20 0 20 7 17 13 -6z m468 -63 c-10 -9 -11 -8 -5 6 3 10 9 15 12 12 3 -3
0 -11 -7 -18z m-598 -7 c-3 -11 -9 -22 -13 -25 -11 -7 -8 29 4 37 15 10 15 11
9 -12z m-185 1 c-2 -20 4 -22 17 -5 12 16 14 17 15 2 0 -9 3 -25 7 -35 6 -16
5 -16 -10 -4 -9 7 -17 10 -17 6 0 -4 -7 -2 -15 5 -8 6 -19 9 -24 6 -5 -4 -12
-2 -16 4 -3 5 -16 10 -28 10 -18 0 -19 2 -7 10 16 10 79 11 78 1z m535 2 c3
-5 -6 -9 -20 -10 -19 -1 -22 1 -12 8 17 11 26 11 32 2z m87 -16 c0 -4 6 -5 13
-1 8 5 9 4 2 -4 -11 -12 -65 -4 -65 9 0 5 11 8 25 7 14 -1 25 -6 25 -11z m200
-12 c-12 -14 -10 -15 13 -10 33 9 35 -6 3 -21 -39 -18 -110 20 -77 41 6 3 14
-2 18 -10 8 -14 12 -13 28 5 21 23 35 19 15 -5z m200 17 c0 -5 -7 -17 -16 -28
-8 -10 -14 -14 -11 -9 2 6 7 18 10 28 7 17 17 23 17 9z m-290 -11 c0 -5 -8
-11 -17 -14 -10 -2 -26 -8 -37 -12 -14 -6 -17 -4 -14 6 2 7 15 16 29 20 35 10
39 10 39 0z m160 -31 c0 -5 -5 -10 -11 -10 -5 0 -7 5 -4 10 3 6 8 10 11 10 2
0 4 -4 4 -10z m-444 -64 c13 -4 24 -11 24 -16 0 -13 -12 -13 -44 -1 -19 8 -23
15 -18 33 5 17 7 19 10 6 2 -9 14 -19 28 -22z m54 -22 c0 -8 -4 -12 -10 -9 -5
3 -10 13 -10 21 0 8 5 12 10 9 6 -3 10 -13 10 -21z m325 -10 c9 3 15 0 15 -9
0 -19 -34 -20 -49 -1 -6 7 -8 22 -4 31 6 16 7 16 15 -4 5 -15 14 -21 23 -17z
m-232 -11 c7 3 11 10 9 16 -1 8 2 9 10 4 18 -11 71 -12 84 -2 10 8 52 5 62 -6
28 -27 -141 -42 -192 -17 -27 14 -28 16 -10 22 12 5 20 2 22 -7 2 -8 9 -12 15
-10z m-116 -44 c-7 -13 -19 -25 -26 -27 -7 -1 -3 10 10 26 28 34 35 35 16 1z"/>
<path d="M3390 6406 c0 -9 5 -16 10 -16 6 0 10 4 10 9 0 6 -4 13 -10 16 -5 3
-10 -1 -10 -9z"/>
<path d="M12140 6406 c0 -8 5 -18 10 -21 6 -3 10 3 10 14 0 12 -4 21 -10 21
-5 0 -10 -6 -10 -14z"/>
<path d="M9290 6211 c0 -6 5 -13 10 -16 6 -3 10 1 10 9 0 9 -4 16 -10 16 -5 0
-10 -4 -10 -9z"/>
<path d="M3794 6159 c-3 -6 -14 -7 -24 -4 -15 5 -17 2 -13 -16 4 -14 2 -20 -4
-16 -6 4 -16 -6 -22 -23 -9 -27 -26 -36 -55 -31 -5 1 -6 -4 -4 -11 3 -7 1 -24
-3 -37 -7 -17 -15 -22 -29 -18 -17 4 -19 1 -14 -18 3 -14 -1 -38 -10 -56 -20
-39 -20 -39 1 -39 14 0 15 -2 1 -17 -9 -10 -16 -33 -16 -52 -1 -42 -2 -43 -40
-31 -20 5 -30 5 -27 -1 11 -16 -5 -48 -21 -42 -7 3 -14 0 -14 -6 0 -6 -5 -11
-11 -11 -7 0 -9 10 -7 25 4 19 1 25 -13 25 -12 0 -19 -7 -19 -19 0 -11 -4 -23
-10 -26 -5 -3 -10 -1 -10 4 0 6 -5 11 -11 11 -5 0 -8 -4 -4 -9 3 -5 0 -13 -7
-17 -8 -5 -6 -10 8 -14 12 -5 23 -1 31 9 11 14 12 14 13 -1 0 -16 17 -23 42
-19 13 1 4 -44 -12 -57 -13 -11 -13 -12 0 -6 12 6 13 4 3 -7 -18 -18 -16 -30
2 -23 8 4 15 1 15 -6 0 -7 7 -10 15 -6 8 3 21 -1 29 -9 19 -20 33 -19 45 3 6
9 11 12 11 6 0 -9 11 -9 40 -2 33 9 45 7 66 -7 17 -11 29 -13 33 -7 8 14 61
27 61 15 0 -16 54 -70 78 -77 12 -4 20 -12 16 -17 -4 -6 18 -8 60 -5 42 4 66
2 66 -5 0 -6 5 -7 10 -4 6 4 8 11 5 16 -4 5 -1 9 4 9 6 0 11 -7 11 -15 0 -8 5
-15 10 -15 6 0 10 8 10 18 0 14 4 12 20 -8 13 -17 20 -20 20 -10 0 13 1 13 10
0 8 -13 11 -13 19 -1 5 8 18 12 30 8 12 -3 24 -1 27 5 4 6 9 6 14 -2 6 -10 15
-9 39 3 18 9 39 13 47 10 8 -3 14 1 14 10 0 21 29 30 48 15 12 -10 14 -10 8 0
-4 7 -1 12 8 12 9 0 21 9 28 20 7 11 18 20 25 20 7 0 13 5 13 11 0 6 9 8 20 4
17 -5 20 -2 21 22 1 15 3 21 6 12 4 -15 7 -16 34 -2 23 12 28 19 24 36 -5 17
-4 18 4 8 5 -8 19 -16 30 -18 22 -3 26 7 22 57 -1 23 0 23 10 7 6 -11 9 -31 7
-46 -3 -18 0 -28 9 -28 8 0 11 9 7 26 -4 20 -3 22 5 11 16 -23 24 -4 13 29 -7
18 -7 31 -2 31 5 0 13 -12 16 -26 5 -18 9 -22 14 -13 5 7 6 19 2 27 -4 12 1
14 21 10 23 -5 25 -3 16 14 -6 11 -7 23 -3 26 4 4 9 1 11 -5 7 -19 36 -15 56
7 18 22 23 70 7 70 -11 0 -50 36 -50 47 0 4 5 2 12 -5 7 -7 20 -12 29 -12 10
0 25 -10 33 -22 9 -12 16 -19 16 -14 0 5 6 3 14 -3 23 -19 55 35 44 74 -8 30
-65 75 -93 75 -8 0 -17 5 -20 10 -4 6 -11 8 -16 5 -5 -4 -9 -1 -9 5 0 8 -21
10 -65 7 -36 -2 -65 -1 -65 2 0 3 -17 6 -38 6 -20 0 -50 3 -67 8 -56 15 -105
18 -105 7 0 -7 -8 -9 -21 -5 -14 5 -25 2 -30 -6 -7 -11 -9 -11 -9 1 0 11 -9
15 -32 13 -49 -5 -70 -9 -98 -20 -14 -6 -26 -7 -28 -2 -6 15 -20 10 -27 -10
-6 -19 -55 -36 -55 -18 0 5 -7 4 -15 -3 -9 -7 -18 -10 -22 -7 -8 8 -63 -21
-63 -33 0 -6 -9 -10 -21 -10 -13 0 -23 -8 -26 -20 -5 -19 -7 -20 -24 -4 -17
15 -19 14 -34 -17 -14 -32 -15 -33 -11 -6 3 25 2 26 -14 12 -9 -8 -25 -15 -36
-15 -25 0 -44 -18 -45 -44 0 -21 0 -21 -8 -1 -5 11 -7 23 -4 28 6 11 -15 9
-22 -3 -4 -6 -15 -5 -30 2 -18 8 -22 15 -16 32 4 11 7 36 5 54 -1 17 3 32 9
32 6 0 8 3 4 6 -8 8 16 33 26 27 4 -2 7 3 7 12 0 11 5 15 15 11 15 -5 20 17
16 74 -1 23 0 24 12 8 8 -10 17 -18 21 -18 4 0 2 8 -3 18 -5 9 -8 21 -8 26 3
12 -32 17 -39 5z m694 -236 c38 -7 38 -30 0 -25 -15 2 -29 -1 -32 -7 -4 -6
-15 -2 -27 10 -22 22 -16 44 10 34 9 -4 31 -9 49 -12z m64 -15 c-6 -6 -15 -8
-19 -4 -4 4 -1 11 7 16 19 12 27 3 12 -12z m103 12 c3 -5 17 -10 30 -10 13 0
27 -5 30 -10 4 -6 11 -7 17 -4 6 4 9 1 6 -7 -5 -16 -40 -19 -50 -4 -4 6 -8 1
-8 -10 -1 -19 -2 -19 -10 1 -9 22 -50 40 -50 22 0 -7 -5 -6 -13 1 -8 6 -16 8
-19 5 -3 -2 -8 2 -11 11 -5 12 2 15 33 15 21 0 42 -4 45 -10z m-1005 -136 c0
-8 -4 -12 -10 -9 -5 3 -10 13 -10 21 0 8 5 12 10 9 6 -3 10 -13 10 -21z m896
-69 c-23 -18 -33 -19 -41 -5 -3 6 1 7 9 4 9 -3 16 -1 16 5 0 6 8 11 18 11 15
-1 15 -2 -2 -15z m-1013 -10 c-3 -9 -8 -14 -10 -11 -3 3 -2 9 2 15 9 16 15 13
8 -4z m52 5 c3 -5 1 -10 -4 -10 -6 0 -11 5 -11 10 0 6 2 10 4 10 3 0 8 -4 11
-10z m378 -31 c-8 -8 -13 -7 -18 2 -5 8 -4 10 3 5 7 -4 12 -2 12 5 0 7 3 9 7
6 4 -4 2 -12 -4 -18z m144 -3 c-2 -6 -19 -11 -38 -10 -22 0 -36 -5 -41 -15 -6
-14 -7 -14 -7 2 -1 9 -6 17 -12 17 -5 0 -7 5 -3 11 4 7 21 9 40 6 19 -3 34 -2
34 3 0 5 7 7 15 3 9 -3 14 -11 12 -17z m-566 -23 c-10 -17 -10 -16 -11 3 0 23
13 41 18 25 2 -6 -1 -18 -7 -28z m635 25 c4 -7 3 -8 -4 -4 -7 4 -12 2 -12 -4
0 -6 -4 -8 -10 -5 -5 3 -10 10 -10 16 0 13 27 11 36 -3z m-433 -13 c-3 -9 -8
-14 -10 -11 -3 3 -2 9 2 15 9 16 15 13 8 -4z m657 -17 c-17 -14 -26 -16 -37
-7 -11 10 -10 14 9 24 36 18 56 6 28 -17z m-112 -20 c-2 -6 -15 -12 -28 -13
-21 -2 -22 -1 -5 12 23 16 38 17 33 1z"/>
<path d="M8476 6051 c-4 -7 -5 -15 -2 -18 9 -9 19 4 14 18 -4 11 -6 11 -12 0z"/>
<path d="M8625 5870 c-3 -5 -1 -10 4 -10 6 0 11 5 11 10 0 6 -2 10 -4 10 -3 0
-8 -4 -11 -10z"/>
<path d="M8350 5810 c0 -5 5 -10 10 -10 6 0 10 5 10 10 0 6 -4 10 -10 10 -5 0
-10 -4 -10 -10z"/>
<path d="M3370 5760 c0 -5 5 -10 10 -10 6 0 10 5 10 10 0 6 -4 10 -10 10 -5 0
-10 -4 -10 -10z"/>
<path d="M8290 5704 c0 -8 5 -12 10 -9 6 3 10 10 10 16 0 5 -4 9 -10 9 -5 0
-10 -7 -10 -16z"/>
<path d="M3463 5669 c-1 -10 2 -19 8 -19 11 0 12 27 1 34 -4 2 -9 -4 -9 -15z"/>
<path d="M9870 5530 c0 -5 5 -10 10 -10 6 0 10 5 10 10 0 6 -4 10 -10 10 -5 0
-10 -4 -10 -10z"/>
<path d="M2696 5427 c-20 -20 -23 -30 -18 -78 2 -30 9 -57 14 -60 5 -4 9 -22
7 -40 -3 -42 18 -119 32 -119 6 0 9 -13 7 -29 -1 -16 4 -36 11 -45 10 -12 10
-16 1 -16 -15 0 -8 -35 8 -36 25 -3 26 -4 5 -19 -23 -16 -21 -45 3 -45 8 0 14
-4 14 -10 0 -5 -6 -10 -14 -10 -19 0 -30 -32 -14 -41 9 -6 9 -9 -3 -14 -15 -6
-22 -35 -8 -35 3 0 9 -9 12 -20 3 -11 1 -20 -5 -20 -5 0 -7 -9 -3 -20 5 -16 3
-19 -12 -13 -15 6 -16 4 -5 -9 10 -13 10 -17 -1 -21 -8 -3 -18 -25 -22 -49 -4
-23 -9 -46 -10 -50 -1 -5 -3 -15 -4 -23 -1 -9 -7 -12 -16 -8 -12 4 -16 -2 -16
-28 1 -63 -3 -80 -16 -75 -7 3 -13 -1 -13 -10 0 -8 -7 -17 -15 -20 -8 -4 -12
-10 -9 -15 3 -5 1 -9 -4 -9 -5 0 -9 -6 -10 -12 -4 -47 -11 -73 -21 -76 -16 -5
-13 -48 5 -67 9 -9 13 -19 9 -23 -3 -4 -12 1 -19 11 -7 9 -21 17 -30 17 -14 0
-16 -6 -10 -35 4 -23 2 -35 -5 -35 -6 0 -11 10 -11 22 0 29 -11 17 -14 -16 -2
-15 -10 -34 -18 -44 -26 -30 -30 -54 -12 -73 19 -21 13 -24 -17 -8 -11 5 -17
15 -13 22 4 7 3 8 -2 4 -9 -9 -10 -13 -13 -42 0 -8 -8 -15 -17 -15 -10 0 -14
-5 -10 -15 3 -8 8 -21 11 -28 4 -9 -4 -12 -27 -12 -41 2 -49 -2 -41 -21 4 -12
8 -13 13 -3 6 8 11 5 20 -11 11 -20 10 -22 -4 -17 -10 4 -20 -1 -26 -13 -12
-23 -13 -30 -1 -30 5 0 22 -5 38 -11 25 -9 26 -12 11 -20 -12 -7 -25 -6 -39 1
-28 15 -31 10 -14 -24 13 -24 13 -30 -2 -54 -10 -15 -22 -31 -28 -35 -5 -5 -1
-6 11 -2 24 6 50 -17 39 -35 -4 -6 -1 -17 5 -25 10 -12 9 -15 -9 -15 -11 0
-21 5 -21 11 0 5 -4 7 -10 4 -5 -3 -10 -18 -10 -32 0 -15 3 -23 6 -20 4 3 15
2 26 -4 16 -9 17 -13 6 -27 -8 -10 -9 -13 -1 -9 6 4 15 2 19 -5 5 -8 10 -6 14
8 5 12 1 24 -9 31 -15 12 -14 14 2 24 12 7 17 23 17 54 0 32 7 51 26 75 24 28
26 35 16 66 -9 29 -7 36 7 47 14 10 28 40 35 77 1 3 5 10 9 17 4 6 5 18 1 26
-3 8 2 21 10 30 9 9 16 20 16 24 0 5 25 36 55 68 45 47 53 60 43 72 -10 12 -9
17 4 24 9 5 19 23 23 39 4 16 11 32 16 35 5 4 9 15 9 25 0 14 11 22 41 30 38
11 41 13 36 40 -4 16 -2 30 3 32 5 2 11 12 14 23 8 40 19 65 27 65 4 0 14 19
20 43 7 23 23 66 36 95 25 55 21 82 -14 82 -12 0 -12 3 1 16 9 8 16 21 17 27
0 7 4 33 8 60 5 29 4 47 -2 47 -5 0 -7 15 -4 35 3 19 2 35 -4 35 -5 0 -9 18
-9 39 0 22 -6 46 -13 53 -12 11 -12 16 0 26 7 7 10 18 6 25 -6 11 -15 60 -16
100 -1 9 -4 17 -7 17 -10 0 -43 138 -35 149 3 6 2 11 -3 11 -5 0 -12 9 -15 20
-7 26 -23 25 -51 -3z m-266 -1470 c0 -6 -11 0 -25 13 -14 13 -25 28 -25 33 0
6 11 0 25 -13 14 -13 25 -28 25 -33z"/>
<path d="M10025 5370 c3 -5 10 -10 16 -10 5 0 9 5 9 10 0 6 -7 10 -16 10 -8 0
-12 -4 -9 -10z"/>
<path d="M12220 5286 c0 -9 5 -16 10 -16 6 0 10 4 10 9 0 6 -4 13 -10 16 -5 3
-10 -1 -10 -9z"/>
<path d="M580 5111 c0 -11 5 -23 10 -26 6 -3 10 3 10 14 0 11 -4 23 -10 26 -5
3 -10 -3 -10 -14z"/>
<path d="M476 5083 c-6 -14 -5 -15 5 -6 7 7 10 15 7 18 -3 3 -9 -2 -12 -12z"/>
<path d="M10515 5050 c3 -5 11 -10 16 -10 6 0 7 5 4 10 -3 6 -11 10 -16 10 -6
0 -7 -4 -4 -10z"/>
<path d="M290 4891 c0 -5 5 -13 10 -16 6 -3 10 -2 10 4 0 5 -4 13 -10 16 -5 3
-10 2 -10 -4z"/>
<path d="M5288 4869 c-22 -38 -23 -59 -3 -59 8 0 15 -9 15 -20 0 -11 5 -20 11
-20 6 0 8 -7 5 -16 -4 -11 1 -18 14 -21 11 -3 20 -12 20 -20 0 -8 4 -11 10 -8
5 3 23 -7 39 -24 18 -18 25 -32 18 -35 -13 -5 36 -10 67 -6 11 1 15 -3 12 -9
-4 -6 1 -11 11 -11 14 0 19 7 18 30 0 17 -5 30 -12 30 -7 0 -13 5 -13 10 0 6
-7 10 -15 10 -9 0 -15 10 -15 26 0 14 -4 23 -8 20 -4 -2 -14 0 -22 5 -12 9
-12 12 -2 16 10 4 8 9 -7 20 -12 8 -21 21 -21 30 0 9 -6 13 -14 10 -10 -4 -13
-1 -9 9 3 7 0 14 -6 14 -6 0 -21 11 -33 25 -28 33 -39 31 -60 -6z"/>
<path d="M5870 4889 c0 -4 -14 -9 -32 -11 -34 -3 -31 6 -40 -127 -4 -52 9 -61
58 -38 32 16 39 26 35 55 -1 6 2 12 6 12 11 0 48 -43 46 -51 -1 -4 9 -10 22
-13 14 -4 25 -11 25 -16 0 -6 9 -10 20 -10 11 0 20 -5 20 -11 0 -5 4 -8 9 -4
5 3 12 -4 16 -15 3 -11 12 -20 18 -20 7 0 6 -4 -3 -10 -12 -8 -9 -10 13 -10
15 0 27 -4 27 -9 0 -5 12 -12 28 -14 l27 -4 -30 -2 -30 -2 35 -13 c37 -13 62
-10 39 5 -8 5 -9 9 -4 9 16 0 14 60 -1 60 -13 0 -18 12 -15 32 0 5 -2 7 -7 7
-21 -4 -32 3 -32 20 0 19 35 39 48 27 3 -4 -4 -9 -16 -13 -12 -3 -22 -9 -22
-14 0 -12 17 -11 25 1 3 5 12 7 19 4 8 -3 17 -1 21 5 3 6 0 11 -7 11 -11 0
-11 2 0 9 10 6 10 10 -2 20 -8 7 -12 20 -9 28 5 13 2 15 -15 11 -13 -4 -23 0
-26 8 -3 8 -14 14 -25 14 -12 0 -27 10 -36 23 -12 18 -22 23 -45 19 -24 -3
-30 -1 -30 14 0 17 -8 19 -65 20 -36 0 -65 -3 -65 -7z m240 -102 c0 -2 -10
-12 -22 -23 l-23 -19 19 23 c18 21 26 27 26 19z"/>
<path d="M9192 4872 c-6 -2 -12 -9 -12 -17 0 -7 -7 -18 -15 -25 -9 -7 -23 -28
-31 -46 -9 -19 -22 -34 -28 -34 -7 0 -13 -6 -14 -12 -3 -34 -22 -92 -33 -98
-6 -5 -9 -15 -6 -24 5 -12 2 -16 -10 -14 -9 2 -18 -3 -20 -9 -3 -7 0 -13 6
-13 6 0 11 -4 11 -10 0 -5 -8 -10 -19 -10 -10 0 -24 -7 -31 -15 -10 -12 -10
-15 4 -15 9 0 16 -5 16 -11 0 -5 -5 -7 -10 -4 -13 8 -52 -4 -45 -15 3 -4 -4
-10 -14 -13 -13 -3 -18 -12 -16 -30 2 -16 -1 -26 -8 -24 -7 1 -10 -7 -9 -17 3
-18 2 -18 -14 -5 -16 12 -17 12 -11 -3 4 -12 2 -18 -7 -18 -15 0 -59 -67 -52
-78 4 -7 -17 -31 -31 -35 -5 -1 -8 -11 -9 -22 -1 -29 -15 -56 -25 -49 -5 3 -9
-2 -9 -10 0 -8 -7 -19 -16 -24 -8 -5 -18 -27 -21 -50 -3 -23 -10 -42 -14 -42
-17 0 -9 -40 11 -60 24 -24 14 -27 -11 -4 -10 9 -25 14 -34 10 -14 -5 -14 -8
1 -31 20 -30 13 -43 -10 -20 -15 15 -16 14 -16 -8 0 -14 -7 -27 -15 -31 -18
-6 -20 -47 -4 -63 9 -9 7 -10 -9 -6 -12 3 -19 9 -16 14 3 5 0 9 -6 9 -7 0 -10
-7 -6 -15 3 -8 -2 -21 -11 -30 -14 -14 -14 -18 3 -37 19 -21 19 -21 -1 -14
-16 6 -14 1 9 -23 17 -17 25 -31 20 -31 -6 0 -23 13 -38 29 -16 16 -35 27 -42
24 -8 -3 -11 -9 -8 -14 3 -5 9 -7 14 -4 4 3 13 -2 20 -10 10 -12 9 -15 -8 -15
-37 0 -34 -28 4 -40 24 -8 32 -16 26 -22 -6 -6 -17 -6 -30 1 -11 6 -23 11 -26
11 -11 0 -6 -19 10 -35 14 -14 15 -18 2 -33 -26 -30 -29 -40 -10 -38 11 1 17
-6 17 -19 1 -11 4 -26 8 -33 6 -8 2 -12 -12 -12 -12 0 -21 6 -22 13 0 6 -4 3
-9 -8 -12 -28 -12 -35 2 -32 6 1 18 -11 26 -27 11 -22 16 -25 23 -15 5 8 4 18
-1 23 -15 15 -12 23 10 29 17 4 20 10 14 32 -5 20 0 35 25 65 27 34 30 42 21
66 -8 21 -8 29 2 35 7 5 13 14 14 21 0 7 6 26 13 41 6 16 9 32 6 37 -11 18 30
85 82 133 18 16 20 23 11 34 -9 11 -9 16 0 22 6 4 13 18 14 31 2 14 8 28 13
32 6 4 10 13 10 20 0 7 14 15 30 18 24 4 31 11 33 33 2 15 8 27 13 27 5 0 9 9
9 20 0 11 9 28 20 37 11 10 20 23 20 30 0 6 20 32 44 57 l44 46 -20 25 c-16
20 -16 24 -3 19 20 -8 88 54 81 73 -3 7 4 19 15 26 11 8 19 18 17 23 -1 5 6
21 16 36 10 16 16 34 13 42 -4 10 -1 13 7 10 16 -6 56 53 87 127 12 30 28 61
35 70 8 8 15 26 16 39 2 19 -3 25 -27 30 -17 4 -36 5 -43 2z"/>
<path d="M279 4841 c7 -5 11 -13 8 -18 -3 -5 -2 -15 3 -22 6 -10 10 -8 15 9 7
22 -6 40 -30 40 -5 0 -4 -4 4 -9z"/>
<path d="M223 4797 c-7 -15 -18 -27 -24 -27 -9 0 -9 -3 0 -14 15 -18 4 -44
-21 -48 -16 -2 -25 -18 -40 -63 -10 -32 -24 -63 -31 -67 -6 -4 -8 -8 -4 -8 5
0 -6 -18 -23 -40 -32 -41 -40 -82 -25 -130 4 -13 1 -28 -8 -38 -8 -10 -15 -36
-15 -61 1 -26 -5 -47 -13 -52 -10 -6 -10 -9 -2 -9 7 0 13 -10 13 -22 0 -13 2
-61 5 -108 2 -47 5 -124 6 -172 3 -79 5 -87 23 -90 12 -2 20 -9 18 -17 -3 -15
36 -81 48 -81 4 0 10 -14 14 -32 3 -17 9 -28 13 -25 13 13 30 -37 20 -58 -7
-13 -6 -20 1 -23 6 -2 9 -9 6 -16 -3 -7 10 -18 31 -26 19 -7 35 -19 35 -26 0
-6 13 -17 29 -24 16 -6 32 -18 35 -26 3 -8 10 -14 17 -14 6 0 20 -11 31 -25
11 -14 25 -25 33 -25 7 0 18 -7 25 -15 7 -9 18 -14 23 -12 6 2 20 -6 32 -17
31 -29 94 -66 110 -66 8 0 24 10 36 23 15 15 20 17 16 5 -8 -22 18 -42 78 -61
74 -22 94 -26 97 -16 2 4 21 4 42 -1 22 -5 44 -6 48 -3 5 2 36 6 69 6 38 1 63
7 68 16 7 11 9 11 13 0 5 -15 161 -14 166 1 2 5 9 7 17 4 7 -3 16 -1 20 5 3 6
13 11 22 11 8 0 46 9 83 21 60 18 70 24 75 49 7 30 -19 95 -34 86 -4 -3 -15 4
-25 16 -16 18 -20 19 -32 6 -8 -8 -16 -27 -18 -43 -3 -31 -28 -49 -57 -42 -10
3 -22 1 -25 -5 -4 -6 -9 -6 -14 2 -5 8 -13 9 -21 4 -13 -8 -59 -23 -137 -43
-19 -6 -34 -5 -38 1 -3 5 -15 1 -26 -9 -15 -13 -22 -15 -25 -5 -3 6 -19 12
-36 11 -18 0 -26 -3 -19 -6 6 -2 12 -9 12 -14 0 -15 -22 -10 -35 8 -15 20 -65
25 -58 6 8 -21 -10 -15 -36 12 -16 18 -27 22 -35 16 -8 -7 -17 -4 -29 9 -18
21 -37 26 -37 11 0 -5 -11 -8 -24 -7 -13 0 -24 6 -23 11 1 6 -7 11 -18 11 -38
3 -40 4 -25 14 12 8 9 10 -12 10 -18 0 -29 7 -33 20 -3 11 -14 20 -23 20 -10
0 -33 11 -52 23 -19 13 -41 22 -49 19 -8 -3 -11 0 -7 7 4 6 1 11 -7 11 -8 0
-17 9 -20 20 -4 14 -14 20 -34 20 -17 0 -33 8 -41 20 -7 11 -20 20 -30 20 -14
0 -15 2 -2 10 12 8 12 10 -2 15 -10 4 -20 16 -24 27 -9 28 -64 88 -81 88 -8 0
-13 11 -13 29 0 23 -7 32 -35 45 -19 10 -40 14 -46 10 -7 -4 -10 -1 -7 7 2 7
15 14 29 14 36 0 36 30 0 51 -33 20 -40 34 -16 34 8 0 15 -4 15 -10 0 -5 5
-10 11 -10 7 0 4 10 -6 26 -10 15 -18 50 -19 82 -1 31 -7 57 -13 59 -5 2 -19
10 -29 18 -18 13 -17 14 14 15 24 0 31 -4 26 -12 -5 -10 -3 -10 7 0 12 11 12
14 -1 22 -8 5 -10 10 -5 10 6 0 3 5 -5 10 -11 7 -11 10 -2 10 7 0 10 5 7 10
-3 6 -1 10 4 10 19 0 12 29 -9 42 -27 17 -25 31 3 22 16 -5 12 3 -18 29 -22
19 -37 39 -32 43 4 4 22 -6 40 -22 41 -39 83 -34 57 6 -8 13 -10 12 -10 -4 0
-15 -3 -16 -15 -6 -20 16 -20 44 0 36 8 -3 16 -1 16 4 3 20 4 25 11 36 5 8 -6
14 -33 18 -49 8 -48 31 2 31 28 0 33 3 31 20 -2 11 -9 26 -14 32 -7 9 -3 22
14 46 24 30 24 34 10 56 -12 17 -13 27 -4 41 6 10 8 27 5 39 -4 17 -1 21 17
21 17 0 21 -4 17 -20 -7 -27 -2 -25 23 10 19 27 20 31 6 46 -22 21 -20 33 7
44 12 5 17 9 10 9 -6 1 -13 13 -15 28 l-3 28 -12 -28z"/>
<path d="M10820 4791 c0 -12 35 -41 48 -41 7 0 12 2 12 4 0 2 3 11 6 20 3 9 1
16 -6 16 -6 0 -8 -4 -5 -10 3 -5 1 -10 -4 -10 -6 0 -11 4 -11 9 0 5 -9 11 -20
14 -11 3 -20 2 -20 -2z"/>
<path d="M10905 4780 c3 -5 8 -10 11 -10 2 0 4 5 4 10 0 6 -5 10 -11 10 -5 0
-7 -4 -4 -10z"/>
<path d="M10910 4720 c0 -5 6 -10 14 -10 8 0 18 5 21 10 3 6 -3 10 -14 10 -12
0 -21 -4 -21 -10z"/>
<path d="M10990 4690 c0 -5 5 -10 11 -10 5 0 7 5 4 10 -3 6 -8 10 -11 10 -2 0
-4 -4 -4 -10z"/>
<path d="M3206 4518 c-20 -28 -21 -62 -3 -77 8 -6 19 -28 25 -50 7 -21 19 -44
27 -51 8 -7 15 -21 15 -31 0 -10 5 -21 10 -24 6 -4 10 -12 8 -18 -2 -13 29
-71 52 -97 25 -28 41 -60 35 -70 -3 -6 5 -15 19 -21 21 -10 23 -14 13 -30 -9
-15 -8 -22 7 -36 10 -10 16 -12 12 -5 -4 6 -3 12 2 12 16 0 22 -13 11 -26 -17
-21 -7 -60 15 -56 15 3 17 0 11 -15 -4 -10 -10 -31 -13 -47 -3 -21 -1 -27 8
-21 9 6 10 0 5 -24 -5 -25 -2 -35 21 -56 15 -14 22 -25 15 -25 -16 0 -14 -30
4 -36 8 -4 12 -10 9 -15 -3 -5 -10 -7 -15 -4 -5 4 -9 2 -9 -4 0 -5 6 -11 12
-13 10 -4 10 -10 1 -29 -8 -19 -8 -31 3 -50 7 -13 13 -36 14 -51 0 -16 4 -28
9 -28 5 0 9 -11 9 -25 0 -14 -4 -25 -9 -25 -14 0 -11 -18 8 -47 10 -15 16 -37
15 -49 -2 -12 2 -25 7 -29 17 -10 13 -25 -5 -18 -14 5 -14 3 -3 -16 11 -17 11
-25 1 -41 -7 -11 -9 -20 -5 -20 5 0 9 -11 9 -24 1 -14 8 -38 16 -54 10 -18 12
-36 7 -51 -11 -27 8 -60 38 -67 13 -4 20 -10 17 -16 -3 -5 -12 -4 -21 4 -12
10 -18 9 -29 -7 -13 -17 -11 -22 18 -52 24 -24 28 -33 15 -33 -9 0 -21 8 -26
18 -10 15 -10 15 -7 -3 1 -11 6 -28 11 -38 4 -9 5 -29 2 -44 -7 -36 10 -81 34
-88 17 -6 17 -8 -9 -30 -24 -22 -25 -24 -7 -25 17 0 17 -2 5 -10 -8 -5 -10
-10 -5 -10 6 0 3 -5 -5 -10 -13 -9 -10 -14 15 -35 24 -20 26 -25 12 -25 -10 0
-15 -4 -12 -10 3 -5 15 -10 26 -10 11 0 17 -4 14 -10 -3 -5 -19 -7 -34 -4 -34
7 -50 -11 -29 -33 11 -10 13 -24 7 -51 -8 -43 -35 -139 -44 -165 -4 -10 -3
-17 5 -17 6 0 8 -5 3 -12 -4 -7 -9 -24 -11 -38 -1 -14 -5 -32 -9 -40 -3 -8 -5
-25 -4 -37 1 -13 -3 -23 -9 -23 -7 0 -11 -41 -11 -127 0 -151 -2 -174 -12
-190 -4 -7 -5 -30 -1 -50 8 -45 8 -48 -8 -48 -7 0 -14 -15 -16 -32 -2 -19 1
-33 7 -33 20 0 11 -26 -19 -55 -16 -16 -30 -39 -30 -51 0 -13 -4 -26 -10 -29
-5 -3 -10 -12 -9 -18 0 -9 2 -9 6 1 2 6 12 12 20 12 10 0 13 -6 9 -16 -3 -9
-6 -18 -6 -20 0 -3 -4 -2 -10 1 -5 3 -10 1 -10 -5 0 -6 -4 -8 -10 -5 -5 3 -10
2 -10 -4 0 -6 -9 -19 -21 -30 -14 -13 -17 -21 -9 -26 14 -9 -6 -35 -26 -35 -8
0 -14 -6 -14 -14 0 -8 -6 -16 -14 -19 -9 -3 -12 -15 -9 -31 3 -15 1 -26 -6
-26 -6 0 -11 -8 -11 -19 0 -12 -7 -18 -17 -17 -12 1 -21 -10 -28 -31 -5 -18
-15 -33 -22 -33 -7 0 -10 7 -7 15 13 32 -7 13 -21 -21 -10 -25 -19 -34 -30
-30 -8 3 -15 1 -15 -4 0 -6 -7 -10 -16 -10 -9 0 -25 -12 -36 -26 -26 -32 -99
-79 -117 -75 -12 2 -13 0 -2 -12 13 -17 -1 -33 -20 -22 -6 4 -17 -3 -26 -14
-11 -16 -18 -19 -27 -12 -13 11 -72 -25 -89 -54 -4 -8 -16 -15 -25 -15 -16 0
-26 -5 -83 -39 -22 -13 -23 -13 -10 2 16 20 3 22 -24 3 -11 -7 -36 -13 -56
-13 -19 0 -41 -3 -48 -7 -6 -4 -19 -2 -27 5 -12 10 -13 9 -8 -5 4 -11 1 -16
-12 -16 -24 0 -87 -23 -95 -34 -4 -5 -23 -5 -47 1 -29 8 -45 7 -63 -3 -13 -7
-27 -10 -31 -8 -4 3 -17 -9 -29 -25 -12 -17 -26 -28 -31 -25 -13 9 -9 24 7 24
27 0 16 28 -16 39 -25 9 -38 7 -69 -9 -47 -24 -72 -26 -64 -5 4 8 18 15 33 16
l26 1 -25 7 c-14 4 -45 6 -70 5 -25 -2 -54 4 -66 11 -12 7 -39 17 -60 20 -61
10 -75 16 -69 26 4 5 1 9 -5 9 -7 0 -10 -7 -6 -15 3 -9 -3 -19 -15 -26 -29
-15 -33 -6 -14 30 8 17 11 31 6 31 -5 0 -12 -6 -15 -12 -3 -9 -8 -8 -16 5 -10
15 -14 16 -28 5 -13 -11 -15 -11 -9 5 4 11 2 17 -7 17 -8 0 -16 7 -20 15 -4
10 -20 15 -51 15 -43 0 -46 2 -40 22 6 18 4 20 -11 14 -43 -17 -90 -18 -103
-2 -12 14 -9 16 27 16 53 0 72 8 72 30 0 19 -20 30 -48 29 -11 0 -9 -4 8 -11
l25 -11 -23 -5 c-33 -5 -55 5 -48 23 7 20 -3 45 -19 45 -8 0 -16 9 -20 19 -5
17 -8 16 -35 -11 -16 -16 -34 -27 -40 -23 -16 10 -12 65 5 65 39 0 -3 55 -46
62 -19 2 -27 15 -44 68 -11 36 -27 66 -35 68 -26 6 -50 34 -50 59 0 13 -10 37
-21 52 -22 29 -19 51 5 51 8 0 16 -10 19 -22 10 -38 14 -16 8 47 -4 42 -10 60
-20 60 -23 0 -36 52 -17 71 20 19 20 28 2 21 -9 -4 -17 4 -22 21 -6 24 -8 20
-15 -27 -5 -41 -4 -58 7 -68 18 -19 18 -42 -1 -80 -15 -29 -14 -36 14 -112 16
-45 27 -81 24 -81 -3 0 0 -7 7 -15 7 -9 10 -18 6 -22 -3 -3 0 -13 8 -22 7 -9
16 -27 19 -41 14 -67 70 -165 87 -155 4 3 15 -4 25 -15 10 -11 24 -20 31 -20
8 0 28 -19 45 -42 17 -24 42 -49 57 -57 43 -22 89 -66 84 -80 -3 -10 0 -11 14
-3 13 7 27 5 53 -9 20 -10 46 -19 58 -19 12 0 25 -5 28 -10 3 -6 15 -10 26
-10 10 0 19 -4 19 -10 0 -5 10 -10 23 -10 12 0 36 -7 52 -16 39 -21 174 -64
202 -64 12 0 25 -4 28 -10 3 -5 17 -10 31 -10 14 0 34 -5 44 -10 15 -8 21 -6
29 7 7 14 24 18 73 19 93 1 218 16 218 25 0 12 88 3 106 -12 13 -10 17 -10 26
2 7 11 11 11 15 1 4 -9 14 -7 41 10 21 12 39 26 40 30 2 4 16 8 31 8 16 0 46
13 68 29 23 16 44 27 47 24 3 -4 20 3 36 15 16 12 35 22 43 22 22 0 78 31 84
46 3 8 13 14 23 14 10 0 27 10 37 23 10 12 31 28 47 35 15 7 61 39 101 72 56
45 73 65 73 85 0 14 -4 28 -9 31 -17 10 -9 25 10 19 24 -7 70 43 135 147 33
55 46 83 41 98 -4 11 -2 20 4 20 6 0 11 7 11 16 0 8 4 13 9 10 5 -4 7 3 4 14
-3 12 2 29 13 41 14 15 16 24 8 37 -8 12 -7 26 4 52 8 19 16 68 18 108 2 41 9
80 15 89 7 8 14 35 15 61 2 26 10 77 17 115 9 40 11 70 5 73 -5 3 -5 11 2 19
6 7 8 19 5 27 -6 15 21 238 30 246 2 3 11 2 20 -1 10 -4 15 -20 15 -46 0 -33
4 -40 21 -43 12 -2 27 -12 33 -23 6 -11 15 -23 20 -26 5 -4 5 -15 1 -25 -5
-13 -9 -15 -12 -6 -11 29 -19 9 -9 -23 6 -19 16 -34 22 -32 12 2 68 -53 77
-77 4 -10 0 -12 -16 -8 -20 5 -21 4 -8 -12 8 -9 20 -15 27 -12 7 2 20 -4 30
-15 9 -10 23 -19 29 -19 13 0 30 -28 27 -42 -1 -5 8 -8 19 -8 17 0 19 -3 10
-14 -9 -10 -8 -16 4 -26 10 -9 15 -9 15 -1 0 6 4 11 9 11 6 0 9 -12 8 -27 -2
-22 2 -27 16 -25 9 2 17 -2 17 -8 0 -5 -4 -10 -9 -10 -5 0 -7 -9 -4 -20 3 -11
9 -20 14 -20 5 0 9 -7 9 -15 0 -9 11 -21 25 -27 14 -6 25 -17 25 -24 0 -8 6
-11 15 -8 8 4 15 2 15 -4 0 -6 -6 -13 -12 -15 -8 -3 -6 -6 5 -6 9 -1 17 -9 17
-18 0 -15 48 -52 70 -56 13 -2 31 -28 25 -37 -3 -5 2 -11 12 -11 21 -2 30 -4
61 -14 18 -6 20 -10 10 -16 -10 -7 -9 -9 4 -9 9 0 21 -6 25 -14 11 -17 47 -36
71 -36 11 0 22 -7 26 -15 4 -12 11 -13 33 -4 15 6 31 16 35 22 6 9 8 9 8 0 0
-7 -7 -16 -17 -21 -20 -12 -10 -47 12 -38 8 3 22 9 30 12 11 5 13 2 9 -10 -3
-9 -10 -13 -15 -10 -5 3 -9 0 -9 -5 0 -6 11 -11 25 -11 14 0 25 -5 25 -10 0
-21 44 -29 64 -11 18 15 19 15 13 -2 -4 -10 -7 -21 -7 -23 0 -2 -7 -4 -16 -4
-8 0 -13 -4 -10 -9 3 -5 15 -7 26 -4 14 4 20 0 20 -11 0 -19 21 -21 39 -3 11
10 13 9 7 -6 -5 -15 0 -13 25 7 17 15 34 24 38 21 3 -4 -6 -16 -22 -27 -36
-27 -54 -58 -32 -58 9 0 14 4 11 9 -3 5 1 14 9 21 8 7 16 9 16 4 1 -5 2 -15 3
-23 2 -27 22 -21 41 11 15 26 20 29 23 15 2 -10 -2 -25 -9 -33 -17 -20 -2 -31
22 -15 18 11 23 10 36 -8 10 -16 19 -19 31 -12 27 15 73 9 69 -9 -2 -8 -9 -14
-15 -13 -17 4 -15 -8 5 -22 14 -10 20 -10 31 1 18 18 36 18 29 0 -5 -12 -2
-12 20 -1 15 8 32 10 42 5 57 -28 101 -43 134 -47 22 -2 51 -9 65 -15 15 -6
37 -10 48 -9 12 1 24 -4 27 -12 7 -18 356 -16 401 2 23 9 31 9 37 -1 9 -14 99
-19 99 -5 0 4 -10 7 -22 7 -22 1 -22 1 -4 12 15 8 25 7 46 -6 36 -21 115 -22
107 -2 -3 8 1 17 9 20 22 8 36 7 31 -1 -9 -14 17 -28 56 -30 20 -1 37 2 37 7
0 12 33 13 44 3 13 -14 69 -11 84 3 7 8 18 12 23 8 6 -3 17 0 26 8 13 10 17
10 20 1 5 -15 63 -18 63 -3 0 6 7 10 15 10 18 0 20 -16 3 -23 -8 -3 -6 -6 5
-6 10 -1 28 6 41 14 20 14 26 14 38 2 10 -10 30 -13 73 -9 33 3 88 5 121 6 48
1 60 4 56 15 -4 11 2 13 23 9 16 -3 37 -1 48 6 15 8 21 8 24 -1 6 -16 14 -16
50 -2 15 6 29 9 30 7 1 -2 12 6 25 18 13 11 36 21 52 22 16 1 44 11 62 23 27
16 33 17 28 5 -8 -21 5 -20 28 1 20 18 35 23 78 26 14 1 29 8 33 15 5 7 17 10
28 7 11 -4 18 -2 17 3 -3 10 66 62 81 62 5 0 11 8 14 19 3 12 17 20 45 24 46
8 107 67 99 98 -5 20 19 34 29 17 4 -7 2 -14 -4 -16 -7 -2 -12 -11 -12 -19 0
-32 98 5 100 38 0 4 10 19 21 33 17 21 24 24 30 14 5 -8 0 -22 -14 -38 l-22
-25 22 19 c13 11 23 15 23 10 0 -5 8 0 18 12 18 22 92 70 92 60 0 -7 67 27 92
47 10 8 21 28 24 46 8 39 19 39 35 2 13 -29 33 -34 22 -6 -3 10 2 15 16 15 13
0 21 6 21 18 0 13 2 14 9 3 6 -9 11 -10 15 -2 4 6 11 9 16 6 18 -11 48 15 60
50 13 40 18 42 35 18 11 -15 14 -12 20 30 8 50 37 95 43 65 2 -8 -4 -34 -11
-57 -8 -22 -11 -41 -7 -41 5 0 15 -3 23 -6 9 -3 23 7 38 28 l23 33 -27 -24
c-21 -19 -27 -21 -27 -9 0 9 9 26 20 39 15 19 22 21 28 11 7 -10 18 -8 54 11
l45 24 -24 27 c-31 37 -29 46 11 46 28 0 35 -4 38 -22 3 -22 3 -21 32 6 17 15
31 37 33 48 2 12 4 22 6 23 59 24 124 61 121 69 -6 16 34 78 46 71 5 -3 21 12
35 35 14 22 30 40 35 40 20 0 23 -31 4 -45 -11 -8 -15 -15 -10 -15 5 0 23 10
40 23 52 40 56 40 56 13 0 -13 -7 -31 -15 -40 -8 -8 -15 -24 -15 -35 0 -11 -4
-22 -8 -25 -5 -3 -9 -66 -10 -141 0 -88 -5 -142 -13 -151 -9 -11 -8 -14 4 -14
18 0 29 -34 15 -48 -7 -7 -6 -23 2 -47 11 -32 10 -39 -3 -47 -12 -6 -14 -18
-10 -46 3 -20 10 -42 15 -49 5 -7 7 -17 3 -23 -4 -6 0 -19 8 -28 8 -9 18 -48
22 -87 3 -38 13 -80 21 -92 8 -12 14 -30 14 -40 0 -15 -2 -15 -15 3 -20 27
-19 1 2 -39 18 -34 21 -50 26 -113 1 -23 8 -48 15 -57 8 -9 10 -25 6 -43 -5
-19 -4 -25 5 -20 7 4 15 -4 21 -21 5 -15 16 -41 25 -56 8 -16 15 -34 15 -41 0
-6 14 -23 30 -38 17 -14 30 -36 30 -47 0 -31 40 -110 61 -122 11 -5 19 -16 19
-23 0 -13 44 -32 64 -27 15 3 35 -20 29 -35 -7 -19 -23 -18 -23 1 0 8 -9 15
-20 15 -19 0 -19 -1 -1 -47 16 -41 28 -54 87 -90 66 -40 83 -62 57 -70 -7 -3
-13 0 -13 5 0 5 -12 17 -26 27 l-27 17 29 -36 c16 -20 34 -36 41 -36 7 0 50
-37 96 -83 46 -45 103 -91 125 -101 23 -11 42 -23 42 -28 0 -6 21 -7 50 -3 55
8 63 -2 30 -35 -19 -19 -19 -20 0 -30 16 -9 20 -8 20 7 1 14 5 12 21 -9 17
-23 24 -26 40 -18 15 8 19 7 19 -5 0 -8 9 -15 20 -15 11 0 20 -7 20 -15 0 -24
48 -37 107 -29 49 6 53 5 53 -15 0 -26 10 -26 60 -1 38 19 126 28 116 12 -3
-5 -31 -17 -63 -27 -32 -11 -60 -20 -62 -22 -1 -1 6 -12 18 -24 15 -16 31 -22
57 -21 50 2 57 12 8 12 -36 1 -38 2 -20 15 11 8 37 15 59 15 34 0 38 -2 32
-20 -7 -21 -8 -21 72 -24 23 -1 49 -8 58 -16 14 -12 15 -9 10 26 -9 60 4 70
55 44 41 -21 42 -22 23 -42 -16 -19 -16 -21 -1 -15 10 3 20 2 23 -3 4 -7 13
-6 25 0 10 5 30 10 44 10 14 0 26 4 26 9 0 5 10 13 23 17 23 8 170 6 200 -2
10 -3 17 0 17 8 0 21 72 58 111 58 19 0 48 11 70 26 41 28 72 29 77 1 3 -12
-3 -17 -22 -17 -14 0 -28 -5 -31 -10 -8 -13 -4 -13 64 4 31 8 68 17 84 20 15
4 27 11 27 17 0 6 -6 7 -12 3 -7 -4 -4 3 7 15 28 33 54 44 95 43 23 -1 30 1
21 7 -10 7 -4 15 25 35 46 31 39 34 -16 6 -22 -11 -48 -20 -59 -20 -28 0 -52
-11 -46 -21 12 -18 -56 -41 -104 -34 -35 4 -64 0 -121 -19 -119 -39 -183 -46
-343 -41 -81 3 -188 1 -237 -5 -80 -9 -95 -8 -142 10 -29 11 -69 20 -89 20
-46 0 -165 40 -149 50 8 5 9 10 2 14 -6 4 -15 -1 -20 -10 -8 -15 -12 -15 -39
-1 -16 9 -52 21 -79 28 -27 6 -59 18 -71 25 -12 8 -30 14 -39 14 -9 0 -18 9
-21 19 -3 12 -17 23 -36 27 -17 3 -37 11 -44 18 -47 38 -265 255 -263 262 2
11 -33 64 -42 64 -5 0 -8 9 -8 19 0 20 -32 37 -49 27 -5 -4 -12 3 -16 14 -3
11 -11 20 -16 20 -5 0 -9 6 -7 14 2 8 -24 56 -58 107 -33 52 -66 113 -73 137
-7 24 -21 51 -32 60 -12 11 -19 29 -19 53 0 21 -5 39 -10 41 -7 2 -5 19 5 47
18 53 18 51 0 51 -18 0 -20 17 -3 22 10 4 6 19 -12 59 -14 30 -28 56 -32 57
-5 2 -8 23 -8 46 0 23 -7 67 -16 97 -19 64 -26 132 -25 249 1 47 -3 91 -8 99
-5 9 -5 25 1 42 6 18 6 40 -1 65 -6 22 -7 42 -2 48 5 6 14 47 21 91 7 44 21
110 31 147 19 66 18 154 -2 142 -5 -3 -10 0 -10 5 -5 29 -3 36 7 36 6 0 19 8
28 18 10 10 21 15 25 12 3 -4 -2 -11 -12 -16 -9 -6 -17 -19 -17 -29 0 -17 3
-16 26 7 l27 27 -21 16 c-11 10 -17 21 -13 26 4 5 15 35 25 67 9 32 37 105 61
162 23 58 39 105 34 105 -14 0 -11 17 6 34 8 8 15 22 15 31 0 9 5 13 10 10 6
-3 10 5 10 19 0 14 11 42 25 62 19 27 22 40 13 45 -8 5 0 32 29 96 42 91 79
199 75 221 -2 6 1 12 6 12 16 0 62 82 65 116 1 19 8 36 15 39 6 2 12 11 12 19
0 8 16 52 36 97 20 45 34 90 31 100 -3 10 1 23 9 30 8 6 14 26 14 43 0 17 9
59 19 92 11 34 29 124 41 200 11 76 25 158 31 183 6 27 6 48 1 53 -5 5 -7 38
-5 72 6 73 -6 90 -41 56 -26 -23 -41 -87 -51 -207 -3 -40 -15 -103 -25 -140
-11 -41 -15 -69 -9 -71 6 -3 6 -8 1 -15 -5 -7 -12 -28 -15 -47 -3 -19 -11 -48
-17 -65 -7 -16 -14 -41 -16 -54 -2 -14 -10 -29 -19 -33 -8 -5 -15 -20 -15 -34
0 -13 -16 -73 -35 -133 -19 -59 -35 -118 -35 -130 0 -12 -9 -39 -20 -61 -11
-22 -20 -46 -20 -53 0 -8 -9 -26 -20 -40 -11 -14 -20 -36 -20 -50 0 -49 -13
-90 -31 -94 -23 -6 -39 -54 -33 -95 5 -28 0 -39 -35 -76 -23 -24 -41 -48 -41
-53 0 -6 -9 -28 -19 -49 -19 -40 -19 -40 1 -29 19 10 20 9 14 -17 -7 -30 -33
-57 -46 -49 -5 3 -11 -7 -14 -21 -4 -14 -17 -39 -29 -56 -17 -23 -19 -31 -8
-37 15 -10 4 -36 -28 -65 -11 -10 -18 -23 -15 -28 3 -5 -1 -19 -9 -31 -8 -13
-12 -37 -9 -58 2 -20 -1 -40 -7 -43 -6 -4 -8 -20 -4 -37 4 -21 2 -29 -7 -27
-7 2 -17 -11 -22 -29 -5 -18 -17 -37 -29 -43 -11 -6 -17 -16 -13 -21 10 -17
-27 -49 -58 -49 -22 0 -44 -14 -87 -55 -32 -30 -63 -55 -69 -55 -7 0 -12 -4
-12 -10 0 -5 -9 -10 -20 -10 -11 0 -20 -4 -20 -8 0 -8 -43 -29 -100 -51 -32
-12 -80 -46 -80 -56 0 -5 -9 -16 -20 -23 -11 -7 -20 -19 -20 -27 0 -8 -18 -19
-42 -26 -24 -7 -54 -22 -68 -35 -40 -36 -107 -66 -114 -51 -4 6 -4 2 -2 -10 3
-15 -1 -23 -10 -23 -8 0 -31 -15 -51 -33 -21 -19 -46 -37 -55 -40 -10 -4 -18
-12 -18 -18 0 -8 -4 -8 -13 -1 -10 8 -20 4 -41 -18 -15 -17 -36 -30 -47 -30
-10 0 -56 -19 -101 -41 -46 -23 -92 -43 -103 -45 -60 -11 -95 -29 -95 -51 0
-16 -8 -24 -33 -31 -19 -5 -57 -26 -85 -46 -29 -20 -70 -43 -92 -52 -22 -9
-40 -20 -40 -25 0 -5 -11 -9 -25 -9 -14 0 -25 -5 -25 -11 0 -6 -7 -8 -16 -5
-41 16 -67 19 -60 7 6 -8 1 -10 -16 -6 -17 4 -32 -2 -56 -25 -18 -16 -44 -30
-58 -30 -14 0 -39 -8 -57 -17 -33 -18 -39 -19 -142 -28 -33 -3 -67 -8 -75 -11
-31 -13 -294 -19 -312 -8 -13 8 -66 -28 -72 -49 -2 -10 -10 -16 -15 -12 -6 3
-9 10 -6 15 9 14 -101 23 -198 17 -55 -4 -93 -11 -98 -18 -6 -10 -11 -10 -22
0 -9 7 -18 8 -21 3 -3 -5 -26 -8 -50 -6 -25 2 -48 0 -51 -6 -3 -5 -48 -10 -98
-11 -51 0 -101 -4 -111 -8 -12 -5 -31 -2 -49 7 -15 8 -40 12 -53 9 -14 -2 -62
2 -106 10 -58 10 -83 10 -88 3 -5 -7 -11 -6 -20 4 -8 10 -18 13 -27 7 -9 -5
-35 -3 -62 4 -25 7 -77 21 -114 30 -37 10 -84 28 -104 42 -19 13 -40 22 -47
20 -6 -3 -18 1 -26 9 -8 7 -27 16 -42 19 -27 7 -28 6 -28 -31 l-1 -39 -25 30
c-13 17 -29 36 -35 43 -6 7 -22 10 -40 7 -21 -4 -31 -1 -35 10 -4 8 -14 15
-24 15 -11 0 -21 4 -25 9 -3 5 -19 12 -36 16 -41 9 -69 25 -104 57 -16 16 -33
28 -37 28 -5 0 -8 6 -8 14 0 16 -27 29 -35 17 -4 -7 -86 27 -115 47 -2 1 -4
15 -5 30 0 22 -5 28 -27 30 -16 2 -28 8 -28 13 0 5 -8 9 -18 9 -9 0 -26 12
-37 26 -10 14 -32 32 -47 40 -15 8 -28 19 -28 25 0 6 -6 17 -14 25 -8 7 -16
19 -18 26 -4 10 -10 10 -32 0 -15 -7 -25 -8 -21 -2 8 12 -28 80 -54 102 -12
10 -21 25 -21 33 0 8 -3 14 -7 13 -15 -5 -72 63 -66 77 3 8 0 15 -5 15 -6 0
-14 9 -17 21 -7 22 -145 164 -157 161 -11 -3 -47 53 -52 79 -3 13 -5 45 -5 70
-1 36 -7 54 -29 79 -18 20 -27 40 -25 54 2 11 -1 41 -7 66 -6 25 -12 52 -14
62 -1 9 -7 22 -13 30 -6 7 -10 24 -9 38 1 14 -1 30 -5 35 -8 11 6 200 16 215
3 6 -2 10 -13 10 -15 0 -19 7 -19 43 0 24 -3 49 -8 56 -4 8 -8 36 -9 63 -2 40
2 52 18 64 11 8 16 14 11 14 -5 0 -4 5 2 11 9 9 8 18 -4 36 -17 25 -19 41 -27
148 -5 61 -12 110 -16 110 -1 0 -4 34 -6 75 -4 76 -21 107 -51 96 -7 -3 -15
-1 -18 4 -4 6 -2 10 3 10 5 0 12 9 15 19 6 25 -18 142 -32 150 -5 4 -12 24
-14 46 -3 25 -9 40 -18 40 -7 0 -16 15 -20 32 -3 18 -15 45 -25 60 -10 16 -17
36 -15 46 1 10 -2 24 -7 30 -5 7 -17 33 -27 60 -10 26 -22 47 -27 47 -5 0 -7
4 -3 9 3 6 -1 13 -8 18 -8 4 -21 22 -29 38 -9 17 -28 53 -42 80 -30 57 -64
105 -77 105 -4 0 -15 -10 -23 -22z m424 -1928 c0 -5 -2 -10 -4 -10 -3 0 -8 5
-11 10 -3 6 -1 10 4 10 6 0 11 -4 11 -10z m71 -93 c-10 -9 -11 -8 -5 6 3 10 9
15 12 12 3 -3 0 -11 -7 -18z m5140 -130 c-8 -8 -11 -7 -11 4 0 20 13 34 18 19
3 -7 -1 -17 -7 -23z"/>
<path d="M1335 4360 c3 -5 10 -10 16 -10 5 0 9 5 9 10 0 6 -7 10 -16 10 -8 0
-12 -4 -9 -10z"/>
<path d="M11786 4324 c-5 -14 -4 -15 9 -4 17 14 19 20 6 20 -5 0 -12 -7 -15
-16z"/>
<path d="M1520 4180 c0 -5 5 -10 10 -10 6 0 10 5 10 10 0 6 -4 10 -10 10 -5 0
-10 -4 -10 -10z"/>
<path d="M7263 4078 c-4 -7 -6 -21 -5 -30 2 -9 -4 -28 -13 -42 -17 -25 -16
-26 12 -37 15 -6 35 -15 44 -19 20 -10 65 32 54 49 -3 6 1 14 9 17 22 9 20 21
-9 49 -26 27 -78 34 -92 13z"/>
<path d="M5838 4020 c-9 -6 -37 -8 -62 -6 -25 3 -48 1 -51 -4 -3 -5 -12 -7
-21 -3 -8 3 -24 -3 -34 -12 -11 -10 -23 -16 -26 -12 -3 3 -16 2 -28 -3 -12 -4
-29 -4 -38 1 -12 7 -27 3 -50 -11 -41 -25 -56 -25 -81 -2 -15 12 -21 14 -24 5
-3 -7 -16 -13 -29 -13 -17 0 -24 6 -24 20 0 17 -4 18 -24 10 -15 -5 -38 -5
-62 2 -28 7 -39 7 -42 -1 -3 -8 -9 -8 -23 -1 -13 8 -29 6 -55 -5 -20 -8 -45
-15 -55 -15 -11 0 -29 -12 -42 -26 -12 -14 -32 -30 -45 -35 -13 -5 -20 -13
-17 -19 3 -5 0 -7 -8 -4 -9 3 -16 -3 -20 -15 -3 -13 -13 -21 -27 -21 -17 0
-20 -4 -15 -20 4 -12 1 -28 -6 -36 -6 -8 -12 -24 -13 -36 -1 -13 -13 -27 -33
-37 -18 -9 -32 -20 -31 -26 3 -47 -13 -70 -41 -56 -19 10 -21 9 -21 -11 0 -23
-51 -78 -71 -78 -6 0 -5 -9 1 -20 9 -17 8 -20 -7 -20 -18 0 -44 -23 -52 -45
-2 -5 -6 -15 -8 -22 -2 -6 -15 -14 -29 -17 -13 -4 -24 -11 -24 -17 0 -14 -26
-39 -39 -39 -18 0 -12 -26 10 -46 15 -13 19 -26 15 -45 -3 -19 1 -32 14 -44
11 -10 20 -14 20 -9 0 5 6 2 13 -6 34 -42 102 -63 118 -38 6 10 11 9 21 -3 7
-9 20 -19 28 -22 12 -4 12 -6 -4 -12 -10 -4 -21 -4 -25 1 -15 22 -42 14 -52
-14 -8 -22 -24 -36 -67 -56 l-57 -26 52 0 c52 0 52 0 47 -28 -4 -22 0 -31 23
-48 15 -11 43 -26 61 -33 20 -8 31 -19 28 -27 -3 -7 2 -13 12 -13 36 0 107
-20 110 -30 2 -6 14 -8 28 -5 19 5 23 3 19 -9 -4 -9 1 -16 14 -20 14 -3 18 -1
14 9 -3 8 0 14 6 14 6 0 11 -9 11 -20 0 -10 9 -24 20 -30 16 -9 20 -8 20 5 0
8 4 15 9 15 5 0 7 -8 4 -18 -2 -10 3 -24 11 -31 9 -8 16 -10 16 -5 0 5 7 -2
16 -14 9 -13 20 -19 27 -15 19 12 31 10 45 -9 7 -10 21 -18 31 -18 11 0 21 -6
24 -14 3 -7 20 -16 39 -20 18 -4 42 -8 53 -10 11 -3 26 -5 33 -5 7 -1 10 -5 7
-11 -7 -11 38 -14 48 -3 13 12 65 9 60 -5 -3 -8 0 -10 10 -6 9 3 22 2 29 -2
19 -12 29 -12 65 2 17 7 40 10 51 8 10 -3 24 2 32 11 12 14 14 14 31 -1 11
-10 21 -15 22 -13 2 2 12 15 21 29 18 25 18 25 13 2 -5 -20 -2 -22 16 -16 12
4 34 8 48 9 32 2 49 12 49 31 0 8 4 14 9 14 15 0 20 -27 8 -39 -6 -6 -8 -11
-3 -11 4 0 14 7 23 15 11 11 19 13 27 5 16 -12 26 -3 26 24 1 21 1 21 15 2 14
-18 15 -17 15 22 0 24 5 42 11 42 7 0 9 -12 5 -35 -8 -40 1 -78 15 -70 5 4 9
11 9 16 0 6 -4 7 -10 4 -13 -8 -13 6 0 25 7 10 12 12 18 4 11 -17 44 -13 37 4
-16 42 -17 64 -4 60 8 -2 15 -17 17 -32 4 -32 25 -30 30 2 3 17 10 22 33 22
22 0 30 5 35 26 4 15 12 23 20 20 7 -3 16 4 19 15 8 24 28 13 22 -12 -4 -15 0
-19 19 -19 14 0 24 5 23 13 -3 28 2 39 17 33 8 -3 12 -2 9 3 -3 5 -1 12 5 16
19 12 10 22 -15 17 -14 -2 -22 -8 -20 -12 9 -15 -14 -21 -33 -9 -14 9 -25 8
-50 -5 -32 -16 -82 -22 -82 -8 1 15 29 44 38 38 6 -3 13 1 16 10 5 13 9 14 21
4 12 -10 15 -9 15 8 0 12 5 24 12 28 8 5 9 0 5 -15 -5 -19 -3 -20 10 -9 9 7
23 13 31 13 9 0 19 11 23 25 7 24 13 11 10 -20 -1 -12 1 -11 9 2 6 9 17 15 25
12 10 -4 16 5 20 33 10 59 13 62 14 11 1 -26 6 -50 11 -53 7 -4 9 3 5 22 -3
15 -2 22 1 16 3 -7 12 -13 21 -13 14 0 13 11 -4 58 -10 25 8 11 19 -15 11 -28
12 -28 16 -4 3 18 9 22 26 19 19 -4 22 -1 18 19 -2 13 1 23 7 23 6 0 11 7 11
16 0 8 5 12 11 8 6 -3 9 -15 6 -25 -3 -12 0 -19 9 -19 8 0 14 10 14 26 0 14 4
23 9 20 5 -3 11 3 14 14 4 15 0 20 -14 20 -10 0 -18 -3 -18 -7 3 -20 -2 -27
-11 -13 -7 12 -12 12 -34 1 -15 -8 -37 -11 -56 -8 -26 6 -32 3 -42 -18 -6 -13
-15 -22 -19 -19 -10 6 -41 -10 -64 -33 -11 -11 -39 -18 -76 -21 -41 -3 -59 -9
-59 -18 0 -8 -3 -13 -7 -12 -5 1 -21 -6 -36 -16 -27 -18 -28 -18 -51 3 l-22
21 -20 -25 c-16 -20 -31 -25 -79 -28 -33 -2 -70 0 -82 4 -18 7 -23 5 -23 -7 0
-13 -3 -14 -14 -5 -11 9 -19 9 -35 -1 -16 -10 -27 -10 -50 -1 -24 9 -33 8 -42
-4 -8 -9 -21 -12 -33 -8 -12 3 -32 8 -46 9 -14 2 -30 4 -37 4 -6 1 -19 9 -28
18 -21 21 -44 11 -56 -26 -6 -16 -15 -30 -19 -30 -10 0 -8 20 3 38 5 7 3 12
-7 12 -9 0 -16 -5 -16 -12 0 -6 -3 -8 -7 -4 -5 4 -8 13 -8 18 0 6 -12 12 -27
12 -15 1 -34 10 -41 20 -12 16 -17 17 -37 6 -17 -9 -24 -9 -30 0 -4 6 -28 13
-53 15 -38 2 -53 10 -80 39 -21 21 -37 32 -43 26 -13 -13 -31 1 -39 31 -5 19
-3 26 9 26 9 0 16 -5 16 -11 0 -6 7 -2 15 8 15 19 15 19 15 -4 0 -23 0 -23 16
-4 14 17 15 17 10 1 -7 -21 11 -43 37 -45 9 -1 24 -3 32 -4 8 -1 15 -7 15 -14
0 -7 10 -11 25 -9 15 1 29 -4 35 -14 8 -15 9 -14 15 1 6 16 9 16 37 2 17 -9
37 -12 46 -8 25 11 46 10 55 -1 6 -6 10 -6 14 3 2 6 9 12 14 12 6 0 8 -3 6 -7
-8 -13 47 -12 56 0 5 7 6 4 3 -8 -10 -37 29 -28 50 10 10 19 20 33 22 30 2 -2
-2 -14 -9 -27 -15 -28 -21 -70 -9 -63 5 3 7 12 4 19 -3 8 -1 17 5 21 6 3 11
-1 11 -10 0 -30 20 -4 21 28 l2 32 6 -35 c5 -28 8 -31 14 -16 6 15 10 16 22 6
12 -10 15 -10 15 2 0 7 10 22 21 32 21 18 22 18 17 -8 -3 -14 -1 -26 3 -26 5
0 9 7 9 15 0 7 7 18 16 23 10 6 14 14 9 22 -6 9 -9 9 -15 0 -5 -8 -9 -5 -13 9
-3 13 -1 19 5 15 6 -4 13 -1 17 5 6 8 15 9 34 2 22 -9 25 -8 20 7 -3 9 4 5 14
-11 19 -26 37 -28 27 -2 -3 7 -1 16 4 19 6 3 12 -1 16 -9 9 -24 24 -17 31 15
4 17 11 30 16 30 5 0 7 -11 3 -25 -5 -20 -3 -24 10 -19 9 3 16 10 16 15 0 12
37 11 45 -1 3 -5 12 -10 18 -9 9 0 9 2 1 5 -18 7 -4 44 16 44 10 0 21 6 24 13
3 6 5 0 3 -15 -3 -19 1 -28 15 -31 13 -4 18 0 18 13 0 23 17 35 22 18 3 -7 7
-1 10 13 3 17 0 26 -9 26 -7 0 -13 -4 -13 -9 0 -4 -6 -8 -13 -8 -7 0 -13 13
-14 33 -1 28 -1 29 6 7 4 -16 9 -21 14 -13 4 7 14 10 22 7 9 -4 18 3 24 17 9
23 15 12 12 -21 -2 -13 0 -13 8 -1 8 12 12 13 25 1 14 -11 16 -10 11 3 -4 8
-2 18 4 22 6 3 11 17 11 31 0 13 4 24 9 24 4 0 6 -10 4 -22 -2 -13 3 -32 11
-43 9 -11 16 -14 16 -7 0 6 7 12 15 12 7 0 18 8 24 17 8 15 11 15 26 3 9 -7
15 -9 14 -4 -4 21 2 32 20 37 14 3 17 0 14 -14 -4 -13 0 -19 11 -19 9 0 16 7
16 16 0 8 4 13 9 10 5 -3 16 10 26 30 9 20 19 33 22 31 2 -3 -3 -19 -12 -37
-16 -31 -16 -31 5 -20 11 6 24 8 29 6 5 -3 22 1 37 9 31 16 45 12 26 -7 -16
-16 -15 -28 3 -28 8 0 15 7 15 15 0 11 7 14 27 10 16 -2 29 -9 31 -15 2 -5 11
-10 19 -10 9 0 13 -6 10 -14 -9 -22 26 -56 50 -50 11 3 24 1 27 -5 4 -6 16
-11 27 -11 11 0 22 -7 25 -15 5 -11 10 -13 19 -5 6 5 15 7 18 3 4 -3 7 -1 7 6
0 7 4 10 9 7 10 -7 63 18 56 26 -3 2 5 4 18 3 12 -1 25 3 29 9 5 8 8 7 8 -1 0
-7 5 -13 11 -13 6 0 9 9 6 20 -3 11 -1 20 4 20 5 0 9 9 9 19 0 11 5 21 11 23
5 2 7 11 3 21 -3 10 -12 16 -19 13 -7 -2 -18 1 -24 7 -8 8 -11 8 -11 -2 0 -15
-24 -41 -39 -41 -5 0 -13 10 -17 22 -8 28 -34 48 -51 41 -7 -3 -13 0 -13 5 0
6 -13 9 -30 7 -22 -3 -33 1 -40 16 -6 11 -15 17 -20 14 -17 -11 -59 48 -60 82
0 27 -4 32 -30 38 -18 4 -30 13 -30 23 -1 9 -12 26 -26 37 -57 44 -72 62 -95
113 -15 33 -29 50 -37 47 -13 -5 -30 5 -59 37 -9 9 -21 14 -26 11 -6 -4 -7 8
-3 31 6 29 4 36 -9 36 -21 0 -53 19 -87 53 -15 15 -32 27 -38 27 -6 0 -24 14
-39 31 l-28 31 -23 -29 c-13 -15 -20 -20 -17 -11 10 27 -47 74 -76 62 -8 -3
-22 2 -31 11 -9 9 -16 12 -16 8 0 -10 -68 -11 -85 -2 -18 10 -80 9 -97 -1z
m159 -82 c-3 -8 -6 -5 -6 6 -1 11 2 17 5 13 3 -3 4 -12 1 -19z m-303 -33 c4
-10 -1 -15 -16 -15 -17 0 -18 2 -8 15 7 8 14 15 15 15 2 0 5 -7 9 -15z m-466
-16 c12 0 22 -4 22 -10 0 -7 10 -9 24 -5 14 3 28 1 32 -6 4 -6 3 -8 -4 -4 -5
3 -12 1 -14 -6 -7 -19 -38 -18 -48 3 -10 18 -12 18 -36 3 -23 -16 -26 -15 -44
1 -16 14 -18 20 -8 27 7 4 22 6 33 2 11 -3 30 -5 43 -5z m408 -4 c10 -8 14
-15 8 -15 -5 0 -19 7 -30 15 -10 8 -14 15 -8 15 5 0 19 -7 30 -15z m104 5 c0
-5 -7 -10 -16 -10 -8 0 -12 5 -9 10 3 6 10 10 16 10 5 0 9 -4 9 -10z m-330
-15 c0 -8 -9 -15 -20 -15 -22 0 -27 15 -7 23 21 9 27 7 27 -8z m655 -35 c3 -5
-1 -10 -9 -10 -9 0 -16 5 -16 10 0 6 4 10 9 10 6 0 13 -4 16 -10z m62 -56 c-9
-9 -28 6 -21 18 4 6 10 6 17 -1 6 -6 8 -13 4 -17z m33 -15 c0 -5 -4 -9 -10 -9
-5 0 -10 7 -10 16 0 8 5 12 10 9 6 -3 10 -10 10 -16z m-330 -14 c11 -13 10
-14 -4 -9 -9 3 -16 10 -16 15 0 13 6 11 20 -6z m370 5 c0 -5 -4 -10 -10 -10
-5 0 -10 5 -10 10 0 6 5 10 10 10 6 0 10 -4 10 -10z m-210 -36 c0 -8 -4 -14
-10 -14 -5 0 -10 9 -10 21 0 11 5 17 10 14 6 -3 10 -13 10 -21z m-819 -16 c7
-12 2 -19 -21 -28 -17 -7 -30 -16 -30 -21 0 -4 -9 -7 -20 -6 -10 1 -17 3 -15
6 3 2 1 9 -5 15 -10 14 -2 29 23 43 26 14 58 9 68 -9z m269 -13 c0 -8 -4 -15
-10 -15 -5 0 -7 7 -4 15 4 8 8 15 10 15 2 0 4 -7 4 -15z m1000 5 c0 -5 -5 -10
-11 -10 -5 0 -7 5 -4 10 3 6 8 10 11 10 2 0 4 -4 4 -10z m-1379 -27 c13 -16
12 -17 -3 -4 -17 13 -22 21 -14 21 2 0 10 -8 17 -17z m344 -3 c-3 -4 -20 -11
-40 -14 -19 -4 -40 -15 -47 -24 -7 -9 -26 -28 -43 -42 -39 -32 -42 -54 -10
-68 36 -17 48 -15 79 9 14 11 26 17 26 12 0 -4 13 7 30 25 16 18 34 30 40 27
5 -3 10 2 11 12 0 10 3 13 6 6 7 -19 23 -16 24 5 1 15 2 15 6 0 5 -20 30 -27
60 -17 14 5 25 3 32 -5 6 -8 22 -11 37 -8 16 3 29 -1 35 -9 6 -11 9 -10 14 4
5 12 11 14 25 7 9 -5 20 -6 24 -3 3 3 6 1 6 -6 0 -7 4 -9 10 -6 20 12 80 15
80 3 0 -6 10 -3 21 8 22 19 22 19 11 -1 -9 -17 -7 -20 16 -22 15 -1 33 3 40 9
6 6 12 6 12 1 0 -5 -6 -15 -12 -22 -9 -10 -9 -12 -1 -7 6 3 14 2 18 -4 4 -6
18 -2 37 11 30 22 30 22 19 1 -6 -11 -16 -24 -21 -27 -6 -3 -10 -14 -9 -23 0
-12 4 -9 11 8 9 21 12 22 15 8 5 -22 23 -24 23 -4 0 8 5 18 11 22 8 4 9 -1 4
-17 -8 -24 -7 -24 13 -6 20 18 20 18 27 -2 6 -19 34 -35 65 -36 8 0 14 -7 12
-16 -2 -12 5 -15 30 -11 18 3 30 1 26 -3 -11 -11 23 -34 50 -35 12 0 22 -4 22
-10 0 -5 7 -7 15 -4 10 4 15 0 15 -11 0 -17 1 -17 20 0 22 19 28 7 8 -14 -11
-10 -10 -11 5 -6 10 5 17 2 17 -5 0 -8 9 -11 26 -7 23 4 24 3 10 -11 -12 -13
-18 -13 -31 -2 -13 11 -18 9 -34 -8 -11 -14 -21 -18 -27 -12 -6 6 -23 3 -47
-9 -28 -14 -51 -18 -92 -15 -46 4 -55 2 -55 -11 0 -9 -4 -14 -9 -11 -5 4 -23
-2 -40 -11 -29 -17 -31 -17 -46 2 -12 14 -18 16 -21 8 -3 -7 -12 -13 -19 -13
-7 0 -15 -5 -17 -11 -3 -10 -37 -18 -95 -22 -21 -1 -33 -7 -33 -16 0 -16 -44
-10 -97 15 -21 11 -37 13 -41 7 -4 -5 -31 -9 -61 -8 -47 0 -55 4 -67 28 -12
21 -18 25 -32 18 -24 -13 -146 -1 -195 18 -40 16 -44 14 -55 -16 -6 -16 -11
-21 -11 -11 -1 9 -11 20 -23 24 -29 9 -128 13 -128 5 0 -3 -18 -6 -40 -6 -31
-1 -36 1 -23 9 10 5 21 13 24 18 3 5 16 11 30 13 13 3 25 9 27 14 2 6 11 7 20
4 15 -6 16 -5 2 12 -11 14 -11 17 -1 11 17 -11 33 12 25 37 -3 9 -1 17 4 17 5
0 6 14 4 31 -3 22 -1 30 7 25 6 -4 11 -14 11 -22 0 -8 5 -14 11 -14 7 0 8 7 4
18 -4 9 -8 22 -9 29 -3 17 -16 29 -16 15 0 -6 -7 -9 -15 -6 -8 4 -15 1 -15 -5
0 -6 -4 -11 -10 -11 -16 0 -11 16 14 43 15 16 27 22 33 16 6 -6 8 1 5 20 -4
31 18 67 33 53 5 -4 6 0 2 9 -4 12 0 17 16 18 46 1 62 4 68 13 3 5 17 10 30
12 13 1 33 7 44 13 20 12 39 8 30 -7z m-327 -30 c8 0 8 -8 1 -30 -6 -16 -15
-30 -20 -30 -5 0 -9 -6 -9 -14 0 -8 -7 -17 -16 -20 -11 -4 -15 -2 -11 8 3 7 0
19 -6 26 -7 7 -7 10 -1 7 6 -3 18 3 28 14 16 20 16 22 0 47 -17 27 -17 27 3
10 11 -10 25 -18 31 -18z m-168 -80 c0 -5 -4 -10 -10 -10 -5 0 -10 -7 -10 -15
0 -16 -12 -20 -23 -8 -8 7 21 43 35 43 4 0 8 -4 8 -10z m1687 -36 c-3 -3 -12
-4 -19 -1 -8 3 -5 6 6 6 11 1 17 -2 13 -5z m-1732 -24 c3 -5 -1 -10 -9 -10 -9
0 -16 5 -16 10 0 6 4 10 9 10 6 0 13 -4 16 -10z m-37 -42 c-5 -16 -48 -24 -48
-9 0 8 17 16 43 20 5 0 7 -5 5 -11z m-68 -29 c0 7 5 9 11 5 8 -4 8 -9 0 -17
-8 -8 -16 -6 -29 8 -16 18 -16 18 1 6 12 -10 17 -10 17 -2z m-5 -57 c17 -31
25 -37 50 -35 16 2 37 12 45 23 l16 21 18 -20 c18 -20 18 -21 -8 -31 -15 -5
-36 -10 -47 -10 -10 0 -19 -5 -19 -11 0 -7 -9 -9 -22 -6 -12 4 -28 1 -35 -5
-8 -6 -23 -7 -40 -2 -16 4 -34 8 -42 9 -23 0 -24 22 -1 28 11 3 20 13 20 25 0
11 7 23 16 26 9 3 14 13 11 21 -12 29 19 4 38 -33z m1685 39 c3 -1 -3 -6 -13
-12 -17 -10 -37 -5 -37 10 0 6 26 7 50 2z m10 -71 c-6 -11 -16 -20 -22 -20 -6
0 -3 9 7 20 10 11 20 20 22 20 2 0 -1 -9 -7 -20z m-140 -81 c0 -10 -4 -19 -10
-19 -5 0 -10 12 -10 26 0 14 4 23 10 19 6 -3 10 -15 10 -26z m-1170 -51 c0
-19 -2 -20 -10 -8 -13 19 -13 30 0 30 6 0 10 -10 10 -22z m111 -18 c9 13 10
12 5 -2 -6 -20 10 -25 17 -5 3 6 6 8 6 2 0 -5 -3 -16 -8 -24 -7 -10 -12 -10
-30 5 -11 10 -21 23 -21 29 0 5 5 3 10 -5 9 -13 11 -13 21 0z m389 -27 c-11
-17 -11 -17 -6 0 3 10 6 24 7 30 0 9 2 9 5 0 3 -7 0 -20 -6 -30z m-250 -11 c0
-10 4 -10 23 -1 24 13 68 19 61 8 -2 -4 6 -9 19 -13 35 -9 77 -7 77 4 0 6 5
10 11 10 8 0 8 -4 -1 -15 -18 -21 -80 -31 -92 -14 -8 12 -9 11 -6 -1 6 -20
-13 -38 -34 -32 -11 3 -18 14 -18 29 0 21 -2 23 -15 13 -20 -17 -113 0 -101
18 8 13 76 8 76 -6z m364 -71 c-6 -6 -24 19 -24 34 1 6 7 1 15 -9 8 -11 12
-22 9 -25z m-797 -123 c-3 -8 -6 -5 -6 6 -1 11 2 17 5 13 3 -3 4 -12 1 -19z
m43 -8 c0 -5 -5 -10 -11 -10 -5 0 -7 5 -4 10 3 6 8 10 11 10 2 0 4 -4 4 -10z
m292 -12 c-7 -7 -12 -8 -12 -2 0 14 12 26 19 19 2 -3 -1 -11 -7 -17z m148 -23
c0 -14 -40 -38 -49 -29 -7 7 21 34 30 28 5 -3 9 0 9 5 0 6 2 11 5 11 3 0 5 -7
5 -15z m-70 -26 c0 -6 -4 -7 -10 -4 -5 3 -10 11 -10 16 0 6 5 7 10 4 6 -3 10
-11 10 -16z m684 -60 c-10 -11 -25 -19 -33 -18 -9 1 -23 0 -31 -4 -27 -9 -55
-18 -60 -18 -3 0 -13 -7 -22 -16 -20 -18 -139 -26 -176 -12 -18 7 -24 5 -30
-9 -4 -9 -18 -18 -32 -19 -14 -2 -38 -4 -55 -6 -37 -4 -65 9 -65 28 0 16 -35
21 -44 6 -3 -4 -24 -5 -46 -1 -22 4 -40 5 -40 2 0 -2 -6 0 -12 6 -7 6 -31 14
-53 18 -37 7 -38 7 -15 17 36 14 83 16 98 4 9 -7 17 -5 28 9 11 14 14 15 11 3
-8 -25 74 -20 83 5 6 19 7 19 12 -2 3 -12 1 -23 -6 -25 -6 -2 4 -4 22 -4 17 0
32 4 32 9 0 4 7 8 15 8 8 0 15 -9 15 -20 0 -11 5 -20 11 -20 6 0 8 8 4 19 -3
11 -1 22 5 26 5 3 10 1 10 -4 0 -6 7 -11 15 -11 8 0 15 8 15 18 0 13 2 14 9 3
5 -7 14 -10 20 -7 6 4 9 12 6 17 -4 5 -2 9 3 9 6 0 13 -7 16 -16 4 -10 16 -14
33 -13 16 2 33 0 40 -4 6 -4 15 -2 18 4 4 5 13 8 21 5 8 -3 14 0 14 7 0 8 4 6
10 -3 5 -8 10 -11 10 -6 0 5 7 2 17 -5 13 -11 17 -11 20 -1 3 6 13 12 23 12
10 0 22 5 26 11 4 8 9 7 14 -2 6 -9 14 -6 32 14 13 14 25 21 27 16 1 -6 -5
-19 -15 -30z m-259 1 c3 -5 1 -10 -4 -10 -6 0 -11 5 -11 10 0 6 2 10 4 10 3 0
8 -4 11 -10z m-575 -20 c0 -5 -5 -10 -11 -10 -5 0 -7 5 -4 10 3 6 8 10 11 10
2 0 4 -4 4 -10z m477 -112 c-3 -8 -6 -5 -6 6 -1 11 2 17 5 13 3 -3 4 -12 1
-19z"/>
<path d="M11515 3930 c-3 -5 -1 -10 4 -10 6 0 11 5 11 10 0 6 -2 10 -4 10 -3
0 -8 -4 -11 -10z"/>
<path d="M11436 3885 c-15 -19 -24 -40 -21 -45 8 -13 45 -13 45 0 0 5 -8 7
-17 3 -17 -6 -17 -5 -2 13 17 19 34 64 26 64 -3 0 -17 -16 -31 -35z"/>
<path d="M11440 3805 c-11 -13 -10 -14 4 -9 9 3 16 10 16 15 0 13 -6 11 -20
-6z"/>
<path d="M11367 3774 c-8 -8 1 -24 12 -24 4 0 8 7 8 15 0 16 -9 20 -20 9z"/>
<path d="M11287 3723 c-4 -3 -7 -11 -7 -17 0 -6 5 -5 12 2 6 6 9 14 7 17 -3 3
-9 2 -12 -2z"/>
<path d="M300 3670 c0 -5 5 -10 10 -10 6 0 10 5 10 10 0 6 -4 10 -10 10 -5 0
-10 -4 -10 -10z"/>
<path d="M1940 3675 c0 -5 5 -17 10 -25 5 -8 10 -10 10 -5 0 6 -5 17 -10 25
-5 8 -10 11 -10 5z"/>
<path d="M2326 3576 c3 -9 11 -16 16 -16 13 0 5 23 -10 28 -7 2 -10 -2 -6 -12z"/>
<path d="M8490 3430 c0 -5 5 -10 10 -10 6 0 10 5 10 10 0 6 -4 10 -10 10 -5 0
-10 -4 -10 -10z"/>
<path d="M10916 3414 c-15 -14 -26 -27 -24 -29 2 -3 17 9 33 25 35 36 30 39
-9 4z"/>
<path d="M11050 3326 c0 -2 7 -6 15 -10 8 -3 15 -1 15 4 0 6 -7 10 -15 10 -8
0 -15 -2 -15 -4z"/>
<path d="M3530 3299 c0 -5 5 -7 10 -4 6 3 10 8 10 11 0 2 -4 4 -10 4 -5 0 -10
-5 -10 -11z"/>
<path d="M6465 3250 c-3 -5 -1 -10 4 -10 6 0 11 5 11 10 0 6 -2 10 -4 10 -3 0
-8 -4 -11 -10z"/>
<path d="M6251 3223 c-1 -12 4 -25 9 -28 12 -7 12 2 0 30 -8 19 -9 19 -9 -2z"/>
<path d="M2044 3169 c1 -38 2 -40 28 -37 19 3 29 -1 31 -11 4 -14 5 -14 6 0 0
9 -6 22 -14 29 -10 9 -15 9 -15 1 0 -6 -5 -11 -11 -11 -6 0 -8 8 -4 19 6 20
-3 51 -15 51 -4 0 -7 -18 -6 -41z"/>
<path d="M9102 3160 c-8 -13 -8 -20 -2 -20 6 0 13 7 17 15 9 24 -1 27 -15 5z"/>
<path d="M6190 3150 c0 -5 5 -10 11 -10 5 0 7 5 4 10 -3 6 -8 10 -11 10 -2 0
-4 -4 -4 -10z"/>
<path d="M6580 3080 c0 -5 5 -10 10 -10 6 0 10 5 10 10 0 6 -4 10 -10 10 -5 0
-10 -4 -10 -10z"/>
<path d="M2062 3059 c2 -7 10 -15 17 -17 8 -3 12 1 9 9 -2 7 -10 15 -17 17 -8
3 -12 -1 -9 -9z"/>
<path d="M5815 3020 c-3 -5 -1 -10 4 -10 6 0 11 5 11 10 0 6 -2 10 -4 10 -3 0
-8 -4 -11 -10z"/>
<path d="M2031 2974 c0 -11 3 -14 6 -6 3 7 2 16 -1 19 -3 4 -6 -2 -5 -13z"/>
<path d="M2096 2973 c-6 -14 -5 -15 5 -6 7 7 10 15 7 18 -3 3 -9 -2 -12 -12z"/>
<path d="M9329 2853 c-13 -16 -12 -17 4 -4 16 13 21 21 13 21 -2 0 -10 -8 -17
-17z"/>
<path d="M6357 2853 c-12 -12 -7 -22 8 -17 8 4 15 10 15 15 0 11 -14 12 -23 2z"/>
<path d="M3590 2770 c0 -5 5 -10 11 -10 5 0 7 5 4 10 -3 6 -8 10 -11 10 -2 0
-4 -4 -4 -10z"/>
<path d="M1990 2709 c0 -5 5 -7 10 -4 6 3 10 8 10 11 0 2 -4 4 -10 4 -5 0 -10
-5 -10 -11z"/>
<path d="M3590 2660 c0 -5 5 -10 11 -10 5 0 7 5 4 10 -3 6 -8 10 -11 10 -2 0
-4 -4 -4 -10z"/>
<path d="M9160 2650 c-9 -6 -10 -10 -3 -10 6 0 15 5 18 10 8 12 4 12 -15 0z"/>
<path d="M12205 2650 c-3 -5 -3 -10 1 -10 4 0 -1 -9 -11 -20 -19 -21 -45 -27
-45 -10 0 6 -5 10 -11 10 -6 0 -9 -6 -6 -12 2 -7 -3 -22 -12 -32 -15 -18 -15
-18 5 -8 11 6 30 8 42 5 16 -4 22 -1 22 10 0 23 38 32 59 13 12 -11 34 -16 62
-15 53 2 109 -9 109 -22 0 -5 5 -9 11 -9 13 0 59 -47 59 -60 0 -5 27 -25 60
-46 49 -30 62 -44 70 -74 6 -21 16 -43 24 -49 8 -7 17 -27 20 -46 4 -19 11
-35 16 -35 5 0 7 -10 5 -22 -3 -12 1 -31 9 -43 15 -23 19 -85 5 -85 -6 0 -6
-7 -2 -17 10 -21 10 -44 1 -58 -5 -9 -32 -101 -43 -149 -3 -11 -8 -22 -13 -25
-19 -13 -42 -75 -32 -85 14 -14 12 -43 -4 -49 -7 -3 -16 -18 -19 -34 -14 -69
-21 -89 -35 -106 -8 -9 -16 -26 -17 -37 -2 -29 -45 -70 -73 -70 -22 0 -23 -2
-11 -17 12 -15 12 -16 -3 -10 -14 5 -20 -2 -27 -30 -6 -20 -8 -39 -6 -43 3 -4
-4 -15 -14 -24 -11 -10 -25 -31 -32 -48 -12 -29 -39 -60 -100 -115 -13 -11
-38 -36 -55 -55 -27 -30 -167 -131 -194 -140 -7 -2 -12 -20 -12 -39 0 -32 -3
-36 -27 -36 -38 0 -222 -94 -216 -110 2 -8 -3 -13 -13 -13 -10 0 -27 -7 -39
-15 -12 -9 -26 -15 -30 -14 -20 3 -33 -2 -31 -12 2 -6 -31 -29 -72 -50 -41
-21 -79 -44 -85 -51 -5 -7 -22 -12 -37 -10 -15 2 -38 -4 -52 -14 -14 -9 -26
-13 -26 -9 0 4 -6 3 -12 -2 -7 -6 -34 -16 -60 -23 -27 -7 -48 -17 -48 -21 0
-5 -8 -9 -18 -9 -10 0 -22 -4 -27 -9 -16 -15 -221 -81 -253 -81 -17 0 -32 -6
-35 -14 -3 -8 -14 -13 -24 -10 -10 2 -27 -3 -37 -11 -19 -15 -19 -15 5 -41 27
-29 31 -29 174 1 44 10 83 22 87 29 4 6 8 7 8 2 0 -5 6 -3 14 3 8 7 28 13 45
13 17 1 31 5 31 10 0 5 10 8 23 6 26 -2 130 45 170 79 16 12 37 23 47 23 10 0
22 5 25 10 3 6 14 10 23 10 9 0 27 12 39 26 17 20 26 24 36 16 9 -8 21 -5 45
10 34 21 42 31 17 22 -8 -4 -15 -2 -15 4 0 14 22 21 53 15 32 -6 79 21 71 41
-8 20 12 29 37 16 15 -9 24 -9 32 -1 6 6 19 11 29 11 10 0 18 7 18 15 0 10 10
15 30 15 17 0 30 5 30 10 0 6 7 10 15 10 8 0 15 4 15 9 0 12 47 61 53 55 8 -8
47 20 47 33 0 7 8 13 18 13 14 0 15 -2 2 -10 -10 -7 -11 -10 -2 -10 7 0 18 11
24 25 6 14 14 25 17 26 49 5 66 15 122 71 64 62 69 69 69 88 0 5 6 7 14 4 8
-3 16 4 19 17 4 15 11 20 22 16 16 -7 55 44 55 71 0 7 11 28 25 47 14 18 28
43 30 55 6 29 15 39 15 16 0 -9 5 -14 10 -11 6 3 10 16 10 27 0 11 13 33 28
48 16 14 26 32 24 38 -2 7 2 12 10 12 8 0 14 8 15 18 5 53 31 129 50 150 17
19 21 33 19 65 -2 22 -11 46 -20 52 -17 13 -12 25 10 25 8 0 11 -6 8 -14 -3
-8 -1 -17 5 -20 13 -8 53 44 46 62 -3 7 -8 31 -11 53 -6 34 -4 38 10 33 9 -3
16 -17 16 -32 0 -50 10 -14 15 53 2 37 9 72 14 79 5 6 11 32 12 58 2 39 -1 52
-22 74 l-24 26 38 -4 c23 -2 36 0 33 6 -2 6 -9 10 -15 8 -14 -3 -14 15 0 23 6
5 4 12 -8 21 -10 7 -13 14 -6 14 7 0 10 7 7 15 -4 8 -1 15 5 15 27 0 -6 60
-41 73 -9 3 -8 9 7 20 18 14 16 15 -30 28 -26 8 -50 20 -53 27 -5 16 21 15 63
-2 19 -8 35 -11 35 -6 0 4 3 15 6 23 3 8 -2 22 -11 31 -24 23 -42 20 -20 -4
21 -23 16 -25 -20 -8 -24 11 -35 38 -15 38 11 0 1 30 -17 48 -7 7 -13 20 -13
27 0 8 -12 1 -29 -16 -37 -37 -51 -37 -51 0 0 21 6 32 19 36 44 14 -5 50 -61
46 -16 -1 -28 2 -28 8 0 5 -18 23 -40 41 -38 30 -40 30 -64 15 -17 -11 -35
-15 -55 -10 -16 3 -39 2 -49 -4 -15 -8 -23 -7 -32 4 -14 17 -3 38 17 31 8 -3
11 -1 8 4 -8 13 -92 13 -100 0z"/>
<path d="M12400 2650 c0 -5 4 -10 9 -10 6 0 13 5 16 10 3 6 -1 10 -9 10 -9 0
-16 -4 -16 -10z"/>
<path d="M9020 2619 c0 -5 5 -7 10 -4 6 3 10 8 10 11 0 2 -4 4 -10 4 -5 0 -10
-5 -10 -11z"/>
<path d="M12043 2606 c-27 -12 -29 -28 -8 -46 9 -8 15 -8 15 -2 0 6 -6 13 -12
15 -8 4 -7 6 3 6 9 1 20 8 23 17 8 21 6 22 -21 10z"/>
<path d="M1885 2599 c-4 -6 -5 -12 -2 -15 2 -3 7 2 10 11 7 17 1 20 -8 4z"/>
<path d="M10490 2600 c0 -5 5 -10 10 -10 6 0 10 5 10 10 0 6 -4 10 -10 10 -5
0 -10 -4 -10 -10z"/>
<path d="M1865 2559 c-4 -6 -5 -12 -2 -15 2 -3 7 2 10 11 7 17 1 20 -8 4z"/>
<path d="M9006 2556 c3 -9 11 -16 16 -16 13 0 5 23 -10 28 -7 2 -10 -2 -6 -12z"/>
<path d="M11980 2535 c0 -8 4 -15 8 -15 5 0 9 7 9 15 0 8 -4 15 -9 15 -4 0 -8
-7 -8 -15z"/>
<path d="M10395 2391 c-3 -5 -1 -12 5 -16 5 -3 10 1 10 9 0 18 -6 21 -15 7z"/>
<path d="M11659 2363 c-13 -16 -12 -17 4 -4 16 13 21 21 13 21 -2 0 -10 -8
-17 -17z"/>
<path d="M1476 2343 c-6 -14 -5 -15 5 -6 7 7 10 15 7 18 -3 3 -9 -2 -12 -12z"/>
<path d="M12775 2280 c3 -5 8 -10 11 -10 2 0 4 5 4 10 0 6 -5 10 -11 10 -5 0
-7 -4 -4 -10z"/>
<path d="M8635 2180 c-3 -5 -2 -10 4 -10 5 0 13 5 16 10 3 6 2 10 -4 10 -5 0
-13 -4 -16 -10z"/>
<path d="M1355 2109 c-4 -6 -5 -12 -2 -15 2 -3 7 2 10 11 7 17 1 20 -8 4z"/>
<path d="M1252 1958 c5 -15 28 -23 28 -10 0 5 -7 13 -16 16 -10 4 -14 1 -12
-6z"/>
<path d="M1225 1900 c-3 -5 -1 -10 4 -10 6 0 11 5 11 10 0 6 -2 10 -4 10 -3 0
-8 -4 -11 -10z"/>
<path d="M1247 1883 c-15 -14 -6 -25 10 -12 15 12 16 12 10 -3 -7 -20 1 -48
14 -48 5 0 9 16 9 35 0 27 -4 35 -18 35 -10 0 -22 -3 -25 -7z"/>
<path d="M8160 1829 c0 -5 5 -7 10 -4 6 3 10 8 10 11 0 2 -4 4 -10 4 -5 0 -10
-5 -10 -11z"/>
<path d="M10535 1790 c3 -5 11 -10 16 -10 6 0 7 5 4 10 -3 6 -11 10 -16 10 -6
0 -7 -4 -4 -10z"/>
<path d="M10970 1685 c-9 -10 -9 -15 -1 -15 6 0 11 -5 11 -11 0 -6 -7 -9 -15
-5 -17 6 -45 -2 -45 -14 0 -4 16 -8 36 -7 33 1 35 3 30 28 -3 17 0 30 7 33 8
3 8 5 1 5 -6 1 -17 -6 -24 -14z"/>
<path d="M11046 1681 c-4 -7 -5 -15 -2 -18 9 -9 19 4 14 18 -4 11 -6 11 -12 0z"/>
<path d="M1320 1451 c0 -5 5 -13 10 -16 6 -3 10 -2 10 4 0 5 -4 13 -10 16 -5
3 -10 2 -10 -4z"/>
<path d="M12530 1330 c0 -5 4 -10 9 -10 6 0 13 5 16 10 3 6 -1 10 -9 10 -9 0
-16 -4 -16 -10z"/>
<path d="M8820 1305 c0 -15 4 -24 10 -20 6 3 10 12 10 20 0 8 -4 17 -10 20 -6
4 -10 -5 -10 -20z"/>
<path d="M7170 1310 c0 -5 7 -10 15 -10 8 0 15 5 15 10 0 6 -7 10 -15 10 -8 0
-15 -4 -15 -10z"/>
<path d="M5050 1230 c0 -5 7 -10 15 -10 8 0 15 5 15 10 0 6 -7 10 -15 10 -8 0
-15 -4 -15 -10z"/>
<path d="M2655 950 c3 -5 10 -10 16 -10 5 0 9 5 9 10 0 6 -7 10 -16 10 -8 0
-12 -4 -9 -10z"/>
<path d="M11969 693 l-34 -38 38 34 c34 33 42 41 34 41 -2 0 -19 -17 -38 -37z"/>
<path d="M11675 460 c-3 -5 -1 -10 4 -10 6 0 11 5 11 10 0 6 -2 10 -4 10 -3 0
-8 -4 -11 -10z"/>
<path d="M11495 440 c-3 -5 -2 -10 4 -10 5 0 13 5 16 10 3 6 2 10 -4 10 -5 0
-13 -4 -16 -10z"/>
<path d="M11545 390 c-3 -6 1 -7 9 -4 18 7 21 14 7 14 -6 0 -13 -4 -16 -10z"/>
<path d="M11443 359 c-2 -17 1 -18 12 -9 8 7 12 16 9 21 -9 16 -20 10 -21 -12z"/>
<path d="M11355 340 c-3 -5 -2 -10 4 -10 5 0 13 5 16 10 3 6 2 10 -4 10 -5 0
-13 -4 -16 -10z"/>
<path d="M11340 309 c0 -6 7 -9 15 -5 8 3 15 1 15 -4 0 -5 -8 -11 -19 -15 -18
-5 -60 -45 -48 -45 4 0 25 9 47 21 42 22 51 43 24 53 -23 9 -34 7 -34 -5z"/>
<path d="M9576 251 c-3 -5 1 -11 9 -15 9 -3 15 0 15 9 0 16 -16 20 -24 6z"/>
<path d="M11235 250 c-3 -6 1 -7 9 -4 18 7 21 14 7 14 -6 0 -13 -4 -16 -10z"/>
<path d="M9870 90 c0 -5 7 -10 16 -10 8 0 12 5 9 10 -3 6 -10 10 -16 10 -5 0
-9 -4 -9 -10z"/>
<path d="M10735 60 c-8 -13 5 -13 25 0 13 8 13 10 -2 10 -9 0 -20 -4 -23 -10z"/>
</g>
</svg>
