<?xml version="1.0" encoding="UTF-8"?>
<svg version="1.1" xmlns="http://www.w3.org/2000/svg" width="640" height="480">
<path d="M0 0 C211.2 0 422.4 0 640 0 C640 158.4 640 316.8 640 480 C428.8 480 217.6 480 0 480 C0 321.6 0 163.2 0 0 Z " fill="#FEFEFE" transform="translate(0,0)"/>
<path d="M0 0 C2.2608872 -0.0029677 4.52176974 -0.00707879 6.78265452 -0.01150417 C13.91604672 -0.02512902 21.04942778 -0.03481777 28.18283206 -0.03870606 C36.30543792 -0.04316277 44.4278735 -0.06062013 52.55042773 -0.08970666 C58.90196444 -0.11162911 65.25345436 -0.1214264 71.60502833 -0.12274718 C75.36399748 -0.12377454 79.12280575 -0.12922025 82.88173366 -0.1475668 C98.45764552 -0.2191965 113.86676412 0.13323573 129.3813045 1.6074152 C130.05255646 1.67084157 130.72380841 1.73426795 131.41540134 1.79961634 C141.19602945 2.74543049 150.5072066 4.07613644 159.85811114 7.20018864 C160.49490802 7.40482731 161.13170489 7.60946598 161.78779864 7.82030582 C178.65957425 13.31019779 192.48616576 21.47671882 204.85811114 34.20018864 C205.69084552 35.03550114 206.52357989 35.87081364 207.38154864 36.73143864 C227.41465954 57.79013541 234.06690117 85.73531673 235.65780902 113.90773869 C235.78761881 116.04147664 235.93627859 118.17418468 236.10728717 120.30501652 C237.1395997 133.99400619 237.0029322 147.69084797 236.99092364 161.41112614 C236.9911476 164.15092346 236.99257025 166.89071999 236.99382281 169.63051701 C236.9956322 175.35768467 236.99327334 181.08483936 236.98848224 186.81200504 C236.98306814 193.35789332 236.98478644 199.90375028 236.99030864 206.44963777 C236.99490669 212.13524809 236.99545747 217.8208492 236.99286997 223.50646079 C236.99133999 226.87283722 236.99143405 230.23918784 236.99440646 233.60556507 C237.00353937 246.86330866 236.91282642 260.10499117 236.42793536 273.35497379 C236.37299505 274.90568105 236.37299505 274.90568105 236.31694484 276.48771572 C234.85991501 311.91666201 224.0125391 342.31746169 197.98311114 366.95018864 C163.29292622 397.16773966 113.78176351 394.35597679 70.72529864 394.36815739 C69.37225204 394.36958827 68.01920561 394.37118582 66.66615939 394.37294292 C59.58235262 394.38211147 52.49856428 394.38628849 45.41475177 394.38549137 C38.92044242 394.38489232 32.42621657 394.39543263 25.93192828 394.41123503 C20.26304223 394.42451341 14.59418279 394.429667 8.92528141 394.42903596 C5.58063918 394.4287869 2.23612961 394.43229366 -1.10850644 394.44221401 C-15.38172061 394.48059993 -29.58601002 394.20107368 -43.82890058 393.29515934 C-45.73600655 393.17565182 -45.73600655 393.17565182 -47.68163991 393.05373001 C-81.22629428 390.73464795 -109.2234755 378.59705005 -131.76298261 353.12987614 C-158.64976634 320.01807351 -157.3125786 274.31141602 -157.27621436 234.03318882 C-157.2736397 230.27586647 -157.27604224 226.51854627 -157.27760053 222.76122379 C-157.27940758 216.45767108 -157.2770547 210.15413017 -157.27225995 203.85057926 C-157.26682018 196.61659708 -157.26858389 189.38264311 -157.27408636 182.14866161 C-157.27865957 175.87966582 -157.27924765 169.6106784 -157.27664769 163.34168148 C-157.27510785 159.622902 -157.27482677 155.90413567 -157.27818418 152.18535709 C-157.31115824 109.77735248 -157.31115824 109.77735248 -154.26688886 94.76268864 C-154.0876286 93.83802799 -153.90836835 92.91336735 -153.72367597 91.96068668 C-153.21355214 89.36996847 -152.68271075 86.78464726 -152.14188886 84.20018864 C-151.89309979 82.98846989 -151.64431073 81.77675114 -151.38798261 80.52831364 C-149.82587737 73.63719798 -147.33004733 67.49499016 -144.14188886 61.20018864 C-143.68813886 60.2939777 -143.23438886 59.38776676 -142.76688886 58.45409489 C-130.41766853 34.79594181 -109.9215874 16.84606706 -84.51688886 8.38768864 C-56.98508629 -0.11436024 -28.56384113 0.03570956 0 0 Z " fill="#FDFDFD" transform="translate(280.1418888568878,42.799811363220215)"/>
<path d="M0 0 C2.2608872 -0.0029677 4.52176974 -0.00707879 6.78265452 -0.01150417 C13.91604672 -0.02512902 21.04942778 -0.03481777 28.18283206 -0.03870606 C36.30543792 -0.04316277 44.4278735 -0.06062013 52.55042773 -0.08970666 C58.90196444 -0.11162911 65.25345436 -0.1214264 71.60502833 -0.12274718 C75.36399748 -0.12377454 79.12280575 -0.12922025 82.88173366 -0.1475668 C98.45764552 -0.2191965 113.86676412 0.13323573 129.3813045 1.6074152 C130.05255646 1.67084157 130.72380841 1.73426795 131.41540134 1.79961634 C141.19602945 2.74543049 150.5072066 4.07613644 159.85811114 7.20018864 C160.49490802 7.40482731 161.13170489 7.60946598 161.78779864 7.82030582 C178.65957425 13.31019779 192.48616576 21.47671882 204.85811114 34.20018864 C205.69084552 35.03550114 206.52357989 35.87081364 207.38154864 36.73143864 C227.41465954 57.79013541 234.06690117 85.73531673 235.65780902 113.90773869 C235.78761881 116.04147664 235.93627859 118.17418468 236.10728717 120.30501652 C237.1395997 133.99400619 237.0029322 147.69084797 236.99092364 161.41112614 C236.9911476 164.15092346 236.99257025 166.89071999 236.99382281 169.63051701 C236.9956322 175.35768467 236.99327334 181.08483936 236.98848224 186.81200504 C236.98306814 193.35789332 236.98478644 199.90375028 236.99030864 206.44963777 C236.99490669 212.13524809 236.99545747 217.8208492 236.99286997 223.50646079 C236.99133999 226.87283722 236.99143405 230.23918784 236.99440646 233.60556507 C237.00353937 246.86330866 236.91282642 260.10499117 236.42793536 273.35497379 C236.37299505 274.90568105 236.37299505 274.90568105 236.31694484 276.48771572 C234.85991501 311.91666201 224.0125391 342.31746169 197.98311114 366.95018864 C163.29292622 397.16773966 113.78176351 394.35597679 70.72529864 394.36815739 C69.37225204 394.36958827 68.01920561 394.37118582 66.66615939 394.37294292 C59.58235262 394.38211147 52.49856428 394.38628849 45.41475177 394.38549137 C38.92044242 394.38489232 32.42621657 394.39543263 25.93192828 394.41123503 C20.26304223 394.42451341 14.59418279 394.429667 8.92528141 394.42903596 C5.58063918 394.4287869 2.23612961 394.43229366 -1.10850644 394.44221401 C-15.38172061 394.48059993 -29.58601002 394.20107368 -43.82890058 393.29515934 C-45.73600655 393.17565182 -45.73600655 393.17565182 -47.68163991 393.05373001 C-81.22629428 390.73464795 -109.2234755 378.59705005 -131.76298261 353.12987614 C-158.64976634 320.01807351 -157.3125786 274.31141602 -157.27621436 234.03318882 C-157.2736397 230.27586647 -157.27604224 226.51854627 -157.27760053 222.76122379 C-157.27940758 216.45767108 -157.2770547 210.15413017 -157.27225995 203.85057926 C-157.26682018 196.61659708 -157.26858389 189.38264311 -157.27408636 182.14866161 C-157.27865957 175.87966582 -157.27924765 169.6106784 -157.27664769 163.34168148 C-157.27510785 159.622902 -157.27482677 155.90413567 -157.27818418 152.18535709 C-157.31115824 109.77735248 -157.31115824 109.77735248 -154.26688886 94.76268864 C-154.0876286 93.83802799 -153.90836835 92.91336735 -153.72367597 91.96068668 C-153.21355214 89.36996847 -152.68271075 86.78464726 -152.14188886 84.20018864 C-151.89309979 82.98846989 -151.64431073 81.77675114 -151.38798261 80.52831364 C-149.82587737 73.63719798 -147.33004733 67.49499016 -144.14188886 61.20018864 C-143.68813886 60.2939777 -143.23438886 59.38776676 -142.76688886 58.45409489 C-130.41766853 34.79594181 -109.9215874 16.84606706 -84.51688886 8.38768864 C-56.98508629 -0.11436024 -28.56384113 0.03570956 0 0 Z M-100.45438886 58.95018864 C-120.21635768 79.92377922 -121.27969024 109.18589982 -121.30302167 136.3417902 C-121.30766941 137.77653468 -121.31269655 139.21127798 -121.31806684 140.64601994 C-121.3310087 144.49393684 -121.33760002 148.34183646 -121.34207749 152.18977165 C-121.34503928 154.61159897 -121.34914943 157.03342188 -121.35358167 159.45524693 C-121.36721138 167.0841269 -121.37689888 174.71299642 -121.38078356 182.34188771 C-121.38524723 191.05203375 -121.40273542 199.76202154 -121.43178415 208.47211957 C-121.45363824 215.26858036 -121.46350034 222.06499743 -121.46482468 228.86149287 C-121.46585636 232.89085871 -121.47140281 236.92007501 -121.48964429 240.94940281 C-122.40682851 293.20917803 -122.40682851 293.20917803 -97.96610761 337.54003239 C-73.58919928 360.50085475 -39.01288551 358.51911614 -7.84281826 358.46883965 C-3.64647024 358.46369964 0.54986998 358.46849318 4.74621844 358.47161198 C11.79044954 358.47522991 18.83463844 358.47051137 25.8788631 358.46093082 C33.96145809 358.45006325 42.04395201 358.45356838 50.12654454 358.46458364 C57.12764684 358.47373431 64.12871916 358.47490384 71.12982553 358.4697063 C75.28410638 358.46662726 79.43834015 358.46606228 83.59261775 358.47277927 C135.1354278 359.32574984 135.1354278 359.32574984 179.40498614 335.80565739 C187.30505275 327.41498154 192.28262618 318.12767479 195.85811114 307.20018864 C196.17507953 306.35941776 196.49204791 305.51864689 196.8186214 304.65239811 C202.54343074 285.63995367 201.28333015 264.59932796 201.19522452 244.93407249 C201.17988687 240.82891809 201.1813556 236.72376288 201.18055987 232.61858463 C201.1768982 225.73704812 201.16208875 218.85561321 201.13936114 211.97411442 C201.11044993 203.20379335 201.10012615 194.43355347 201.09567904 185.66318989 C201.09166726 178.03517511 201.07917853 170.40717719 201.06533217 162.7791748 C201.0612819 160.36805288 201.05833216 157.95693151 201.05553699 155.54580784 C202.45391146 102.21202507 202.45391146 102.21202507 177.62373614 56.96971989 C157.35451681 38.34300626 131.43637054 36.04386521 105.03120685 36.05492496 C103.5823331 36.05192468 102.13346014 36.04852018 100.68458819 36.04474735 C96.78084779 36.03598478 92.87712938 36.03357234 88.97338009 36.03293157 C86.52010589 36.03221586 84.0668371 36.03007166 81.61356425 36.02743435 C73.01302882 36.01820167 64.41250879 36.01409625 55.81196856 36.0148859 C47.86534616 36.01548392 39.91879223 36.00498121 31.9721871 35.98914224 C25.09687349 35.97593981 18.22158187 35.97070736 11.34625572 35.97134131 C7.26386717 35.9715929 3.1815394 35.96893488 -0.90083623 35.95816326 C-54.43515697 34.82522737 -54.43515697 34.82522737 -100.45438886 58.95018864 Z " fill="#020202" transform="translate(280.1418888568878,42.799811363220215)"/>
<path d="M0 0 C18.44124544 15.89678976 31.08524369 38.88821057 34.625 63 C36.21142074 90.70467491 31.70557658 115.50363085 14.625 138 C13.97015625 138.8971875 13.3153125 139.794375 12.640625 140.71875 C9.24051896 145.27095808 9.24051896 145.27095808 7.625 147 C6.965 147 6.305 147 5.625 147 C5.625 147.66 5.625 148.32 5.625 149 C4.965 149 4.305 149 3.625 149 C3.295 149.99 2.965 150.98 2.625 152 C0.78565549 153.6756488 -1.02484604 155.18788863 -3 156.6875 C-3.57830566 157.12666748 -4.15661133 157.56583496 -4.75244141 158.01831055 C-15.66266216 166.07915164 -27.34467661 171.30900711 -40.375 175 C-41.41140625 175.3196875 -42.4478125 175.639375 -43.515625 175.96875 C-60.41717776 180.46472955 -79.89611024 179.71490116 -96.375 174 C-98.14423828 173.38705078 -98.14423828 173.38705078 -99.94921875 172.76171875 C-103.13271769 171.58923282 -106.25539674 170.33201419 -109.375 169 C-110.06464844 168.71769531 -110.75429688 168.43539062 -111.46484375 168.14453125 C-134.54819897 157.7497011 -151.64217194 136.57090813 -161.05859375 113.6328125 C-170.79129057 86.77403492 -169.86714015 58.92994566 -158.28125 32.93359375 C-147.31592285 9.60418614 -126.30093024 -9.2643712 -102.3125 -18.375 C-99.68314729 -19.30702562 -97.03780408 -20.16895581 -94.375 -21 C-93.31667969 -21.3403125 -92.25835937 -21.680625 -91.16796875 -22.03125 C-59.21426811 -30.54173007 -25.03159152 -20.54855454 0 0 Z " fill="#020202" transform="translate(386.375,163)"/>
<path d="M0 0 C0.98226562 -0.020625 1.96453125 -0.04125 2.9765625 -0.0625 C13.38765046 -0.1172952 22.63376704 2.54068058 31.875 7.25 C33.06029297 7.84554687 33.06029297 7.84554687 34.26953125 8.453125 C48.731376 16.37867141 58.6414641 29.96783931 64.4375 45.1875 C69.44684191 63.83979614 66.28299449 83.64689299 56.86328125 100.20703125 C53.69231332 105.06004504 49.99937124 109.19215087 45.875 113.25 C45.30007813 113.82363281 44.72515625 114.39726562 44.1328125 114.98828125 C29.36863245 128.65751015 10.83506297 131.04666349 -8.33789062 130.42480469 C-23.81807096 129.4539034 -36.41482645 120.90238485 -47.125 110.25 C-47.67671875 109.73308594 -48.2284375 109.21617187 -48.796875 108.68359375 C-60.98542584 96.13462877 -64.60884008 78.0970059 -64.47705078 61.33032227 C-64.08101275 45.38910868 -58.5069619 33.27355416 -48.125 21.25 C-47.54234375 20.57195312 -46.9596875 19.89390625 -46.359375 19.1953125 C-33.93388789 5.77787473 -17.8165034 0.09136668 0 0 Z " fill="#FDFDFD" transform="translate(319.125,174.75)"/>
<path d="M0 0 C5.02098094 3.0277272 9.21709686 7.91137373 11.33203125 13.40625 C12.17629392 21.37766036 12.25062771 28.79989985 7.33203125 35.40625 C3.02709445 40.5256343 -1.24267096 43.96108494 -7.9140625 44.828125 C-15.62352388 45.126877 -21.67714033 44.52367223 -27.66796875 39.40625 C-33.17096896 33.51102731 -36.15340151 27.93989021 -35.91015625 19.8046875 C-35.19695397 12.74168432 -32.91608597 7.684368 -27.61328125 2.9140625 C-18.89470561 -3.84370898 -10.10578633 -4.45609476 0 0 Z " fill="#030303" transform="translate(436.66796875,113.59375)"/>
<path d="M0 0 C0.33 1.32 0.66 2.64 1 4 C-1.35953094 6.35953094 -2.77895617 6.49141413 -6 7 C-4.02 4.69 -2.04 2.38 0 0 Z " fill="#2F2F2F" transform="translate(251,165)"/>
</svg>
