<?xml version="1.0" encoding="UTF-8"?>
<!DOCTYPE svg PUBLIC "-//W3C//DTD SVG 1.1//EN" "http://www.w3.org/Graphics/SVG/1.1/DTD/svg11.dtd">
<svg xmlns="http://www.w3.org/2000/svg" version="1.1" width="240px" height="240px" style="shape-rendering:geometricPrecision; text-rendering:geometricPrecision; image-rendering:optimizeQuality; fill-rule:evenodd; clip-rule:evenodd" xmlns:xlink="http://www.w3.org/1999/xlink">
<g><path style="opacity:1" fill="#fefefe" d="M -0.5,-0.5 C 35.8333,-0.5 72.1667,-0.5 108.5,-0.5C 71.8077,7.02419 48.9744,29.0242 40,65.5C 38.9042,77.3452 39.9042,89.0118 43,100.5C 50.9788,124.456 61.6454,147.123 75,168.5C 89.7248,191.718 104.225,215.051 118.5,238.5C 118.5,238.833 118.5,239.167 118.5,239.5C 78.8333,239.5 39.1667,239.5 -0.5,239.5C -0.5,159.5 -0.5,79.5 -0.5,-0.5 Z"/></g>
<g><path style="opacity:1" fill="#080808" d="M 108.5,-0.5 C 115.167,-0.5 121.833,-0.5 128.5,-0.5C 166.28,6.11004 189.78,28.11 199,65.5C 200.096,77.3452 199.096,89.0118 196,100.5C 186.525,128.115 173.859,154.115 158,178.5C 145.416,197.998 133.083,217.665 121,237.5C 120.329,238.252 119.496,238.586 118.5,238.5C 104.225,215.051 89.7248,191.718 75,168.5C 61.6454,147.123 50.9788,124.456 43,100.5C 39.9042,89.0118 38.9042,77.3452 40,65.5C 48.9744,29.0242 71.8077,7.02419 108.5,-0.5 Z"/></g>
<g><path style="opacity:1" fill="#fefefe" d="M 128.5,-0.5 C 165.5,-0.5 202.5,-0.5 239.5,-0.5C 239.5,79.5 239.5,159.5 239.5,239.5C 199.167,239.5 158.833,239.5 118.5,239.5C 118.5,239.167 118.5,238.833 118.5,238.5C 119.496,238.586 120.329,238.252 121,237.5C 133.083,217.665 145.416,197.998 158,178.5C 173.859,154.115 186.525,128.115 196,100.5C 199.096,89.0118 200.096,77.3452 199,65.5C 189.78,28.11 166.28,6.11004 128.5,-0.5 Z"/></g>
<g><path style="opacity:1" fill="#fdfdfd" d="M 109.5,9.5 C 140.094,7.71494 163.928,19.3816 181,44.5C 190.834,62.838 192.167,81.838 185,101.5C 175.971,126.511 164.304,150.178 150,172.5C 140.031,188.634 129.864,204.634 119.5,220.5C 100.661,191.497 82.8273,161.83 66,131.5C 56.3833,113.866 50.8833,95.0326 49.5,75C 52.1841,45.6407 67.1841,25.3074 94.5,14C 99.5772,12.32 104.577,10.82 109.5,9.5 Z"/></g>
<g><path style="opacity:1" fill="#070707" d="M 112.5,49.5 C 137.531,48.6983 149.697,60.6983 149,85.5C 143.412,103.404 131.245,111.237 112.5,109C 95.2274,102.969 87.7274,90.8026 90,72.5C 93.684,60.9837 101.184,53.3171 112.5,49.5 Z"/></g>
<g><path style="opacity:1" fill="#f9f9f9" d="M 114.5,59.5 C 131.979,58.8119 140.146,67.1453 139,84.5C 133.365,98.3825 123.532,102.549 109.5,97C 99.4862,89.9502 96.9862,80.7835 102,69.5C 105.191,64.8366 109.358,61.5032 114.5,59.5 Z"/></g>
</svg>
