<?xml version="1.0" standalone="no"?>
<!DOCTYPE svg PUBLIC "-//W3C//DTD SVG 20010904//EN"
 "http://www.w3.org/TR/2001/REC-SVG-20010904/DTD/svg10.dtd">
<svg version="1.0" xmlns="http://www.w3.org/2000/svg"
 width="250.000000pt" height="250.000000pt" viewBox="0 0 250.000000 250.000000"
 preserveAspectRatio="xMidYMid meet">

<g transform="translate(0.000000,250.000000) scale(0.100000,-0.100000)"
fill="#000000" stroke="none">
<path d="M1895 1651 c-94 -29 -254 -91 -316 -122 -37 -18 -65 -41 -79 -64 -17
-27 -25 -33 -31 -23 -7 10 -9 10 -9 -2 0 -12 -2 -12 -9 -2 -6 10 -9 8 -13 -10
-13 -68 24 -64 211 23 230 105 313 131 446 136 71 3 138 -1 190 -10 119 -22
116 -19 -65 56 -97 40 -231 47 -325 18z"/>
<path d="M361 1645 c-52 -17 -212 -87 -208 -91 1 -2 39 3 82 11 209 37 327 14
640 -127 71 -32 139 -57 150 -56 15 2 21 12 23 38 2 26 0 31 -8 20 -6 -10 -10
-11 -10 -3 0 7 -6 10 -13 7 -7 -2 -21 10 -31 27 -22 38 -110 81 -289 141 -140
48 -257 59 -336 33z"/>
<path d="M2100 1326 c-14 -28 -32 -51 -40 -51 -16 0 -17 10 -6 60 l7 30 -18
-33 c-22 -41 -48 -39 -48 5 0 17 -3 29 -7 26 -5 -2 -8 -13 -8 -24 0 -27 -30
-24 -31 4 -1 15 -3 17 -6 5 -4 -14 -14 -16 -71 -11 -113 9 -247 -42 -320 -121
-27 -29 -27 -30 -2 -13 90 60 193 107 238 107 19 0 14 -45 -8 -71 l-20 -24 6
29 c5 21 4 27 -5 22 -6 -4 -11 -13 -11 -20 0 -8 -7 -19 -15 -26 -12 -10 -15
-9 -15 6 -1 14 -5 11 -17 -11 -15 -27 -17 -28 -24 -10 -4 11 -8 15 -8 9 -1 -5
-8 -19 -17 -30 -14 -18 -15 -18 -9 6 4 20 2 19 -12 -7 -9 -18 -21 -33 -27 -33
-9 -1 -75 -80 -84 -102 -2 -4 20 8 48 27 61 41 70 43 71 13 1 -18 3 -15 10 10
9 31 13 33 47 30 46 -4 51 -30 7 -39 -16 -4 -25 -7 -18 -8 6 0 9 -9 6 -19 -11
-45 77 -62 109 -22 19 23 19 44 3 83 -5 12 -2 17 9 17 9 0 21 -10 26 -22 7
-18 9 -19 9 -5 1 9 4 17 9 17 14 0 112 -60 112 -69 0 -12 -67 -57 -121 -80
-25 -11 -83 -27 -130 -34 -82 -14 -83 -15 -30 -16 57 -1 192 27 202 42 4 5 11
7 17 3 15 -9 63 15 55 27 -4 6 5 7 23 3 28 -6 28 -6 9 9 -18 14 -17 15 15 9
28 -4 32 -3 20 6 -12 9 -8 10 20 6 32 -6 33 -5 15 8 -19 13 -18 15 17 21 52
10 122 57 158 106 43 60 37 70 -12 22 -49 -46 -77 -63 -108 -63 -19 0 -18 3
11 27 36 30 89 100 89 117 0 6 -13 -5 -29 -24 -16 -19 -44 -44 -62 -54 l-33
-19 21 29 c26 37 49 82 57 114 4 15 -2 9 -15 -15 -25 -47 -53 -79 -93 -107
l-28 -21 11 21 c6 12 19 27 29 34 9 7 17 18 17 23 0 6 9 34 19 63 10 29 16 55
15 56 -2 2 -15 -20 -29 -48z m-265 -43 c-3 -16 -13 -35 -22 -43 -14 -13 -15
-13 -9 3 3 10 6 30 6 43 0 15 6 24 16 24 13 0 15 -6 9 -27z m45 13 c0 -8 -9
-24 -21 -37 -16 -19 -19 -20 -15 -6 3 10 6 27 6 38 0 10 7 19 15 19 8 0 15 -6
15 -14z m40 7 c0 -14 -19 -38 -25 -32 -8 8 5 39 16 39 5 0 9 -3 9 -7z m40 -11
c0 -5 -12 -19 -26 -33 l-27 -24 17 33 c15 29 36 43 36 24z m30 -37 c-27 -29
-37 -27 -20 4 6 12 18 21 27 21 13 0 12 -5 -7 -25z m45 -22 c-33 -29 -44 -23
-19 10 11 14 25 22 33 19 11 -4 7 -11 -14 -29z"/>
<path d="M376 1340 c3 -14 12 -40 20 -57 7 -18 11 -33 8 -33 -3 0 9 -14 25
-32 17 -18 28 -34 26 -36 -10 -10 -80 58 -106 103 -16 28 -29 43 -29 35 0 -18
55 -116 70 -125 5 -3 10 -11 10 -17 0 -13 -67 36 -97 71 -30 35 -29 20 1 -28
24 -37 64 -75 89 -84 7 -2 9 -8 5 -12 -14 -15 -83 19 -131 64 -48 44 -49 45
-33 14 35 -70 134 -142 194 -143 27 0 28 -8 5 -27 -16 -13 -16 -13 4 -4 33 16
52 13 28 -5 -18 -13 -17 -14 15 -8 28 4 32 3 20 -6 -12 -9 -9 -10 13 -5 17 3
26 2 23 -3 -17 -28 229 -80 306 -66 40 8 37 9 -47 15 -94 7 -190 41 -245 87
-25 21 -25 21 -5 37 22 17 91 55 101 55 3 0 4 -7 0 -15 -3 -8 -2 -15 3 -15 5
0 11 9 14 20 3 11 13 20 22 20 13 0 15 -5 9 -17 -11 -26 -9 -70 6 -88 28 -34
121 -9 107 29 -3 7 -1 18 4 23 5 5 -2 9 -19 8 -44 0 -35 29 11 33 35 3 38 1
44 -30 l7 -33 6 29 5 28 54 -36 c29 -20 55 -36 57 -36 3 0 -14 25 -37 55 -23
31 -44 53 -47 50 -4 -3 -14 9 -24 27 -13 26 -17 29 -18 13 -1 -17 -3 -16 -16
8 -18 33 -28 35 -19 5 5 -20 5 -21 -7 -6 -7 9 -19 25 -26 35 -11 17 -12 16 -7
-4 9 -34 -9 -28 -28 10 -17 31 -17 31 -14 5 6 -40 -8 -34 -26 10 l-16 37 0
-34 c-1 -40 -5 -38 -26 12 l-15 37 60 -4 c59 -4 141 -36 220 -87 l35 -23 -30
33 c-16 18 -64 49 -104 69 -71 35 -81 37 -170 37 -53 0 -99 5 -103 10 -4 6 -8
2 -8 -7 0 -25 -25 -22 -39 5 -11 21 -11 21 -6 -4 3 -17 -1 -31 -10 -39 -18
-15 -17 -15 -39 25 -16 28 -17 28 -13 5 2 -14 6 -31 8 -39 2 -8 -4 -16 -13
-19 -12 -2 -25 11 -43 45 -14 26 -23 37 -19 23z m224 -39 c0 -5 3 -18 6 -28 5
-16 4 -16 -10 1 -18 23 -20 36 -6 36 6 0 10 -4 10 -9z m48 -32 l2 -34 -15 25
c-18 31 -19 53 -2 48 6 -3 13 -20 15 -39z m-76 1 c9 -17 15 -30 12 -30 -8 0
-43 43 -44 53 0 17 16 5 32 -23z m-44 -15 l12 -26 -25 18 c-27 20 -32 33 -12
33 8 0 19 -11 25 -25z m-44 -17 c9 -12 14 -24 11 -26 -7 -7 -55 27 -55 38 0
18 29 10 44 -12z"/>
<path d="M650 1057 c0 -15 23 -52 39 -64 27 -20 71 -23 106 -9 34 15 60 48 52
69 -3 7 -8 4 -12 -8 -13 -32 -47 -55 -86 -55 -38 0 -57 11 -83 50 -9 13 -16
21 -16 17z"/>
<path d="M1840 1053 c0 -5 -11 -22 -25 -37 -36 -38 -93 -37 -134 5 -36 36 -42
24 -7 -14 31 -33 66 -42 111 -27 33 11 75 64 61 78 -3 3 -6 1 -6 -5z"/>
</g>
</svg>
