<?xml version="1.0" encoding="UTF-8"?>
<!DOCTYPE svg PUBLIC "-//W3C//DTD SVG 1.1//EN" "http://www.w3.org/Graphics/SVG/1.1/DTD/svg11.dtd">
<svg xmlns="http://www.w3.org/2000/svg" version="1.1" width="225px" height="225px" style="shape-rendering:geometricPrecision; text-rendering:geometricPrecision; image-rendering:optimizeQuality; fill-rule:evenodd; clip-rule:evenodd" xmlns:xlink="http://www.w3.org/1999/xlink">
<g><path style="opacity:1" fill="#fefefe" d="M -0.5,-0.5 C 74.5,-0.5 149.5,-0.5 224.5,-0.5C 224.5,74.5 224.5,149.5 224.5,224.5C 149.5,224.5 74.5,224.5 -0.5,224.5C -0.5,149.5 -0.5,74.5 -0.5,-0.5 Z"/></g>
<g><path style="opacity:1" fill="#101010" d="M 54.5,26.5 C 59.7019,25.7562 64.3686,26.9228 68.5,30C 79.4274,40.2563 89.5941,51.0896 99,62.5C 99.7383,66.4017 99.0717,70.0684 97,73.5C 91.1667,79.3333 85.3333,85.1667 79.5,91C 93.3333,112.833 111.167,130.667 133,144.5C 139.569,137.261 146.735,130.761 154.5,125C 158.814,124.545 162.814,125.545 166.5,128C 175,137.833 184.167,147 194,155.5C 197.733,160.431 198.4,165.764 196,171.5C 189.167,178.333 182.333,185.167 175.5,192C 165.842,197.22 155.509,198.887 144.5,197C 92.5264,180.031 55.3597,146.531 33,96.5C 27.4769,85.0772 25.4769,73.0772 27,60.5C 27.7394,56.6148 29.0728,52.9481 31,49.5C 38.0656,40.9332 45.8989,33.2665 54.5,26.5 Z"/></g>
<g><path style="opacity:1" fill="#f6f6f6" d="M 56.5,33.5 C 58.1992,33.3398 59.8659,33.5065 61.5,34C 71.3333,43.8333 81.1667,53.6667 91,63.5C 91.6667,65.5 91.6667,67.5 91,69.5C 88.6094,72.5968 85.776,74.7635 82.5,76C 71.1667,64.6667 59.8333,53.3333 48.5,42C 51.3714,39.2972 54.0381,36.4639 56.5,33.5 Z"/></g>
<g><path style="opacity:1" fill="#fcfcfc" d="M 42.5,47.5 C 54.9137,58.4104 66.9137,69.9104 78.5,82C 76.3333,84.1667 74.1667,86.3333 72,88.5C 71.3333,89.8333 71.3333,91.1667 72,92.5C 86.5,117.667 106.333,137.5 131.5,152C 132.833,152.667 134.167,152.667 135.5,152C 137.667,149.833 139.833,147.667 142,145.5C 153.333,156.833 164.667,168.167 176,179.5C 175.454,182.093 173.954,184.26 171.5,186C 164.027,190.235 156.027,191.569 147.5,190C 91.9554,172.123 54.4554,135.623 35,80.5C 31.0309,67.8521 33.5309,56.8521 42.5,47.5 Z"/></g>
<g><path style="opacity:1" fill="#f6f6f6" d="M 154.5,132.5 C 156.527,132.338 158.527,132.505 160.5,133C 170.333,142.833 180.167,152.667 190,162.5C 190.667,164.167 190.667,165.833 190,167.5C 187.833,169.667 185.667,171.833 183.5,174C 182.5,174.667 181.5,174.667 180.5,174C 169.667,163.167 158.833,152.333 148,141.5C 147.333,140.833 147.333,140.167 148,139.5C 150.372,137.297 152.539,134.963 154.5,132.5 Z"/></g>
</svg>
